# Blender v2.79 (sub 0) OBJ File: 'antenna_modern.blend'
# www.blender.org
mtllib antenna_modern.mtl
o Plane
v -0.081269 0.000000 0.038481
v 0.081269 0.000000 0.052503
v -0.081269 0.000000 -0.038481
v 0.081269 0.000000 -0.052503
v -0.098271 0.030957 -0.038481
v -0.098271 0.030957 0.038481
v 0.064267 0.030957 0.052503
v 0.064267 0.030957 -0.052503
v -0.101558 0.058755 -0.020638
v -0.101558 0.058755 0.020638
v -0.014386 0.058755 0.028158
v -0.014386 0.058755 -0.028158
v -0.142878 0.100434 -0.009714
v -0.142878 0.100434 0.009714
v -0.101848 0.100434 0.013254
v -0.101848 0.100434 -0.013254
v -0.230873 0.160865 -0.002839
v -0.230873 0.160865 0.002839
v -0.218881 0.160865 0.003874
v -0.218881 0.160865 -0.003874
v -0.081269 0.000000 -0.038481
v -0.081269 0.000000 -0.038481
v -0.081269 0.000000 0.038481
v -0.081269 0.000000 0.038481
v 0.081269 0.000000 0.052503
v 0.081269 0.000000 0.052503
v 0.081269 0.000000 -0.052503
v 0.081269 0.000000 -0.052503
v -0.098271 0.030957 0.038481
v -0.098271 0.030957 0.038481
v 0.064267 0.030957 0.052503
v 0.064267 0.030957 0.052503
v 0.064267 0.030957 0.052503
v 0.064267 0.030957 -0.052503
v 0.064267 0.030957 -0.052503
v 0.064267 0.030957 -0.052503
v -0.098271 0.030957 -0.038481
v -0.098271 0.030957 -0.038481
v -0.101558 0.058755 -0.020638
v -0.014386 0.058755 -0.028158
v -0.014386 0.058755 0.028158
v -0.101558 0.058755 0.020638
v -0.101848 0.100434 -0.013254
v -0.101848 0.100434 0.013254
v -0.142878 0.100434 0.009714
v -0.142878 0.100434 -0.009714
v -0.230873 0.160865 -0.002839
v -0.230873 0.160865 -0.002839
v -0.230873 0.160865 0.002839
v -0.230873 0.160865 0.002839
v -0.218881 0.160865 0.003874
v -0.218881 0.160865 0.003874
v -0.218881 0.160865 -0.003874
v -0.218881 0.160865 -0.003874
vn 0.0000 -1.0000 0.0000
vn -0.0727 0.5326 -0.8432
vn -0.0816 0.3143 -0.9458
vn -0.0750 0.4869 -0.8702
vn -0.0858 -0.0471 -0.9952
vn -0.0858 -0.0471 0.9952
vn 0.8765 0.4814 0.0000
vn -0.8765 -0.4814 0.0000
vn -0.9384 -0.3456 0.0000
vn 0.3757 0.9267 0.0000
vn 0.4436 0.8962 0.0000
vn -0.0727 0.5326 0.8432
vn -0.0750 0.4869 0.8702
vn -0.0816 0.3143 0.9458
vn 0.3332 0.9428 0.0000
vn -0.9301 -0.3673 0.0000
vn -0.6464 -0.7629 0.0000
vn -0.5661 -0.8243 0.0000
vn -0.0859 0.0321 -0.9958
vn -0.0850 0.1458 -0.9856
vn -0.0850 0.1458 0.9856
vn -0.0859 0.0321 0.9958
vn 0.0000 1.0000 0.0000
vn -0.0859 -0.0118 -0.9962
vn -0.0859 -0.0118 0.9962
vn 0.4588 0.8885 0.0000
usemtl None
s 1
f 23//1 21//1 27//1 25//1
f 35//2 38//2 9//3 12//4
f 28//5 22//5 5//5 36//5
f 24//6 26//6 31//6 30//6
f 2//7 4//7 34//7 32//7
f 3//8 1//8 29//9 37//9
f 11//10 40//10 43//11 15//11
f 6//12 33//12 41//13 10//14
f 7//15 8//15 40//10 11//10
f 37//9 29//9 42//16 39//16
f 46//17 45//17 49//18 47//18
f 39//16 42//16 45//17 46//17
f 12//4 9//3 13//19 16//20
f 10//14 41//13 44//21 14//22
f 50//23 51//23 53//23 48//23
f 16//20 13//19 17//24 54//24
f 14//22 44//21 52//25 18//25
f 15//11 43//11 20//26 19//26
