# Blender v2.79 (sub 0) OBJ File: 'antenna_long.blend'
# www.blender.org
mtllib antenna_long.mtl
o Plane
v -0.025434 -0.000000 0.021368
v -0.025434 0.000000 -0.000489
v -0.007650 0.000000 0.010440
v -0.010929 0.000000 0.000000
v 0.006855 0.019429 0.000000
v -0.010929 0.019429 0.010929
v -0.010929 0.019429 -0.010929
v 0.006855 0.032351 0.010911
v -0.010929 0.021950 0.014265
v -0.010929 0.042753 0.007558
v -0.007492 0.038270 0.029327
v -0.022455 0.027869 0.019147
v -0.017720 0.048672 0.014397
v -0.023319 0.042183 0.035139
v -0.028365 0.031782 0.017759
v -0.021689 0.052585 0.017115
v -0.043109 0.045280 0.025212
v -0.031628 0.034879 0.011222
v -0.027322 0.055682 0.016364
v -0.045397 0.050483 0.008970
v -0.027732 0.040082 0.005037
v -0.027513 0.060885 0.011740
v -0.032549 0.053661 -0.011510
v -0.020693 0.043259 0.002163
v -0.026486 0.064062 0.005542
v -0.008152 0.059428 -0.015559
v -0.009361 0.049027 0.002498
v -0.015854 0.069830 0.000817
v 0.011965 0.065537 0.010849
v -0.004792 0.055136 0.017684
v -0.006130 0.075939 0.011112
v -0.010796 0.074539 0.037126
v -0.017571 0.064137 0.020345
v -0.010995 0.084940 0.019030
v -0.034982 0.078800 0.031526
v -0.023846 0.068398 0.017260
v -0.019416 0.089201 0.022295
v -0.041002 0.083086 0.013269
v -0.022958 0.072685 0.011876
v -0.023690 0.093488 0.018543
v -0.028987 0.087192 -0.008294
v -0.017030 0.076790 0.005291
v -0.022799 0.097593 0.008712
v -0.007222 0.091301 -0.009244
v -0.011281 0.080900 0.008392
v -0.017425 0.101703 0.005703
v 0.006785 0.096817 0.007056
v -0.010468 0.086416 0.012518
v -0.011273 0.107219 0.005859
v 0.002619 0.100148 0.025561
v -0.013853 0.089747 0.018064
v -0.009991 0.110550 0.012580
v -0.008132 0.114297 0.024325
v -0.024603 0.101799 0.027188
v -0.020742 0.111414 0.007943
v -0.011206 0.120905 0.026525
v -0.031755 0.119587 0.029945
v -0.023511 0.119762 0.009703
v -0.020971 0.900550 0.023204
v -0.032862 0.899787 0.025184
v -0.028092 0.899888 0.013470
v -0.007650 -0.022538 0.010440
v -0.025434 -0.022538 0.021368
v -0.025434 -0.022538 -0.000489
v -0.019213 0.909043 0.023994
v -0.035453 0.908002 0.026697
v -0.028938 0.908140 0.010699
v -0.020377 0.926361 0.023669
v -0.036617 0.925320 0.026372
v -0.030102 0.925457 0.010374
v -0.024429 0.936295 0.022104
v -0.034351 0.935659 0.023756
v -0.030371 0.935743 0.013982
v -0.007650 0.000000 0.010440
v 0.006855 0.019429 0.000000
v -0.010929 0.019429 -0.010929
v -0.025434 0.000000 -0.000489
v -0.025434 0.000000 -0.000489
v -0.010929 0.019429 0.010929
v -0.025434 -0.000000 0.021368
v -0.025434 -0.000000 0.021368
v 0.006855 0.032351 0.010911
v -0.010929 0.042753 0.007558
v -0.010929 0.021950 0.014265
v -0.007492 0.038270 0.029327
v -0.017720 0.048672 0.014397
v -0.022455 0.027869 0.019147
v -0.023319 0.042183 0.035139
v -0.021689 0.052585 0.017115
v -0.028365 0.031782 0.017759
v -0.043109 0.045280 0.025212
v -0.027322 0.055682 0.016364
v -0.031628 0.034879 0.011222
v -0.045397 0.050483 0.008970
v -0.027513 0.060885 0.011740
v -0.027732 0.040082 0.005037
v -0.032549 0.053661 -0.011510
v -0.026486 0.064062 0.005542
v -0.020693 0.043259 0.002163
v -0.008152 0.059428 -0.015559
v -0.015854 0.069830 0.000817
v -0.009361 0.049027 0.002498
v 0.011965 0.065537 0.010849
v -0.006130 0.075939 0.011112
v -0.004792 0.055136 0.017684
v -0.010796 0.074539 0.037126
v -0.010995 0.084940 0.019030
v -0.017571 0.064137 0.020345
v -0.034982 0.078800 0.031526
v -0.019416 0.089201 0.022295
v -0.023846 0.068398 0.017260
v -0.041002 0.083086 0.013269
v -0.023690 0.093488 0.018543
v -0.022958 0.072685 0.011876
v -0.028987 0.087192 -0.008294
v -0.022799 0.097593 0.008712
v -0.017030 0.076790 0.005291
v -0.007222 0.091301 -0.009244
v -0.017425 0.101703 0.005703
v -0.011281 0.080900 0.008392
v 0.006785 0.096817 0.007056
v -0.011273 0.107219 0.005859
v -0.010468 0.086416 0.012518
v 0.002619 0.100148 0.025561
v -0.009991 0.110550 0.012580
v -0.013853 0.089747 0.018064
v -0.008132 0.114297 0.024325
v -0.020742 0.111414 0.007943
v -0.024603 0.101799 0.027188
v -0.011206 0.120905 0.026525
v -0.023511 0.119762 0.009703
v -0.031755 0.119587 0.029945
v -0.020971 0.900550 0.023204
v -0.028092 0.899888 0.013470
v -0.032862 0.899787 0.025184
v -0.019213 0.909043 0.023994
v -0.028938 0.908140 0.010699
v -0.035453 0.908002 0.026697
v -0.020377 0.926361 0.023669
v -0.030102 0.925457 0.010374
v -0.036617 0.925320 0.026372
vn 0.4861 -0.3712 -0.7911
vn 0.8307 -0.5566 0.0000
vn -0.4064 -0.5538 -0.7267
vn 0.4973 -0.3128 -0.8092
vn 0.5194 -0.1974 -0.8314
vn 0.5647 0.7975 -0.2122
vn 0.5293 0.7169 -0.4537
vn 0.5304 0.0909 -0.8428
vn -0.9634 0.2680 0.0000
vn -0.9604 0.2785 0.0000
vn -0.9348 0.3551 0.0000
vn -0.9363 0.3510 0.0000
vn 0.5231 0.0398 0.8513
vn 0.5060 -0.3579 0.7847
vn 0.5185 -0.2632 0.8135
vn 0.5234 0.0231 0.8517
vn 0.5185 0.8171 0.2518
vn 0.5272 0.8204 0.2213
vn -0.9346 -0.0660 -0.3496
vn -0.8134 -0.1079 -0.5716
vn 0.3770 -0.6428 0.6668
vn 0.3609 -0.6507 0.6681
vn 0.2091 0.8347 0.5095
vn 0.2372 0.8340 0.4981
vn -0.4444 -0.1215 -0.8875
vn -0.3661 -0.1073 -0.9243
vn 0.1076 -0.7246 0.6807
vn 0.0401 -0.7339 0.6780
vn -0.2491 0.8155 0.5224
vn -0.2323 0.8160 0.5292
vn 0.1486 -0.0805 -0.9856
vn 0.3117 -0.0801 -0.9468
vn -0.2945 -0.7711 0.5644
vn -0.3590 -0.7752 0.5197
vn -0.5404 0.8323 0.1235
vn -0.5135 0.8326 0.2076
vn 0.8685 -0.1232 -0.4802
vn 0.9648 -0.1454 -0.2188
vn -0.6315 -0.7732 0.0580
vn -0.6525 -0.7570 -0.0352
vn -0.5082 0.8065 -0.3021
vn -0.4892 0.8047 -0.3362
vn 0.9174 -0.1192 0.3796
vn 0.8694 -0.0952 0.4849
vn -0.5625 -0.7083 -0.4264
vn -0.4945 -0.7346 -0.4645
vn -0.0258 0.8391 -0.5433
vn -0.0594 0.8379 -0.5425
vn 0.5346 -0.0235 0.8448
vn 0.4641 -0.0151 0.8856
vn -0.0925 -0.8119 -0.5763
vn -0.0591 -0.8128 -0.5795
vn 0.5485 0.8208 -0.1593
vn 0.4972 0.8296 -0.2538
vn -0.3342 -0.0220 0.9422
vn -0.4802 -0.0325 0.8765
vn 0.4110 -0.8103 -0.4178
vn 0.4609 -0.8061 -0.3712
vn 0.4587 0.7864 0.4137
vn 0.4092 0.7880 0.4601
vn -0.9958 -0.0913 0.0070
vn -0.9232 -0.0985 -0.3715
vn 0.5507 -0.8009 0.2352
vn 0.4969 -0.7876 0.3643
vn -0.1034 0.7862 0.6092
vn -0.1781 0.7884 0.5887
vn -0.3440 -0.0172 -0.9388
vn -0.2056 0.0197 -0.9784
vn -0.0698 -0.7698 0.6344
vn -0.0654 -0.7688 0.6361
vn -0.5409 0.8018 0.2537
vn -0.5562 0.8030 0.2141
vn 0.4520 0.0643 -0.8897
vn 0.6953 0.0462 -0.7172
vn -0.5293 -0.8316 0.1681
vn -0.5192 -0.8328 0.1921
vn -0.5111 0.8097 -0.2881
vn -0.4838 0.8103 -0.3306
vn 0.9992 0.0276 -0.0288
vn 0.9933 0.0339 0.1103
vn -0.5113 -0.8028 -0.3066
vn -0.4986 -0.8045 -0.3226
vn -0.0987 0.7693 -0.6311
vn -0.0608 0.7638 -0.6425
vn 0.6404 0.0236 0.7676
vn 0.4649 0.0116 0.8852
vn -0.0609 -0.8313 -0.5525
vn -0.0375 -0.8299 -0.5566
vn 0.3965 0.7901 -0.4675
vn 0.4395 0.7988 -0.4107
vn -0.2020 0.0140 0.9793
vn -0.4005 0.0441 0.9152
vn 0.4862 -0.8008 -0.3498
vn 0.4918 -0.8006 -0.3423
vn 0.6022 0.7594 -0.2461
vn 0.6020 0.7713 -0.2065
vn -0.8711 0.0635 0.4870
vn -0.9816 0.0457 0.1853
vn 0.5760 -0.8004 0.1657
vn 0.5805 -0.7993 0.1551
vn 0.6827 0.5164 -0.5169
vn 0.6596 0.5992 -0.4537
vn -0.8643 -0.2089 -0.4575
vn -0.7853 -0.2892 -0.5474
vn 0.2749 -0.5763 0.7696
vn 0.3020 -0.6106 0.7320
vn 0.7693 0.2273 -0.5970
vn 0.7723 0.2158 -0.5975
vn -0.7134 -0.4055 -0.5715
vn -0.7399 -0.3923 -0.5465
vn 0.1293 -0.1809 0.9749
vn 0.1219 -0.1874 0.9747
vn 0.8076 -0.0563 -0.5870
vn 0.8076 -0.0579 -0.5868
vn -0.9214 -0.1311 -0.3657
vn -0.9188 -0.1555 -0.3628
vn 0.1875 -0.0582 0.9805
vn 0.1834 -0.0466 0.9819
vn 0.8077 -0.0278 -0.5889
vn 0.8077 -0.0283 -0.5889
vn -0.9192 -0.1188 -0.3754
vn -0.9192 -0.1193 -0.3753
vn 0.1679 -0.0660 0.9836
vn 0.1678 -0.0639 0.9837
vn -0.4064 -0.5538 0.7267
vn 0.7967 0.1249 -0.5913
vn 0.7966 0.1255 -0.5913
vn -0.9171 -0.1365 -0.3746
vn 0.1666 -0.0418 0.9851
vn 0.1666 -0.0414 0.9851
vn -0.1372 0.6630 -0.7359
vn 0.6299 0.7308 0.2628
vn -0.9261 0.0092 -0.3771
vn 0.1562 0.1120 0.9814
vn 0.1562 0.1113 0.9814
vn -0.6162 0.6529 0.4404
usemtl None
s 1
f 3//1 62//2 64//3 2//4
f 7//5 10//6 8//7 5//8
f 2//4 7//5 5//8 3//1
f 1//9 6//10 76//11 78//12
f 74//13 75//14 79//15 81//16
f 10//6 13//17 11//18 8//7
f 6//10 9//19 83//20 76//11
f 75//14 82//21 84//22 79//15
f 13//17 16//23 14//24 11//18
f 9//19 12//25 86//26 83//20
f 82//21 85//27 87//28 84//22
f 16//23 19//29 17//30 14//24
f 12//25 15//31 89//32 86//26
f 85//27 88//33 90//34 87//28
f 19//29 22//35 20//36 17//30
f 15//31 18//37 92//38 89//32
f 88//33 91//39 93//40 90//34
f 22//35 25//41 23//42 20//36
f 18//37 21//43 95//44 92//38
f 91//39 94//45 96//46 93//40
f 25//41 28//47 26//48 23//42
f 21//43 24//49 98//50 95//44
f 94//45 97//51 99//52 96//46
f 28//47 31//53 29//54 26//48
f 24//49 27//55 101//56 98//50
f 97//51 100//57 102//58 99//52
f 31//53 34//59 32//60 29//54
f 27//55 30//61 104//62 101//56
f 100//57 103//63 105//64 102//58
f 34//59 37//65 35//66 32//60
f 30//61 33//67 107//68 104//62
f 103//63 106//69 108//70 105//64
f 37//65 40//71 38//72 35//66
f 33//67 36//73 110//74 107//68
f 106//69 109//75 111//76 108//70
f 40//71 43//77 41//78 38//72
f 36//73 39//79 113//80 110//74
f 109//75 112//81 114//82 111//76
f 43//77 46//83 44//84 41//78
f 39//79 42//85 116//86 113//80
f 112//81 115//87 117//88 114//82
f 46//83 49//89 47//90 44//84
f 42//85 45//91 119//92 116//86
f 115//87 118//93 120//94 117//88
f 49//89 52//95 50//96 47//90
f 45//91 48//97 122//98 119//92
f 118//93 121//99 123//100 120//94
f 52//95 55//101 53//102 50//96
f 48//97 51//103 125//104 122//98
f 121//99 124//105 126//106 123//100
f 55//101 58//107 56//108 53//102
f 51//103 54//109 128//110 125//104
f 124//105 127//111 129//112 126//106
f 58//107 61//113 59//114 56//108
f 54//109 57//115 131//116 128//110
f 127//111 130//117 132//118 129//112
f 61//113 67//119 65//120 59//114
f 57//115 60//121 134//122 131//116
f 130//117 133//123 135//124 132//118
f 62//2 63//125 64//3
f 78//12 64//3 63//125 1//9
f 81//16 63//125 62//2 74//13
f 67//119 70//126 68//127 65//120
f 60//121 66//128 137//128 134//122
f 133//123 136//129 138//130 135//124
f 70//126 73//131 71//132 68//127
f 66//128 69//133 140//133 137//128
f 136//129 139//134 141//135 138//130
f 71//132 73//131 72//136
f 69//133 72//136 73//131 140//133
f 139//134 71//132 72//136 141//135
l 4 77
l 80 4
