# Blender v2.79 (sub 0) OBJ File: 'badge_square.blend'
# www.blender.org
mtllib badge_square.mtl
o Base_Plane
v -0.095018 0.002951 0.110743
v -0.077228 0.002951 0.110743
v -0.095018 0.002951 -0.001313
v -0.077228 0.002951 -0.001313
v -0.086887 0.002951 0.133231
v -0.074538 0.002951 0.120425
v -0.069244 0.002951 0.142375
v -0.068221 0.002951 0.124614
v 0.083313 0.002951 0.127854
v 0.070688 0.002951 0.115320
v 0.090707 0.002951 0.116700
v 0.073185 0.002951 0.113619
v 0.090840 0.002951 0.090891
v 0.073052 0.002951 0.090694
v 0.091193 0.001952 -0.001386
v 0.073404 0.001952 -0.001584
v -0.095018 0.015727 -0.001313
v -0.095018 0.015727 0.110743
v -0.077228 0.023349 0.110743
v -0.077228 0.023349 -0.001313
v -0.086887 0.015727 0.133231
v -0.074538 0.023349 0.120425
v -0.069244 0.015727 0.142375
v -0.068221 0.023349 0.124614
v 0.083313 0.015727 0.127854
v 0.070688 0.023349 0.115320
v 0.090707 0.015727 0.116700
v 0.073185 0.023349 0.113619
v 0.090840 0.015727 0.090891
v 0.073052 0.023349 0.090694
v 0.091193 0.014727 -0.001386
v 0.073404 0.022349 -0.001584
v -0.095018 0.006071 0.110743
v -0.095018 0.006071 -0.001313
v 0.070688 0.007933 0.115320
v 0.073185 0.007933 0.113619
v -0.069244 0.006071 0.142375
v -0.086887 0.006071 0.133231
v -0.074538 0.007933 0.120425
v -0.068221 0.007933 0.124614
v -0.077228 0.007933 -0.001313
v -0.077228 0.007933 0.110743
v 0.090840 0.006071 0.090891
v 0.090707 0.006071 0.116700
v 0.073052 0.007933 0.090694
v 0.083313 0.006071 0.127854
v 0.073404 0.006933 -0.001584
v 0.091193 0.005072 -0.001386
v -0.095018 0.002951 -0.112096
v -0.077228 0.002951 -0.112096
v -0.095018 0.002951 -0.000039
v -0.077228 0.002951 -0.000039
v -0.086887 0.002951 -0.134583
v -0.074538 0.002951 -0.121777
v -0.069244 0.002951 -0.143728
v -0.068221 0.002951 -0.125967
v 0.083313 0.002951 -0.129207
v 0.070688 0.002951 -0.116673
v 0.090707 0.002951 -0.118052
v 0.073185 0.002951 -0.114971
v 0.090840 0.002951 -0.092244
v 0.073052 0.002951 -0.092046
v 0.091193 0.001952 0.000034
v 0.073404 0.001952 0.000231
v -0.095018 0.015727 -0.000039
v -0.095018 0.015727 -0.112096
v -0.077228 0.023349 -0.112096
v -0.077228 0.023349 -0.000039
v -0.086887 0.015727 -0.134583
v -0.074538 0.023349 -0.121777
v -0.069244 0.015727 -0.143728
v -0.068221 0.023349 -0.125967
v 0.083313 0.015727 -0.129207
v 0.070688 0.023349 -0.116673
v 0.090707 0.015727 -0.118052
v 0.073185 0.023349 -0.114971
v 0.090840 0.015727 -0.092244
v 0.073052 0.023349 -0.092046
v 0.091193 0.014727 0.000034
v 0.073404 0.022349 0.000231
v -0.095018 0.006071 -0.112096
v -0.095018 0.006071 -0.000039
v 0.070688 0.007933 -0.116673
v 0.073185 0.007933 -0.114971
v -0.069244 0.006071 -0.143728
v -0.086887 0.006071 -0.134583
v -0.074538 0.007933 -0.121777
v -0.068221 0.007933 -0.125967
v -0.077228 0.007933 -0.000039
v -0.077228 0.007933 -0.112096
v 0.090840 0.006071 -0.092244
v 0.090707 0.006071 -0.118052
v 0.073052 0.007933 -0.092046
v 0.083313 0.006071 -0.129207
v 0.073404 0.006933 0.000231
v 0.091193 0.005072 0.000034
vn 0.0000 -1.0000 0.0000
vn -0.0001 -0.9999 0.0108
vn -0.3938 0.9192 0.0000
vn -0.4010 0.9061 0.1349
vn -0.2029 0.9088 0.3645
vn 0.0358 0.8982 0.4382
vn 0.3290 0.9098 0.2531
vn 0.3964 0.9181 0.0000
vn 0.3939 0.9191 -0.0085
vn -1.0000 0.0000 0.0000
vn -0.5631 0.0000 -0.8264
vn -0.4602 0.0000 0.8878
vn 0.5528 0.0000 -0.8333
vn 1.0000 0.0000 0.0000
vn 1.0000 0.0000 0.0052
vn 0.0000 0.0000 -1.0000
vn -1.0000 0.0000 0.0058
vn 0.0948 0.0000 0.9955
vn 0.0111 0.0000 -0.9999
vn -0.0668 0.0000 -0.9978
vn -0.9404 0.0000 0.3401
vn 1.0000 0.0000 0.0038
vn 0.9635 0.0000 -0.2678
vn -1.0000 0.0000 -0.0038
vn 0.8335 0.0000 0.5525
vn 0.0025 1.0000 -0.0041
vn -0.0025 -1.0000 0.0041
vn -0.0001 -0.9999 -0.0108
vn -0.4010 0.9061 -0.1349
vn -0.2029 0.9088 -0.3645
vn 0.0358 0.8982 -0.4382
vn 0.3290 0.9098 -0.2531
vn 0.3939 0.9191 0.0085
vn -0.5631 0.0000 0.8264
vn -0.4602 0.0000 -0.8878
vn 0.5528 0.0000 0.8333
vn 1.0000 0.0000 -0.0052
vn 0.0000 0.0000 1.0000
vn -1.0000 0.0000 -0.0058
vn 0.0948 0.0000 -0.9955
vn 0.0111 0.0000 0.9999
vn -0.0668 0.0000 0.9978
vn -0.9404 0.0000 -0.3401
vn 1.0000 0.0000 -0.0038
vn 0.9635 0.0000 0.2678
vn -1.0000 0.0000 0.0038
vn 0.8335 0.0000 -0.5525
vn 0.0025 1.0000 0.0041
vn -0.0025 -1.0000 -0.0041
usemtl None
s off
f 1//1 3//1 4//1 2//1
f 2//1 6//1 5//1 1//1
f 6//1 8//1 7//1 5//1
f 8//1 10//1 9//1 7//1
f 10//1 12//1 11//1 9//1
f 12//1 14//1 13//1 11//1
f 14//2 16//2 15//2 13//2
f 18//3 19//3 20//3 17//3
f 19//4 18//4 21//4 22//4
f 22//5 21//5 23//5 24//5
f 24//6 23//6 25//6 26//6
f 26//7 25//7 27//7 28//7
f 28//8 27//8 29//8 30//8
f 30//9 29//9 31//9 32//9
f 34//10 33//10 18//10 17//10
f 36//11 35//11 26//11 28//11
f 38//12 37//12 23//12 21//12
f 40//13 39//13 22//13 24//13
f 42//14 41//14 20//14 19//14
f 44//15 43//15 29//15 27//15
f 41//16 34//16 17//16 20//16
f 45//17 36//17 28//17 30//17
f 37//18 46//18 25//18 23//18
f 48//19 47//19 32//19 31//19
f 35//20 40//20 24//20 26//20
f 33//21 38//21 21//21 18//21
f 43//22 48//22 31//22 29//22
f 39//23 42//23 19//23 22//23
f 47//24 45//24 30//24 32//24
f 46//25 44//25 27//25 25//25
f 9//25 11//25 44//25 46//25
f 16//24 14//24 45//24 47//24
f 6//23 2//23 42//23 39//23
f 13//22 15//22 48//22 43//22
f 1//21 5//21 38//21 33//21
f 10//20 8//20 40//20 35//20
f 15//19 16//19 47//19 48//19
f 7//18 9//18 46//18 37//18
f 14//17 12//17 36//17 45//17
f 4//16 3//16 34//16 41//16
f 11//15 13//15 43//15 44//15
f 2//14 4//14 41//14 42//14
f 8//13 6//13 39//13 40//13
f 5//12 7//12 37//12 38//12
f 12//11 10//11 35//11 36//11
f 3//10 1//10 33//10 34//10
f 45//26 47//26 41//26 42//26 39//26 40//26 35//26 36//26
f 2//27 4//27 16//27 14//27 12//27 10//27 8//27 6//27
f 49//1 50//1 52//1 51//1
f 50//1 49//1 53//1 54//1
f 54//1 53//1 55//1 56//1
f 56//1 55//1 57//1 58//1
f 58//1 57//1 59//1 60//1
f 60//1 59//1 61//1 62//1
f 62//28 61//28 63//28 64//28
f 66//3 65//3 68//3 67//3
f 67//29 70//29 69//29 66//29
f 70//30 72//30 71//30 69//30
f 72//31 74//31 73//31 71//31
f 74//32 76//32 75//32 73//32
f 76//8 78//8 77//8 75//8
f 78//33 80//33 79//33 77//33
f 82//10 65//10 66//10 81//10
f 84//34 76//34 74//34 83//34
f 86//35 69//35 71//35 85//35
f 88//36 72//36 70//36 87//36
f 90//14 67//14 68//14 89//14
f 92//37 75//37 77//37 91//37
f 89//38 68//38 65//38 82//38
f 93//39 78//39 76//39 84//39
f 85//40 71//40 73//40 94//40
f 96//41 79//41 80//41 95//41
f 83//42 74//42 72//42 88//42
f 81//43 66//43 69//43 86//43
f 91//44 77//44 79//44 96//44
f 87//45 70//45 67//45 90//45
f 95//46 80//46 78//46 93//46
f 94//47 73//47 75//47 92//47
f 57//47 94//47 92//47 59//47
f 64//46 95//46 93//46 62//46
f 54//45 87//45 90//45 50//45
f 61//44 91//44 96//44 63//44
f 49//43 81//43 86//43 53//43
f 58//42 83//42 88//42 56//42
f 63//41 96//41 95//41 64//41
f 55//40 85//40 94//40 57//40
f 62//39 93//39 84//39 60//39
f 52//38 89//38 82//38 51//38
f 59//37 92//37 91//37 61//37
f 50//14 90//14 89//14 52//14
f 56//36 88//36 87//36 54//36
f 53//35 86//35 85//35 55//35
f 60//34 84//34 83//34 58//34
f 51//10 82//10 81//10 49//10
f 93//48 84//48 83//48 88//48 87//48 90//48 89//48 95//48
f 50//49 54//49 56//49 58//49 60//49 62//49 64//49 52//49
o Letters_Plane.003
v 0.072528 0.005193 -0.068046
v -0.077239 0.005193 -0.073515
v 0.071773 0.005193 -0.047368
v -0.077994 0.005193 -0.052837
v -0.060053 0.005193 -0.072887
v -0.060808 0.005193 -0.052210
v -0.009643 0.005193 -0.050341
v -0.008888 0.005193 -0.071019
v 0.008929 0.005193 -0.049663
v 0.009684 0.005193 -0.070341
v 0.054432 0.005193 -0.048001
v 0.055187 0.005193 -0.068679
v -0.009569 0.005193 -0.093217
v 0.010493 0.005193 -0.092484
v -0.072041 0.005193 -0.101370
v -0.056220 0.005193 -0.094434
v -0.056411 0.005193 -0.120663
v -0.049808 0.005193 -0.104251
v 0.073182 0.005193 -0.085946
v 0.055840 0.005193 -0.086580
v 0.066667 0.005193 -0.109354
v 0.050391 0.005193 -0.103083
v 0.048413 0.005193 -0.124059
v 0.043444 0.005193 -0.106843
v 0.026186 0.005193 -0.128653
v 0.025565 0.005193 -0.110709
v 0.006919 0.005193 -0.118433
v 0.020235 0.005193 -0.106954
v -0.037441 0.005193 -0.127067
v -0.037972 0.005193 -0.109281
v -0.025270 0.005193 -0.126623
v -0.025801 0.005193 -0.108837
v -0.008518 0.005193 -0.117940
v -0.018321 0.005193 -0.103553
v 0.000849 0.005193 -0.110507
v -0.075055 0.005193 0.105169
v 0.072414 0.005193 0.092557
v -0.072984 0.005193 0.131894
v 0.074486 0.005193 0.119281
v -0.056952 0.005193 0.103621
v -0.054881 0.005193 0.130345
v 0.053506 0.005193 0.094174
v 0.055578 0.005193 0.120899
v 0.060373 0.007202 0.058818
v 0.046293 0.007202 0.073695
v 0.025826 0.007202 0.040744
v 0.025265 0.007202 0.065130
v -0.070175 0.005193 0.075542
v -0.055063 0.005193 0.088017
v -0.051235 0.005193 0.047328
v -0.044469 0.005193 0.070848
v -0.035335 0.005193 0.012303
v 0.038066 0.005193 0.008374
v -0.034203 0.005193 0.036074
v 0.039197 0.005193 0.032145
v -0.045338 0.005193 0.010223
v -0.055599 0.005193 0.030763
v -0.052477 0.005193 0.001581
v -0.071321 0.005193 0.011063
v -0.057867 0.005193 -0.014495
v -0.078470 0.005193 -0.015739
v 0.048080 0.005193 0.007163
v 0.057041 0.005193 0.028684
v 0.051486 0.005193 0.002789
v 0.070793 0.005193 0.011345
v 0.055978 0.005193 -0.009157
v 0.076568 0.005193 -0.010301
v 0.052527 0.005193 -0.024617
v 0.073150 0.005193 -0.024311
v -0.056092 0.005193 -0.046286
v -0.077050 0.005193 -0.047866
v 0.043829 0.005193 -0.043175
v 0.064450 0.005193 -0.041267
v 0.072530 0.016753 -0.068023
v -0.077238 0.016753 -0.073493
v 0.071775 0.016753 -0.047346
v -0.077993 0.016753 -0.052815
v -0.060052 0.016753 -0.072865
v -0.060807 0.016753 -0.052188
v -0.009642 0.016753 -0.050319
v -0.008887 0.016753 -0.070997
v 0.008930 0.016753 -0.049641
v 0.009685 0.016753 -0.070318
v 0.054433 0.016753 -0.047979
v 0.055188 0.016753 -0.068657
v -0.009568 0.016753 -0.093195
v 0.010494 0.016753 -0.092462
v -0.072040 0.016753 -0.101348
v -0.056219 0.016753 -0.094411
v -0.056410 0.016753 -0.120641
v -0.049807 0.016753 -0.104229
v 0.073183 0.016753 -0.085924
v 0.055842 0.016753 -0.086558
v 0.066669 0.016753 -0.109332
v 0.050393 0.016753 -0.103061
v 0.048415 0.016753 -0.124036
v 0.043445 0.016753 -0.106821
v 0.026187 0.016753 -0.128631
v 0.025567 0.016753 -0.110687
v 0.006920 0.016753 -0.118411
v 0.020236 0.016753 -0.106932
v -0.037440 0.016753 -0.127045
v -0.037970 0.016753 -0.109259
v -0.025269 0.016753 -0.126600
v -0.025799 0.016753 -0.108814
v -0.008517 0.016753 -0.117917
v -0.018320 0.016753 -0.103531
v 0.000850 0.016753 -0.110485
v -0.075054 0.016753 0.105191
v 0.072415 0.016753 0.092579
v -0.072983 0.016753 0.131916
v 0.074487 0.016753 0.119304
v -0.056951 0.016753 0.103643
v -0.054880 0.016753 0.130368
v 0.053507 0.016753 0.094196
v 0.055579 0.016753 0.120921
v 0.060375 0.018761 0.058840
v 0.046294 0.018761 0.073717
v 0.025827 0.018761 0.040766
v 0.025266 0.018761 0.065152
v -0.070174 0.016753 0.075564
v -0.055062 0.016753 0.088039
v -0.051233 0.016753 0.047350
v -0.044468 0.016753 0.070871
v -0.035334 0.016753 0.012325
v 0.038067 0.016753 0.008396
v -0.034202 0.016753 0.036096
v 0.039198 0.016753 0.032167
v -0.045336 0.016753 0.010245
v -0.055597 0.016753 0.030785
v -0.052475 0.016753 0.001603
v -0.071320 0.016753 0.011085
v -0.057865 0.016753 -0.014472
v -0.078469 0.016753 -0.015717
v 0.048081 0.016753 0.007185
v 0.057042 0.016753 0.028706
v 0.051487 0.016753 0.002811
v 0.070794 0.016753 0.011367
v 0.055979 0.016753 -0.009135
v 0.076569 0.016753 -0.010279
v 0.052528 0.016753 -0.024595
v 0.073151 0.016753 -0.024289
v -0.056091 0.016753 -0.046264
v -0.077049 0.016753 -0.047844
v 0.043830 0.016753 -0.043153
v 0.064451 0.016753 -0.041245
vn 0.0000 -1.0000 0.0000
vn -0.0314 -0.9975 -0.0628
vn 0.0271 -0.9996 -0.0035
vn 0.0000 1.0000 0.0000
vn 0.0314 0.9975 0.0628
vn -0.0271 0.9996 0.0035
vn 0.9984 -0.0002 0.0557
vn -0.0534 0.0019 -0.9986
vn 0.6216 0.0014 -0.7833
vn -0.9993 0.0002 -0.0365
vn 0.0921 0.0019 -0.9957
vn -0.9970 -0.0000 0.0773
vn 0.9634 0.0004 -0.2681
vn -0.0365 -0.0019 0.9993
vn -0.9055 -0.0007 0.4244
vn 0.0534 -0.0019 0.9986
vn -0.9496 -0.0005 0.3135
vn 0.0365 0.0019 -0.9993
vn 0.8897 0.0008 -0.4565
vn 0.9970 0.0000 -0.0773
vn -0.2409 -0.0018 0.9705
vn 0.0852 -0.0019 0.9964
vn 0.6273 0.0014 -0.7788
vn 0.2036 0.0019 -0.9791
vn -0.4760 -0.0016 0.8794
vn -0.7816 -0.0011 0.6238
vn 0.2024 0.0019 -0.9793
vn 0.7710 0.0011 -0.6369
vn -0.0852 0.0019 -0.9964
vn -0.2113 -0.0019 0.9774
vn -0.9662 -0.0004 0.2577
vn -0.4686 0.0017 -0.8834
vn 0.9481 0.0005 -0.3179
vn 0.5759 -0.0016 0.8175
vn -0.9432 -0.0005 0.3322
vn -0.1200 0.0019 -0.9928
vn 0.9418 0.0005 -0.3361
vn 0.3911 -0.0018 0.9203
vn 0.1904 -0.0019 0.9817
vn -0.3198 0.0019 -0.9475
vn -0.3772 -0.0017 0.9261
vn 0.9993 -0.0002 0.0365
vn -0.7890 0.0013 -0.6144
vn 0.4636 0.0016 -0.8861
vn -0.9995 0.0001 0.0307
vn 0.7835 -0.0013 0.6214
vn -0.9867 0.0004 -0.1625
vn 0.9845 -0.0004 0.1751
vn -0.9360 0.0008 -0.3520
vn 0.9928 -0.0003 0.1202
vn -0.5770 -0.0015 0.8168
vn -0.9830 0.0005 -0.1834
vn 0.9662 -0.0006 0.2578
vn 0.4602 0.0017 -0.8878
vn -0.8303 0.0012 -0.5574
vn -0.7939 0.0013 -0.6080
vn 0.8372 -0.0011 0.5469
vn -0.9760 -0.0003 0.2178
vn 0.8510 -0.0011 0.5251
vn 0.8295 -0.0012 0.5585
vn -0.7770 0.0013 -0.6295
vn 0.9715 0.0003 -0.2370
vn 0.0818 -0.0019 0.9966
vn 0.0752 0.0019 -0.9972
vn -0.9990 0.0002 -0.0442
vn -0.7632 -0.0012 0.6462
usemtl None
s off
f 101//50 102//50 100//50 98//50
f 104//50 103//50 102//50 101//50
f 106//50 105//50 103//50 104//50
f 108//50 107//50 105//50 106//50
f 97//50 99//50 107//50 108//50
f 104//50 109//50 110//50 106//50
f 98//50 111//50 112//50 101//50
f 111//50 113//50 114//50 112//50
f 108//50 116//50 115//50 97//50
f 116//50 118//50 117//50 115//50
f 118//50 120//50 119//50 117//50
f 120//50 122//50 121//50 119//50
f 122//50 124//50 123//50 121//50
f 113//50 125//50 126//50 114//50
f 125//50 127//50 128//50 126//50
f 127//50 129//50 130//50 128//50
f 131//50 123//50 124//50 110//50
f 109//50 131//50 110//50
f 129//50 131//50 109//50 130//50
f 138//50 133//50 135//50 139//50
f 132//50 136//50 137//50 134//50
f 136//50 138//50 139//50 137//50
f 133//51 138//51 141//51 140//51
f 140//50 141//50 143//50 142//50
f 136//50 132//50 144//50 145//50
f 145//50 144//50 146//50 147//50
f 143//52 147//52 146//52 142//52
f 148//50 149//50 151//50 150//50
f 148//50 150//50 153//50 152//50
f 152//50 153//50 155//50 154//50
f 154//50 155//50 157//50 156//50
f 151//50 149//50 158//50 159//50
f 159//50 158//50 160//50 161//50
f 161//50 160//50 162//50 163//50
f 163//50 162//50 164//50 165//50
f 156//50 157//50 167//50 166//50
f 165//50 164//50 168//50 169//50
f 174//53 171//53 173//53 175//53
f 177//53 174//53 175//53 176//53
f 179//53 177//53 176//53 178//53
f 181//53 179//53 178//53 180//53
f 170//53 181//53 180//53 172//53
f 177//53 179//53 183//53 182//53
f 171//53 174//53 185//53 184//53
f 184//53 185//53 187//53 186//53
f 181//53 170//53 188//53 189//53
f 189//53 188//53 190//53 191//53
f 191//53 190//53 192//53 193//53
f 193//53 192//53 194//53 195//53
f 195//53 194//53 196//53 197//53
f 186//53 187//53 199//53 198//53
f 198//53 199//53 201//53 200//53
f 200//53 201//53 203//53 202//53
f 204//53 183//53 197//53 196//53
f 182//53 183//53 204//53
f 202//53 203//53 182//53 204//53
f 211//53 212//53 208//53 206//53
f 205//53 207//53 210//53 209//53
f 209//53 210//53 212//53 211//53
f 206//54 213//54 214//54 211//54
f 213//53 215//53 216//53 214//53
f 209//53 218//53 217//53 205//53
f 218//53 220//53 219//53 217//53
f 216//55 215//55 219//55 220//55
f 221//53 223//53 224//53 222//53
f 221//53 225//53 226//53 223//53
f 225//53 227//53 228//53 226//53
f 227//53 229//53 230//53 228//53
f 224//53 232//53 231//53 222//53
f 232//53 234//53 233//53 231//53
f 234//53 236//53 235//53 233//53
f 236//53 238//53 237//53 235//53
f 229//53 239//53 240//53 230//53
f 238//53 242//53 241//53 237//53
f 156//56 166//56 239//56 229//56
f 149//57 148//57 221//57 222//57
f 131//58 129//58 202//58 204//58
f 98//59 100//59 173//59 171//59
f 169//60 168//60 241//60 242//60
f 132//61 134//61 207//61 205//61
f 115//62 117//62 190//62 188//62
f 107//63 99//63 172//63 180//63
f 168//64 164//64 237//64 241//64
f 150//65 151//65 224//65 223//65
f 118//66 116//66 189//66 191//66
f 104//67 101//67 174//67 177//67
f 165//68 169//68 242//68 238//68
f 135//69 133//69 206//69 208//69
f 100//63 102//63 175//63 173//63
f 153//70 150//70 223//70 226//70
f 134//71 137//71 210//71 207//71
f 117//72 119//72 192//72 190//72
f 148//73 152//73 225//73 221//73
f 120//74 118//74 191//74 193//74
f 102//63 103//63 176//63 175//63
f 137//71 139//71 212//71 210//71
f 155//75 153//75 226//75 228//75
f 119//76 121//76 194//76 192//76
f 152//77 154//77 227//77 225//77
f 138//78 136//78 209//78 211//78
f 122//79 120//79 193//79 195//79
f 103//63 105//63 178//63 176//63
f 139//71 135//71 208//71 212//71
f 108//67 106//67 179//67 181//67
f 157//80 155//80 228//80 230//80
f 121//81 123//81 196//81 194//81
f 154//82 156//82 229//82 227//82
f 124//83 122//83 195//83 197//83
f 105//63 107//63 180//63 178//63
f 141//84 138//84 211//84 214//84
f 158//85 149//85 222//85 231//85
f 133//86 140//86 213//86 206//86
f 114//87 126//87 199//87 187//87
f 151//88 159//88 232//88 224//88
f 125//89 113//89 186//89 198//89
f 143//90 141//90 214//90 216//90
f 106//91 110//91 183//91 179//91
f 160//92 158//92 231//92 233//92
f 140//93 142//93 215//93 213//93
f 126//63 128//63 201//63 199//63
f 109//94 104//94 177//94 182//94
f 159//95 161//95 234//95 232//95
f 127//67 125//67 198//67 200//67
f 144//96 132//96 205//96 217//96
f 101//97 112//97 185//97 174//97
f 162//98 160//98 233//98 235//98
f 136//99 145//99 218//99 209//99
f 128//100 130//100 203//100 201//100
f 111//101 98//101 171//101 184//101
f 161//102 163//102 236//102 234//102
f 129//103 127//103 200//103 202//103
f 146//104 144//104 217//104 219//104
f 123//105 131//105 204//105 196//105
f 112//106 114//106 187//106 185//106
f 164//107 162//107 235//107 237//107
f 145//108 147//108 220//108 218//108
f 110//109 124//109 197//109 183//109
f 113//110 111//110 184//110 186//110
f 163//111 165//111 238//111 236//111
f 147//112 143//112 216//112 220//112
f 166//113 167//113 240//113 239//113
f 142//78 146//78 219//78 215//78
f 97//91 115//91 188//91 170//91
f 99//91 97//91 170//91 172//91
f 167//114 157//114 230//114 240//114
f 130//115 109//115 182//115 203//115
f 116//59 108//59 181//59 189//59
