# Blender v2.79 (sub 0) OBJ File: 'badge_round.blend'
# www.blender.org
mtllib badge_round.mtl
o Letters_Plane.003
v -0.141259 0.022310 0.078169
v -0.068640 0.022310 0.059388
v -0.141259 0.022310 -0.076265
v -0.061434 0.022310 -0.049727
v -0.141259 0.022310 -0.027347
v -0.141259 0.022310 0.004014
v -0.141259 0.022310 0.035376
v -0.057381 0.022310 0.035376
v -0.046122 0.022310 0.004014
v -0.051977 0.022310 -0.027347
v -0.119004 0.022310 0.078169
v -0.092246 0.022310 0.073270
v -0.092246 0.022310 -0.070141
v -0.119004 0.022310 -0.076265
v -0.092246 0.022310 0.045175
v -0.119004 0.022310 0.053748
v -0.074682 0.022310 -0.000477
v -0.119004 0.022310 0.004014
v -0.092246 0.022310 -0.050620
v -0.119004 0.022310 -0.056744
v 0.067045 0.022310 -0.114373
v -0.037924 0.022310 -0.081709
v 0.067045 0.022310 0.108209
v -0.048339 0.022310 0.058246
v 0.067045 0.022310 0.029542
v 0.067045 0.022310 -0.016128
v 0.067045 0.022310 -0.050910
v -0.054197 0.022310 -0.050910
v -0.070471 0.022310 -0.010684
v -0.062009 0.022310 0.029542
v 0.043883 0.022310 -0.113148
v -0.003802 0.022310 -0.102373
v -0.003802 0.022310 0.090147
v 0.043883 0.022310 0.106168
v -0.009206 0.022310 -0.061845
v 0.043883 0.022310 -0.074476
v -0.040898 0.022310 -0.004924
v 0.043883 0.022310 -0.016128
v -0.010107 0.022310 0.055717
v 0.043883 0.022310 0.067247
v 0.067045 0.022310 -0.097748
v -0.046061 0.022310 -0.066310
v 0.043883 0.022310 -0.093812
v -0.006504 0.022310 -0.082109
v -0.055174 0.022310 0.043894
v 0.067045 0.022310 0.090923
v 0.043883 0.022310 0.086707
v -0.006955 0.022310 0.072932
v 0.067045 0.022310 0.001263
v 0.043883 0.022310 0.001403
v 0.090187 0.022310 -0.089526
v 0.109577 0.022310 -0.058337
v 0.093002 0.022310 -0.024030
v 0.099570 0.022310 0.006367
v 0.123338 0.022310 0.041524
v 0.111767 0.022310 0.072429
v 0.108639 0.022310 0.100554
v 0.108639 0.022310 -0.101614
v 0.132720 0.022310 -0.064471
v 0.121149 0.022310 -0.028463
v 0.106763 0.022310 -0.010317
v 0.133033 0.022310 0.007829
v 0.150234 0.022310 0.037316
v 0.150234 0.022310 0.037316
v -0.141259 0.031907 0.035376
v -0.141259 0.031907 0.078169
v -0.092246 0.031907 0.073270
v -0.068640 0.031907 0.059388
v -0.051977 0.031907 -0.027347
v -0.061434 0.031907 -0.049727
v -0.119004 0.031907 -0.076265
v -0.141259 0.031907 -0.076265
v -0.141259 0.031907 -0.027347
v -0.141259 0.031907 0.004014
v -0.057381 0.031907 0.035376
v -0.046122 0.031907 0.004014
v -0.119004 0.031907 0.053748
v -0.119004 0.031907 0.004014
v -0.119004 0.031907 -0.056744
v -0.119004 0.031907 0.078169
v -0.092246 0.031907 -0.070141
v -0.092246 0.031907 0.045175
v -0.074682 0.031907 -0.000477
v -0.092246 0.031907 -0.050620
v 0.067045 0.031907 -0.097748
v 0.067045 0.031907 -0.114373
v -0.003802 0.031907 -0.102373
v -0.037924 0.031907 -0.081709
v -0.055174 0.031907 0.043894
v -0.048339 0.031907 0.058246
v 0.043883 0.031907 0.106168
v 0.067045 0.031907 0.108209
v 0.067045 0.031907 0.090923
v 0.067045 0.031907 0.029542
v 0.067045 0.031907 0.001263
v 0.067045 0.031907 -0.016128
v 0.067045 0.031907 -0.050910
v -0.046061 0.031907 -0.066310
v -0.054197 0.031907 -0.050910
v -0.070471 0.031907 -0.010684
v -0.062009 0.031907 0.029542
v 0.043883 0.031907 -0.074476
v 0.043883 0.031907 -0.016128
v 0.043883 0.031907 0.067247
v 0.043883 0.031907 -0.113148
v -0.003802 0.031907 0.090147
v -0.009206 0.031907 -0.061845
v -0.040898 0.031907 -0.004924
v -0.010107 0.031907 0.055717
v 0.043883 0.031907 0.001403
v 0.043883 0.031907 -0.093812
v -0.006504 0.031907 -0.082109
v 0.043883 0.031907 0.086707
v -0.006955 0.031907 0.072932
v 0.090187 0.031907 -0.089526
v 0.109577 0.031907 -0.058337
v 0.093002 0.031907 -0.024030
v 0.099570 0.031907 0.006367
v 0.123338 0.031907 0.041524
v 0.111767 0.031907 0.072429
v 0.108639 0.031907 0.100554
v 0.108639 0.031907 -0.101614
v 0.132720 0.031907 -0.064471
v 0.121149 0.031907 -0.028463
v 0.106763 0.031907 -0.010317
v 0.133033 0.031907 0.007829
v 0.150234 0.031907 0.037316
vn 0.0000 -1.0000 0.0000
vn 0.0000 1.0000 0.0000
vn -0.2912 0.0000 -0.9567
vn -0.9786 0.0000 0.2059
vn 0.0000 0.0000 1.0000
vn 0.1801 0.0000 0.9836
vn -0.9028 0.0000 0.4300
vn 0.5523 0.0000 -0.8336
vn 0.2231 0.0000 -0.9748
vn -0.0528 0.0000 -0.9986
vn -0.2204 0.0000 -0.9754
vn -0.3051 0.0000 -0.9523
vn -0.5823 0.0000 0.8130
vn -0.3185 0.0000 0.9479
vn 0.8638 0.0000 -0.5039
vn -0.2231 0.0000 0.9748
vn 1.0000 -0.0000 0.0000
vn 0.2315 0.0000 0.9728
vn -0.3821 0.0000 -0.9241
vn -1.0000 0.0000 0.0000
vn -0.9438 0.0000 0.3306
vn 0.8355 0.0000 0.5495
vn -0.3348 0.0000 0.9423
vn 0.2088 0.0000 -0.9779
vn -0.9333 0.0000 -0.3591
vn -0.8493 0.0000 0.5280
vn -0.9004 0.0000 -0.4350
vn 0.8916 0.0000 -0.4527
vn 0.5069 0.0000 0.8620
vn -0.1550 -0.0000 0.9879
vn 0.9211 0.0000 -0.3893
vn -0.8284 -0.0000 0.5601
vn 0.8737 0.0000 0.4865
vn 0.0000 0.0000 -1.0000
vn -0.9365 0.0000 -0.3506
vn 0.1810 0.0000 0.9835
vn -0.5180 0.0000 -0.8554
vn 0.2933 0.0000 -0.9560
vn 0.8391 0.0000 -0.5440
vn -0.0878 0.0000 0.9961
vn 0.9054 0.0000 0.4245
vn 0.9520 0.0000 0.3059
vn 0.9412 -0.0000 0.3379
vn 0.7836 -0.0000 0.6212
vn -0.8842 0.0000 -0.4672
vn 0.9830 0.0000 -0.1835
vn 0.5683 0.0000 -0.8228
vn -0.9270 0.0000 -0.3750
usemtl None
s off
f 19//1 13//1 4//1 10//1
f 12//1 15//1 8//1 2//1
f 15//1 17//1 9//1 8//1
f 17//1 19//1 10//1 9//1
f 6//1 5//1 20//1 18//1
f 7//1 6//1 18//1 16//1
f 1//1 7//1 16//1 11//1
f 11//1 16//1 15//1 12//1
f 5//1 3//1 14//1 20//1
f 20//1 14//1 13//1 19//1
f 48//1 33//1 24//1 45//1
f 44//1 35//1 28//1 42//1
f 35//1 37//1 29//1 28//1
f 37//1 39//1 30//1 29//1
f 49//1 25//1 40//1 50//1
f 27//1 26//1 38//1 36//1
f 41//1 27//1 36//1 43//1
f 43//1 36//1 35//1 44//1
f 46//1 23//1 34//1 47//1
f 47//1 34//1 33//1 48//1
f 31//1 43//1 44//1 32//1
f 21//1 41//1 43//1 31//1
f 32//1 44//1 42//1 22//1
f 40//1 47//1 48//1 39//1
f 25//1 46//1 47//1 40//1
f 39//1 48//1 45//1 30//1
f 26//1 49//1 50//1 38//1
f 49//1 26//1 53//1 54//1
f 54//1 53//1 61//1
f 53//1 52//1 60//1 61//1
f 60//1 52//1 59//1
f 52//1 51//1 58//1 59//1
f 21//1 58//1 51//1 41//1
f 55//1 54//1 61//1 62//1
f 64//1 55//1 62//1
f 57//1 23//1 46//1 56//1
f 56//1 55//1 64//1 57//1
f 84//2 69//2 70//2 81//2
f 67//2 68//2 75//2 82//2
f 82//2 75//2 76//2 83//2
f 83//2 76//2 69//2 84//2
f 74//2 78//2 79//2 73//2
f 65//2 77//2 78//2 74//2
f 66//2 80//2 77//2 65//2
f 80//2 67//2 82//2 77//2
f 73//2 79//2 71//2 72//2
f 79//2 84//2 81//2 71//2
f 114//2 89//2 90//2 106//2
f 112//2 98//2 99//2 107//2
f 107//2 99//2 100//2 108//2
f 108//2 100//2 101//2 109//2
f 95//2 110//2 104//2 94//2
f 97//2 102//2 103//2 96//2
f 85//2 111//2 102//2 97//2
f 111//2 112//2 107//2 102//2
f 93//2 113//2 91//2 92//2
f 113//2 114//2 106//2 91//2
f 105//2 87//2 112//2 111//2
f 86//2 105//2 111//2 85//2
f 87//2 88//2 98//2 112//2
f 104//2 109//2 114//2 113//2
f 94//2 104//2 113//2 93//2
f 109//2 101//2 89//2 114//2
f 96//2 103//2 110//2 95//2
f 95//2 118//2 117//2 96//2
f 118//2 125//2 117//2
f 117//2 125//2 124//2 116//2
f 124//2 123//2 116//2
f 116//2 123//2 122//2 115//2
f 86//2 85//2 115//2 122//2
f 119//2 126//2 125//2 118//2
f 127//2 126//2 119//2
f 121//2 120//2 93//2 92//2
f 120//2 121//2 127//2 119//2
f 53//3 26//3 96//3 117//3
f 29//4 30//4 101//4 100//4
f 1//5 11//5 80//5 66//5
f 11//6 12//6 67//6 80//6
f 30//7 45//7 89//7 101//7
f 4//8 13//8 81//8 70//8
f 13//9 14//9 71//9 81//9
f 21//10 31//10 105//10 86//10
f 31//11 32//11 87//11 105//11
f 15//12 16//12 77//12 82//12
f 24//13 33//13 106//13 90//13
f 33//14 34//14 91//14 106//14
f 64//15 62//15 126//15 127//15
f 20//16 19//16 84//16 79//16
f 25//17 49//17 95//17 94//17
f 35//18 36//18 102//18 107//18
f 18//17 20//17 79//17 78//17
f 56//19 46//19 93//19 120//19
f 38//20 50//20 110//20 103//20
f 19//21 17//21 83//21 84//21
f 16//17 18//17 78//17 77//17
f 57//22 64//22 127//22 121//22
f 41//23 51//23 115//23 85//23
f 40//24 39//24 109//24 104//24
f 17//25 15//25 82//25 83//25
f 51//26 52//26 116//26 115//26
f 50//20 40//20 104//20 110//20
f 7//20 1//20 66//20 65//20
f 52//27 53//27 117//27 116//27
f 39//28 37//28 108//28 109//28
f 12//29 2//29 68//29 67//29
f 49//30 54//30 118//30 95//30
f 36//20 38//20 103//20 102//20
f 10//31 4//31 70//31 69//31
f 54//32 55//32 119//32 118//32
f 37//33 35//33 107//33 108//33
f 14//34 3//34 72//34 71//34
f 55//35 56//35 120//35 119//35
f 3//20 5//20 73//20 72//20
f 23//36 57//36 121//36 92//36
f 32//37 22//37 88//37 87//37
f 5//20 6//20 74//20 73//20
f 58//38 21//38 86//38 122//38
f 45//7 24//7 90//7 89//7
f 6//20 7//20 65//20 74//20
f 59//39 58//39 122//39 123//39
f 34//40 23//40 92//40 91//40
f 2//41 8//41 75//41 68//41
f 60//42 59//42 123//42 124//42
f 27//17 41//17 85//17 97//17
f 46//17 25//17 94//17 93//17
f 8//43 9//43 76//43 75//43
f 61//44 60//44 124//44 125//44
f 22//45 42//45 98//45 88//45
f 9//46 10//46 69//46 76//46
f 62//47 61//47 125//47 126//47
f 26//17 27//17 97//17 96//17
f 42//45 28//45 99//45 98//45
f 28//48 29//48 100//48 99//48
l 62 63
l 63 64
o Base_Plane.002
v -0.150743 0.000157 -0.000244
v -0.145128 0.000157 -0.106289
v -0.116976 0.000157 -0.097078
v -0.055712 0.000157 -0.173121
v -0.047707 0.000157 -0.144603
v 0.000812 0.000157 -0.174428
v 0.001093 0.000157 -0.144809
v -0.145128 0.027142 -0.106289
v -0.150743 0.041610 -0.000244
v -0.116976 0.041610 -0.097078
v -0.047707 0.041610 -0.144603
v -0.055712 0.027142 -0.173121
v 0.001093 0.041610 -0.144809
v 0.000812 0.027142 -0.174428
v 0.000812 0.013649 -0.174428
v 0.001093 0.020883 -0.144809
v -0.047707 0.020883 -0.144603
v -0.116976 0.020883 -0.097078
v -0.150743 0.020883 -0.000244
v -0.145128 0.013649 -0.106289
v -0.055712 0.013649 -0.173121
v 0.149007 0.000157 -0.000244
v 0.143391 0.000157 -0.106289
v 0.115240 0.000157 -0.097078
v 0.053975 0.000157 -0.173121
v 0.045971 0.000157 -0.144603
v -0.002548 0.000157 -0.174428
v -0.002829 0.000157 -0.144809
v 0.143391 0.027142 -0.106289
v 0.149007 0.041610 -0.000244
v 0.115240 0.041610 -0.097078
v 0.045971 0.041610 -0.144603
v 0.053975 0.027142 -0.173121
v -0.002829 0.041610 -0.144809
v -0.002548 0.027142 -0.174428
v -0.002548 0.013649 -0.174428
v -0.002829 0.020883 -0.144809
v 0.045971 0.020883 -0.144603
v 0.115240 0.020883 -0.097078
v 0.149007 0.020883 -0.000244
v 0.143391 0.013649 -0.106289
v 0.053975 0.013649 -0.173121
v -0.000868 0.020883 -0.000244
v -0.180362 0.000157 -0.000417
v -0.150743 0.000157 -0.000589
v -0.145128 0.000157 0.105455
v -0.116976 0.000157 0.096245
v -0.055712 0.000157 0.172288
v -0.047707 0.000157 0.143770
v 0.000812 0.000157 0.173594
v 0.001093 0.000157 0.143975
v -0.145128 0.027142 0.105455
v -0.180362 0.027142 -0.000417
v -0.150743 0.041610 -0.000589
v -0.116976 0.041610 0.096245
v -0.047707 0.041610 0.143770
v -0.055712 0.027142 0.172288
v 0.001093 0.041610 0.143975
v 0.000812 0.027142 0.173594
v 0.001093 0.000157 -0.000417
v 0.000812 0.013649 0.173594
v 0.001093 0.020883 0.143975
v -0.047707 0.020883 0.143770
v -0.116976 0.020883 0.096245
v -0.150743 0.020883 -0.000589
v -0.180362 0.013649 -0.000417
v -0.145128 0.013649 0.105455
v -0.055712 0.013649 0.172288
v 0.178626 0.000157 -0.000417
v 0.149007 0.000157 -0.000589
v 0.143391 0.000157 0.105455
v 0.115240 0.000157 0.096245
v 0.053975 0.000157 0.172288
v 0.045971 0.000157 0.143770
v -0.002548 0.000157 0.173594
v -0.002829 0.000157 0.143975
v 0.143391 0.027142 0.105455
v 0.178626 0.027142 -0.000417
v 0.149007 0.041610 -0.000589
v 0.115240 0.041610 0.096245
v 0.045971 0.041610 0.143770
v 0.053975 0.027142 0.172288
v -0.002829 0.041610 0.143975
v -0.002548 0.027142 0.173594
v -0.002829 0.000157 -0.000417
v -0.002548 0.013649 0.173594
v -0.002829 0.020883 0.143975
v 0.045971 0.020883 0.143770
v 0.115240 0.020883 0.096245
v 0.149007 0.020883 -0.000589
v 0.178626 0.013649 -0.000417
v 0.143391 0.013649 0.105455
v 0.053975 0.013649 0.172288
v -0.000868 0.020883 -0.000589
vn 0.0000 -1.0000 -0.0000
vn -0.4243 0.8939 -0.1444
vn -0.2853 0.8728 -0.3959
vn -0.0064 0.8956 -0.4448
vn 1.0000 0.0000 -0.0095
vn 0.5657 0.0000 0.8246
vn -0.0058 0.0000 1.0000
vn 0.0042 0.0000 1.0000
vn -0.5987 0.0000 -0.8010
vn 0.9442 0.0000 0.3293
vn -0.9488 0.0000 -0.3158
vn -0.0231 0.0000 -0.9997
vn 0.0000 1.0000 0.0000
vn 0.4243 0.8939 -0.1444
vn 0.2853 0.8728 -0.3959
vn 0.0064 0.8956 -0.4448
vn -1.0000 0.0000 -0.0095
vn -0.5657 0.0000 0.8246
vn 0.0058 0.0000 1.0000
vn -0.0042 0.0000 1.0000
vn 0.5987 0.0000 -0.8010
vn -0.9442 0.0000 0.3293
vn 0.9488 0.0000 -0.3158
vn 0.0231 0.0000 -0.9997
vn -0.4243 0.8939 0.1444
vn -0.2853 0.8728 0.3959
vn -0.0064 0.8956 0.4448
vn 1.0000 0.0000 0.0095
vn 0.5657 0.0000 -0.8246
vn -0.0058 0.0000 -1.0000
vn 0.0042 0.0000 -1.0000
vn -0.5987 0.0000 0.8010
vn 0.9442 0.0000 -0.3293
vn -0.9488 0.0000 0.3158
vn -0.0231 0.0000 0.9997
vn 0.4243 0.8939 0.1444
vn 0.2853 0.8728 0.3959
vn 0.0064 0.8956 0.4448
vn -1.0000 0.0000 0.0095
vn -0.5657 0.0000 -0.8246
vn 0.0058 0.0000 -1.0000
vn -0.0042 0.0000 -1.0000
vn 0.5987 0.0000 0.8010
vn -0.9442 0.0000 -0.3293
vn 0.9488 0.0000 0.3158
vn 0.0231 0.0000 0.9997
usemtl None
s off
f 171//49 129//49 130//49 128//49
f 129//49 131//49 132//49 130//49
f 131//49 133//49 134//49 132//49
f 180//50 136//50 137//50 135//50
f 135//51 137//51 138//51 139//51
f 139//52 138//52 140//52 141//52
f 143//53 142//53 141//53 140//53
f 145//54 144//54 138//54 137//54
f 193//55 146//55 136//55 180//55
f 144//56 143//56 140//56 138//56
f 148//57 147//57 135//57 139//57
f 146//58 145//58 137//58 136//58
f 147//59 193//59 180//59 135//59
f 142//60 148//60 139//60 141//60
f 128//49 130//49 132//49 134//49 187//49
f 133//60 131//60 148//60 142//60
f 129//59 171//59 193//59 147//59
f 128//58 130//58 145//58 146//58
f 131//57 129//57 147//57 148//57
f 132//56 134//56 143//56 144//56
f 171//55 128//55 146//55 193//55
f 130//54 132//54 144//54 145//54
f 134//53 133//53 142//53 143//53
f 145//61 146//61 170//61 143//61 144//61
f 196//49 149//49 151//49 150//49
f 150//49 151//49 153//49 152//49
f 152//49 153//49 155//49 154//49
f 205//62 156//62 158//62 157//62
f 156//63 160//63 159//63 158//63
f 160//64 162//64 161//64 159//64
f 164//65 161//65 162//65 163//65
f 166//66 158//66 159//66 165//66
f 218//67 205//67 157//67 167//67
f 165//68 159//68 161//68 164//68
f 169//69 160//69 156//69 168//69
f 167//70 157//70 158//70 166//70
f 168//71 156//71 205//71 218//71
f 163//72 162//72 160//72 169//72
f 149//49 212//49 155//49 153//49 151//49
f 154//72 163//72 169//72 152//72
f 150//71 168//71 218//71 196//71
f 149//70 167//70 166//70 151//70
f 152//69 169//69 168//69 150//69
f 153//68 165//68 164//68 155//68
f 196//67 218//67 167//67 149//67
f 151//66 166//66 165//66 153//66
f 155//65 164//65 163//65 154//65
f 166//61 165//61 164//61 170//61 167//61
f 171//49 172//49 174//49 173//49
f 173//49 174//49 176//49 175//49
f 175//49 176//49 178//49 177//49
f 180//73 179//73 182//73 181//73
f 179//74 184//74 183//74 182//74
f 184//75 186//75 185//75 183//75
f 189//76 185//76 186//76 188//76
f 191//77 182//77 183//77 190//77
f 193//78 180//78 181//78 192//78
f 190//79 183//79 185//79 189//79
f 195//80 184//80 179//80 194//80
f 192//81 181//81 182//81 191//81
f 194//82 179//82 180//82 193//82
f 188//83 186//83 184//83 195//83
f 172//49 187//49 178//49 176//49 174//49
f 177//83 188//83 195//83 175//83
f 173//82 194//82 193//82 171//82
f 172//81 192//81 191//81 174//81
f 175//80 195//80 194//80 173//80
f 176//79 190//79 189//79 178//79
f 171//78 193//78 192//78 172//78
f 174//77 191//77 190//77 176//77
f 178//76 189//76 188//76 177//76
f 191//61 190//61 189//61 221//61 192//61
f 196//49 198//49 199//49 197//49
f 198//49 200//49 201//49 199//49
f 200//49 202//49 203//49 201//49
f 205//84 206//84 207//84 204//84
f 204//85 207//85 208//85 209//85
f 209//86 208//86 210//86 211//86
f 214//87 213//87 211//87 210//87
f 216//88 215//88 208//88 207//88
f 218//89 217//89 206//89 205//89
f 215//90 214//90 210//90 208//90
f 220//91 219//91 204//91 209//91
f 217//92 216//92 207//92 206//92
f 219//93 218//93 205//93 204//93
f 213//94 220//94 209//94 211//94
f 197//49 199//49 201//49 203//49 212//49
f 202//94 200//94 220//94 213//94
f 198//93 196//93 218//93 219//93
f 197//92 199//92 216//92 217//92
f 200//91 198//91 219//91 220//91
f 201//90 203//90 214//90 215//90
f 196//89 197//89 217//89 218//89
f 199//88 201//88 215//88 216//88
f 203//87 202//87 213//87 214//87
f 216//61 217//61 221//61 214//61 215//61
