# Blender v2.79 (sub 0) OBJ File: 'bullbar.blend'
# www.blender.org
mtllib bullbar.mtl
o Plane_Plane.002
v -0.026476 0.060431 0.415913
v 0.017726 0.060431 0.415913
v -0.061929 0.024979 0.415913
v 0.089609 0.024979 0.624808
v 0.053179 0.024979 0.415913
v -0.061929 -0.017726 0.415913
v 0.114585 0.060431 0.549170
v 0.100725 0.060431 0.591144
v 0.053179 -0.017726 0.415913
v -0.026476 -0.053178 0.415913
v 0.017726 -0.053178 0.415913
v 0.013783 0.060431 0.511459
v 0.049408 0.060431 0.485291
v -0.014789 0.024979 0.532447
v 0.199589 0.024979 0.658913
v 0.077980 0.024979 0.464303
v -0.014789 -0.017726 0.532447
v 0.205110 0.024979 0.543938
v 0.077980 -0.017726 0.464303
v 0.013783 -0.053178 0.511459
v 0.049408 -0.053178 0.485291
v 0.125701 0.024979 0.515506
v 0.089609 -0.017726 0.624808
v 0.125701 -0.017726 0.515506
v 0.100725 -0.053178 0.591144
v 0.114585 -0.053178 0.549170
v 0.201289 0.060431 0.623501
v 0.203409 0.060431 0.579349
v 0.199589 -0.017726 0.658913
v 0.205110 -0.017726 0.543938
v 0.201289 -0.053178 0.623501
v 0.203409 -0.053178 0.579349
v 0.606528 0.060432 0.642962
v 0.608648 0.060432 0.598810
v 0.604827 0.024979 0.678373
v 0.776649 -0.206762 0.660937
v 0.739502 -0.057062 0.689047
v 0.610349 0.024979 0.563399
v 0.604827 -0.017726 0.678373
v 0.772464 -0.043463 0.609483
v 0.771450 -0.041601 0.653635
v 0.610349 -0.017726 0.563399
v 0.606528 -0.053178 0.642962
v 0.608648 -0.053178 0.598810
v 0.715087 0.023423 0.649919
v 0.716755 0.022113 0.605767
v 0.691856 -0.003412 0.685331
v 0.759279 -0.120596 0.692209
v 0.696199 -0.006821 0.570356
v 0.665484 -0.037001 0.685331
v 0.760370 -0.126009 0.577234
v 0.669826 -0.040411 0.570356
v 0.644928 -0.065936 0.649919
v 0.646596 -0.067245 0.605767
v 0.776313 -0.205095 0.696348
v 0.742142 -0.061911 0.574072
v 0.701997 -0.077486 0.689047
v 0.811821 -0.201835 0.616785
v 0.811402 -0.199756 0.660937
v 0.704637 -0.082335 0.574072
v 0.671675 -0.095934 0.653635
v 0.672689 -0.097796 0.609484
v 0.794368 -0.115257 0.656797
v 0.794787 -0.117336 0.612645
v 0.717416 -0.129035 0.692209
v 0.718507 -0.134448 0.577234
v 0.682998 -0.137708 0.656797
v 0.683417 -0.139787 0.612645
v 0.777068 -0.208841 0.616785
v 0.777404 -0.210508 0.581373
v 0.734450 -0.213534 0.696348
v 0.734786 -0.215201 0.660937
v 0.735205 -0.217280 0.616785
v 0.735541 -0.218947 0.581373
v 0.700032 -0.222207 0.660937
v 0.700451 -0.224286 0.616785
v 0.334707 0.049251 0.593757
v 0.370732 0.049251 0.593757
v 0.305814 0.020358 0.593757
v 0.334707 0.020358 0.593757
v 0.370732 0.020358 0.593757
v 0.399626 0.020358 0.593757
v 0.305814 -0.014447 0.593757
v 0.334707 -0.014447 0.593757
v 0.370732 -0.014447 0.593757
v 0.399626 -0.014447 0.593757
v 0.334707 -0.043340 0.593757
v 0.370732 -0.043340 0.593757
v 0.334708 0.049251 -0.001918
v 0.370732 0.049251 -0.001918
v 0.305814 0.020358 -0.001918
v 0.334708 0.020358 -0.001918
v 0.370732 0.020358 -0.001918
v 0.399626 0.020358 -0.001918
v 0.305814 -0.014447 -0.001918
v 0.334708 -0.014447 -0.001918
v 0.370732 -0.014447 -0.001918
v 0.399626 -0.014447 -0.001918
v 0.334708 -0.043340 -0.001918
v 0.370732 -0.043340 -0.001918
v -0.026477 0.060431 0.000000
v 0.017726 0.060431 -0.000000
v -0.061929 0.024979 0.000000
v -0.026477 0.024979 0.000000
v 0.017726 0.024979 -0.000000
v 0.053178 0.024979 -0.000000
v -0.061929 -0.017726 0.000000
v -0.026477 -0.017726 0.000000
v 0.017726 -0.017726 -0.000000
v 0.053178 -0.017726 -0.000000
v -0.026477 -0.053178 0.000000
v 0.017726 -0.053178 -0.000000
v -0.026477 0.060431 -0.415913
v 0.017726 0.060431 -0.415913
v -0.061929 0.024979 -0.415913
v 0.089609 0.024979 -0.624808
v 0.053178 0.024979 -0.415913
v -0.061929 -0.017726 -0.415913
v 0.114585 0.060431 -0.549170
v 0.100725 0.060431 -0.591144
v 0.053178 -0.017726 -0.415913
v -0.026477 -0.053178 -0.415913
v 0.017726 -0.053178 -0.415913
v 0.013783 0.060431 -0.511459
v 0.049408 0.060431 -0.485291
v -0.014789 0.024979 -0.532447
v 0.199588 0.024979 -0.658913
v 0.077980 0.024979 -0.464303
v -0.014789 -0.017726 -0.532447
v 0.205110 0.024979 -0.543938
v 0.077980 -0.017726 -0.464303
v 0.013783 -0.053178 -0.511459
v 0.049408 -0.053178 -0.485291
v 0.125701 0.024979 -0.515506
v 0.089609 -0.017726 -0.624808
v 0.125701 -0.017726 -0.515506
v 0.100725 -0.053178 -0.591144
v 0.114585 -0.053178 -0.549170
v 0.201289 0.060431 -0.623501
v 0.203409 0.060431 -0.579349
v 0.199588 -0.017726 -0.658913
v 0.205110 -0.017726 -0.543938
v 0.201289 -0.053178 -0.623501
v 0.203409 -0.053178 -0.579349
v 0.606528 0.060432 -0.642962
v 0.608648 0.060432 -0.598810
v 0.604827 0.024979 -0.678374
v 0.776649 -0.206762 -0.660937
v 0.739502 -0.057062 -0.689047
v 0.610349 0.024979 -0.563399
v 0.604827 -0.017726 -0.678374
v 0.772464 -0.043463 -0.609484
v 0.771450 -0.041601 -0.653636
v 0.610349 -0.017726 -0.563399
v 0.606528 -0.053178 -0.642962
v 0.608648 -0.053178 -0.598810
v 0.715087 0.023423 -0.649920
v 0.716755 0.022113 -0.605768
v 0.691856 -0.003412 -0.685331
v 0.759279 -0.120596 -0.692209
v 0.696199 -0.006821 -0.570356
v 0.665484 -0.037001 -0.685331
v 0.760370 -0.126009 -0.577234
v 0.669826 -0.040411 -0.570356
v 0.644928 -0.065936 -0.649919
v 0.646595 -0.067245 -0.605768
v 0.776312 -0.205095 -0.696348
v 0.742142 -0.061911 -0.574072
v 0.701997 -0.077486 -0.689047
v 0.811821 -0.201835 -0.616785
v 0.811402 -0.199756 -0.660937
v 0.704637 -0.082335 -0.574072
v 0.671675 -0.095934 -0.653636
v 0.672689 -0.097796 -0.609484
v 0.794368 -0.115257 -0.656797
v 0.794787 -0.117336 -0.612646
v 0.717415 -0.129035 -0.692209
v 0.718507 -0.134448 -0.577234
v 0.682998 -0.137708 -0.656797
v 0.683417 -0.139787 -0.612646
v 0.777068 -0.208841 -0.616785
v 0.777404 -0.210508 -0.581373
v 0.734449 -0.213534 -0.696348
v 0.734785 -0.215201 -0.660937
v 0.735205 -0.217280 -0.616785
v 0.735541 -0.218947 -0.581373
v 0.700032 -0.222207 -0.660937
v 0.700451 -0.224286 -0.616785
v 0.334707 0.049251 -0.593757
v 0.370732 0.049251 -0.593757
v 0.305814 0.020358 -0.593757
v 0.334707 0.020358 -0.593757
v 0.370732 0.020358 -0.593757
v 0.399626 0.020358 -0.593757
v 0.305814 -0.014447 -0.593757
v 0.334707 -0.014447 -0.593757
v 0.370732 -0.014447 -0.593757
v 0.399626 -0.014447 -0.593757
v 0.334707 -0.043340 -0.593757
v 0.370732 -0.043340 -0.593757
v -0.026477 0.060431 0.000000
v -0.026477 0.060431 0.000000
v 0.017726 0.060431 -0.000000
v 0.017726 0.060431 -0.000000
v -0.026477 -0.053178 0.000000
v -0.026477 -0.053178 0.000000
v 0.017726 -0.053178 -0.000000
v 0.017726 -0.053178 -0.000000
v -0.061929 -0.017726 0.000000
v -0.061929 -0.017726 0.000000
v -0.061929 0.024979 0.000000
v -0.061929 0.024979 0.000000
v 0.053178 -0.017726 -0.000000
v 0.053178 -0.017726 -0.000000
v 0.053178 0.024979 -0.000000
v 0.053178 0.024979 -0.000000
v 0.811402 -0.199756 0.660937
v 0.811821 -0.201835 0.616785
v 0.700032 -0.222207 0.660937
v 0.700451 -0.224286 0.616785
v 0.734450 -0.213534 0.696348
v 0.776313 -0.205095 0.696348
v 0.735541 -0.218947 0.581373
v 0.777404 -0.210508 0.581373
v 0.334707 0.049251 0.593757
v 0.370732 0.049251 0.593757
v 0.334707 -0.043340 0.593757
v 0.370732 -0.043340 0.593757
v 0.305814 -0.014447 0.593757
v 0.305814 0.020358 0.593757
v 0.399626 -0.014447 0.593757
v 0.399626 0.020358 0.593757
v 0.334708 0.049251 -0.001918
v 0.334708 0.049251 -0.001918
v 0.370732 0.049251 -0.001918
v 0.370732 0.049251 -0.001918
v 0.334708 -0.043340 -0.001918
v 0.334708 -0.043340 -0.001918
v 0.370732 -0.043340 -0.001918
v 0.370732 -0.043340 -0.001918
v 0.305814 -0.014447 -0.001918
v 0.305814 -0.014447 -0.001918
v 0.305814 0.020358 -0.001918
v 0.305814 0.020358 -0.001918
v 0.399626 -0.014447 -0.001918
v 0.399626 -0.014447 -0.001918
v 0.399626 0.020358 -0.001918
v 0.399626 0.020358 -0.001918
v 0.811402 -0.199756 -0.660937
v 0.811821 -0.201835 -0.616785
v 0.700032 -0.222207 -0.660937
v 0.700451 -0.224286 -0.616785
v 0.734449 -0.213534 -0.696348
v 0.776312 -0.205095 -0.696348
v 0.735541 -0.218947 -0.581373
v 0.777404 -0.210508 -0.581373
v 0.334707 0.049251 -0.593757
v 0.370732 0.049251 -0.593757
v 0.334707 -0.043340 -0.593757
v 0.370732 -0.043340 -0.593757
v 0.305814 -0.014447 -0.593757
v 0.305814 0.020358 -0.593757
v 0.399626 -0.014447 -0.593757
v 0.399626 0.020358 -0.593757
vn -0.4153 -0.9052 0.0903
vn 0.3299 -0.9416 -0.0679
vn 0.2889 -0.9355 -0.2034
vn -0.3539 -0.9015 0.2488
vn 0.8887 0.4027 -0.2193
vn 0.3299 0.9416 -0.0679
vn 0.2889 0.9355 -0.2034
vn 0.7564 0.3833 -0.5300
vn -0.4153 0.9052 0.0903
vn -0.3539 0.9015 0.2488
vn 0.8887 -0.4027 -0.2193
vn 0.7564 -0.3833 -0.5300
vn -0.9143 0.3661 0.1732
vn -0.7621 0.3580 0.5394
vn -0.9143 -0.3661 0.1732
vn -0.7621 -0.3580 0.5394
vn -0.9239 0.3827 0.0000
vn -0.9239 -0.3827 0.0000
vn -0.3827 0.9239 0.0000
vn 0.3827 -0.9239 0.0000
vn 0.9239 -0.3827 0.0000
vn 0.9239 0.3827 0.0000
vn 0.3827 0.9239 0.0000
vn -0.3827 -0.9239 0.0000
vn -0.2203 -0.9033 0.3682
vn -0.4530 -0.3634 0.8141
vn 0.1735 -0.9415 -0.2889
vn 0.1735 0.9415 -0.2889
vn 0.5072 0.4002 -0.7632
vn -0.2203 0.9033 0.3682
vn 0.5072 -0.4002 -0.7632
vn -0.4530 0.3634 0.8141
vn 0.0641 -0.9357 -0.3469
vn -0.0752 -0.9123 0.4025
vn 0.0641 0.9357 -0.3469
vn 0.1809 0.3958 -0.9003
vn 0.1809 -0.3958 -0.9003
vn -0.0752 0.9123 0.4025
vn -0.1592 0.3723 0.9143
vn -0.1592 -0.3723 0.9143
vn 0.0129 -0.3536 -0.9353
vn -0.1258 -0.9056 -0.4050
vn 0.0182 0.4243 0.9053
vn 0.1290 0.9223 0.3643
vn -0.1223 -0.3363 0.9338
vn 0.1728 0.9138 -0.3674
vn -0.1912 -0.9048 0.3804
vn 0.1332 0.4024 -0.9057
vn 0.1974 -0.9791 0.0479
vn -0.5388 -0.7354 0.4109
vn -0.2467 -0.2283 0.9418
vn -0.4825 -0.7810 -0.3964
vn 0.5465 0.7569 -0.3583
vn 0.2943 0.3298 -0.8970
vn 0.5072 0.7817 0.3628
vn -0.1237 -0.3101 -0.9426
vn 0.1891 0.3946 0.8992
vn -0.8181 -0.4079 0.4053
vn -0.3206 -0.1112 0.9407
vn -0.7958 -0.4504 -0.4049
vn 0.8249 0.4312 -0.3654
vn 0.3961 0.1611 -0.9039
vn 0.8051 0.4652 0.3680
vn -0.2678 -0.2043 -0.9415
vn 0.3461 0.2467 0.9051
vn 0.3925 0.0517 -0.9183
vn -0.3553 -0.1321 -0.9254
vn -0.8950 -0.2299 -0.3822
vn 0.3700 0.1409 0.9183
vn 0.8932 0.2447 0.3771
vn -0.3768 -0.0414 0.9254
vn 0.9026 0.2083 -0.3766
vn -0.9031 -0.1920 0.3840
vn -0.3664 -0.1191 -0.9228
vn -0.9020 -0.2005 -0.3822
vn 0.3664 0.1191 0.9228
vn 0.9020 0.2005 0.3822
vn -0.3839 -0.0322 0.9228
vn -0.9093 -0.1646 0.3822
vn 0.9093 0.1646 -0.3822
vn 0.3839 0.0322 -0.9228
vn 0.0000 0.0000 1.0000
vn 0.0000 0.0000 -1.0000
vn -0.4153 -0.9052 -0.0903
vn -0.3539 -0.9015 -0.2488
vn 0.2889 -0.9355 0.2034
vn 0.3299 -0.9416 0.0679
vn 0.8887 0.4027 0.2193
vn 0.7564 0.3833 0.5300
vn 0.2889 0.9355 0.2034
vn 0.3299 0.9416 0.0679
vn -0.3539 0.9015 -0.2488
vn -0.4153 0.9052 -0.0903
vn 0.8887 -0.4027 0.2193
vn 0.7564 -0.3833 0.5300
vn -0.7621 0.3580 -0.5394
vn -0.9143 0.3661 -0.1732
vn -0.7621 -0.3580 -0.5394
vn -0.9143 -0.3661 -0.1732
vn -0.4530 -0.3634 -0.8141
vn -0.2203 -0.9033 -0.3682
vn 0.1735 -0.9415 0.2889
vn 0.5072 0.4002 0.7632
vn 0.1735 0.9415 0.2889
vn -0.2203 0.9033 -0.3682
vn 0.5072 -0.4002 0.7632
vn -0.4530 0.3634 -0.8141
vn -0.0752 -0.9123 -0.4025
vn 0.0641 -0.9357 0.3469
vn 0.1809 0.3958 0.9003
vn 0.0641 0.9357 0.3469
vn 0.1809 -0.3958 0.9003
vn -0.0752 0.9123 -0.4025
vn -0.1592 0.3723 -0.9143
vn -0.1592 -0.3723 -0.9143
vn -0.1258 -0.9056 0.4050
vn 0.0129 -0.3536 0.9353
vn 0.1290 0.9223 -0.3643
vn 0.0182 0.4243 -0.9053
vn -0.1223 -0.3363 -0.9338
vn 0.1728 0.9138 0.3674
vn -0.1912 -0.9048 -0.3804
vn 0.1332 0.4024 0.9057
vn 0.1974 -0.9791 -0.0479
vn -0.2467 -0.2283 -0.9418
vn -0.5388 -0.7354 -0.4109
vn -0.4825 -0.7810 0.3964
vn 0.2943 0.3298 0.8970
vn 0.5465 0.7569 0.3583
vn 0.5072 0.7817 -0.3628
vn -0.1237 -0.3101 0.9426
vn 0.1891 0.3946 -0.8992
vn -0.3206 -0.1112 -0.9407
vn -0.8181 -0.4079 -0.4053
vn -0.7958 -0.4504 0.4049
vn 0.3961 0.1611 0.9039
vn 0.8249 0.4312 0.3654
vn 0.8051 0.4652 -0.3680
vn -0.2678 -0.2043 0.9415
vn 0.3461 0.2467 -0.9051
vn -0.3553 -0.1321 0.9254
vn 0.3925 0.0517 0.9183
vn -0.8950 -0.2299 0.3822
vn 0.8932 0.2447 -0.3771
vn 0.3700 0.1409 -0.9183
vn -0.3768 -0.0414 -0.9254
vn 0.9026 0.2083 0.3766
vn -0.9031 -0.1920 -0.3840
vn -0.9020 -0.2005 0.3822
vn -0.3664 -0.1191 0.9228
vn 0.9020 0.2005 -0.3822
vn 0.3664 0.1191 -0.9228
vn -0.3839 -0.0322 -0.9228
vn -0.9093 -0.1646 -0.3822
vn 0.3839 0.0322 0.9228
vn 0.9093 0.1646 0.3822
usemtl None
s 1
f 10//1 11//2 21//3 20//4
f 5//5 2//6 13//7 16//8
f 2//6 1//9 12//10 13//7
f 9//11 5//5 16//8 19//12
f 11//2 9//11 19//12 21//3
f 1//9 3//13 14//14 12//10
f 3//13 6//15 17//16 14//14
f 6//15 10//1 20//4 17//16
f 212//17 210//18 6//15 3//13
f 202//19 212//17 3//13 1//9
f 208//20 214//21 9//11 11//2
f 214//21 216//22 5//5 9//11
f 204//23 202//19 1//9 2//6
f 216//22 204//23 2//6 5//5
f 206//24 208//20 11//2 10//1
f 210//18 206//24 10//1 6//15
f 17//16 20//4 25//25 23//26
f 20//4 21//3 26//27 25//25
f 16//8 13//7 7//28 22//29
f 13//7 12//10 8//30 7//28
f 19//12 16//8 22//29 24//31
f 21//3 19//12 24//31 26//27
f 12//10 14//14 4//32 8//30
f 14//14 17//16 23//26 4//32
f 25//25 26//27 32//33 31//34
f 22//29 7//28 28//35 18//36
f 24//31 22//29 18//36 30//37
f 7//28 8//30 27//38 28//35
f 26//27 24//31 30//37 32//33
f 8//30 4//32 15//39 27//38
f 4//32 23//26 29//40 15//39
f 23//26 25//25 31//34 29//40
f 32//33 30//37 42//41 44//42
f 27//38 15//39 35//43 33//44
f 15//39 29//40 39//45 35//43
f 28//35 27//38 33//44 34//46
f 29//40 31//34 43//47 39//45
f 31//34 32//33 44//42 43//47
f 18//36 28//35 34//46 38//48
f 30//37 18//36 38//48 42//41
f 72//49 75//49 76//49 73//49
f 39//45 43//47 53//50 50//51
f 43//47 44//42 54//52 53//50
f 38//48 34//46 46//53 49//54
f 34//46 33//44 45//55 46//53
f 42//41 38//48 49//54 52//56
f 44//42 42//41 52//56 54//52
f 33//44 35//43 47//57 45//55
f 35//43 39//45 50//51 47//57
f 50//51 53//50 61//58 57//59
f 53//50 54//52 62//60 61//58
f 49//54 46//53 40//61 56//62
f 46//53 45//55 41//63 40//61
f 52//56 49//54 56//62 60//64
f 54//52 52//56 60//64 62//60
f 45//55 47//57 37//65 41//63
f 47//57 50//51 57//59 37//65
f 60//64 56//62 51//66 66//67
f 62//60 60//64 66//67 68//68
f 41//63 37//65 48//69 63//70
f 37//65 57//59 65//71 48//69
f 40//61 41//63 63//70 64//72
f 57//59 61//58 67//73 65//71
f 61//58 62//60 68//68 67//73
f 56//62 40//61 64//72 51//66
f 68//68 66//67 223//74 220//75
f 63//70 48//69 55//76 217//77
f 48//69 65//71 221//78 55//76
f 65//71 67//73 219//79 221//78
f 67//73 68//68 220//75 219//79
f 51//66 64//72 218//80 70//81
f 66//67 51//66 70//81 223//74
f 64//72 63//70 217//77 218//80
f 222//49 71//49 72//49 36//49
f 36//49 72//49 73//49 69//49
f 69//49 73//49 74//49 224//49
f 59//49 36//49 69//49 58//49
f 72//49 71//49 75//49
f 73//49 76//49 74//49
f 224//49 58//49 69//49
f 36//49 59//49 222//49
f 84//82 227//82 228//82 85//82
f 230//82 229//82 84//82 80//82
f 80//82 84//82 85//82 81//82
f 81//82 85//82 231//82 232//82
f 225//82 80//82 81//82 226//82
f 84//82 229//82 227//82
f 85//82 228//82 231//82
f 232//82 226//82 81//82
f 80//82 225//82 230//82
f 96//83 97//83 240//83 238//83
f 243//83 92//83 96//83 241//83
f 92//83 93//83 97//83 96//83
f 93//83 247//83 245//83 97//83
f 234//83 236//83 93//83 92//83
f 96//83 238//83 241//83
f 97//83 245//83 240//83
f 247//83 93//83 236//83
f 92//83 243//83 234//83
f 83//18 79//17 244//17 242//18
f 79//17 77//19 233//19 244//17
f 86//21 88//20 239//20 246//21
f 82//22 86//21 246//21 248//22
f 77//19 78//23 235//23 233//19
f 78//23 82//22 248//22 235//23
f 88//20 87//24 237//24 239//20
f 87//24 83//18 242//18 237//24
f 108//82 205//82 207//82 109//82
f 211//82 209//82 108//82 104//82
f 104//82 108//82 109//82 105//82
f 105//82 109//82 213//82 215//82
f 201//82 104//82 105//82 203//82
f 108//82 209//82 205//82
f 109//82 207//82 213//82
f 215//82 203//82 105//82
f 104//82 201//82 211//82
f 122//84 132//85 133//86 123//87
f 117//88 128//89 125//90 114//91
f 114//91 125//90 124//92 113//93
f 121//94 131//95 128//89 117//88
f 123//87 133//86 131//95 121//94
f 113//93 124//92 126//96 115//97
f 115//97 126//96 129//98 118//99
f 118//99 129//98 132//85 122//84
f 103//17 115//97 118//99 107//18
f 101//19 113//93 115//97 103//17
f 112//20 123//87 121//94 110//21
f 110//21 121//94 117//88 106//22
f 102//23 114//91 113//93 101//19
f 106//22 117//88 114//91 102//23
f 111//24 122//84 123//87 112//20
f 107//18 118//99 122//84 111//24
f 129//98 135//100 137//101 132//85
f 132//85 137//101 138//102 133//86
f 128//89 134//103 119//104 125//90
f 125//90 119//104 120//105 124//92
f 131//95 136//106 134//103 128//89
f 133//86 138//102 136//106 131//95
f 124//92 120//105 116//107 126//96
f 126//96 116//107 135//100 129//98
f 137//101 143//108 144//109 138//102
f 134//103 130//110 140//111 119//104
f 136//106 142//112 130//110 134//103
f 119//104 140//111 139//113 120//105
f 138//102 144//109 142//112 136//106
f 120//105 139//113 127//114 116//107
f 116//107 127//114 141//115 135//100
f 135//100 141//115 143//108 137//101
f 144//109 156//116 154//117 142//112
f 139//113 145//118 147//119 127//114
f 127//114 147//119 151//120 141//115
f 140//111 146//121 145//118 139//113
f 141//115 151//120 155//122 143//108
f 143//108 155//122 156//116 144//109
f 130//110 150//123 146//121 140//111
f 142//112 154//117 150//123 130//110
f 184//124 185//124 188//124 187//124
f 151//120 162//125 165//126 155//122
f 155//122 165//126 166//127 156//116
f 150//123 161//128 158//129 146//121
f 146//121 158//129 157//130 145//118
f 154//117 164//131 161//128 150//123
f 156//116 166//127 164//131 154//117
f 145//118 157//130 159//132 147//119
f 147//119 159//132 162//125 151//120
f 162//125 169//133 173//134 165//126
f 165//126 173//134 174//135 166//127
f 161//128 168//136 152//137 158//129
f 158//129 152//137 153//138 157//130
f 164//131 172//139 168//136 161//128
f 166//127 174//135 172//139 164//131
f 157//130 153//138 149//140 159//132
f 159//132 149//140 169//133 162//125
f 172//139 178//141 163//142 168//136
f 174//135 180//143 178//141 172//139
f 153//138 175//144 160//145 149//140
f 149//140 160//145 177//146 169//133
f 152//137 176//147 175//144 153//138
f 169//133 177//146 179//148 173//134
f 173//134 179//148 180//143 174//135
f 168//136 163//142 176//147 152//137
f 180//143 252//149 255//150 178//141
f 175//144 249//151 167//152 160//145
f 160//145 167//152 253//153 177//146
f 177//146 253//153 251//154 179//148
f 179//148 251//154 252//149 180//143
f 163//142 182//155 250//156 176//147
f 178//141 255//150 182//155 163//142
f 176//147 250//156 249//151 175//144
f 254//124 148//124 184//124 183//124
f 148//124 181//124 185//124 184//124
f 181//124 256//124 186//124 185//124
f 171//124 170//124 181//124 148//124
f 184//124 187//124 183//124
f 185//124 186//124 188//124
f 256//124 181//124 170//124
f 148//124 254//124 171//124
f 196//83 197//83 260//83 259//83
f 262//83 192//83 196//83 261//83
f 192//83 193//83 197//83 196//83
f 193//83 264//83 263//83 197//83
f 257//83 258//83 193//83 192//83
f 196//83 259//83 261//83
f 197//83 263//83 260//83
f 264//83 193//83 258//83
f 192//83 262//83 257//83
f 195//18 95//18 91//17 191//17
f 191//17 91//17 89//19 189//19
f 198//21 98//21 100//20 200//20
f 194//22 94//22 98//21 198//21
f 189//19 89//19 90//23 190//23
f 190//23 90//23 94//22 194//22
f 200//20 100//20 99//24 199//24
f 199//24 99//24 95//18 195//18
