# Blender v2.79 (sub 0) OBJ File: 'bumper_70s_2.blend'
# www.blender.org
mtllib bumper_70s_2.mtl
o Plane
v -0.117756 0.112111 1.148368
v -0.155835 0.112111 1.168733
v -0.084594 0.112111 -0.004064
v -0.109587 -0.071899 -0.004064
v -0.033162 0.100353 1.148368
v -0.061681 -0.053661 1.148368
v -0.028519 -0.053661 -0.004064
v 0.000000 0.100353 -0.004064
v -0.073866 -0.064195 1.148368
v -0.040703 -0.064195 -0.004064
v -0.142749 -0.071899 1.148368
v -0.109587 -0.071899 -0.004064
v -0.006482 0.105022 -0.004064
v -0.039644 0.105022 1.148368
v -0.084594 0.112111 0.701986
v -0.109587 -0.071899 0.701986
v 0.000000 0.100353 0.701986
v -0.028519 -0.053661 0.701986
v -0.040703 -0.064195 0.701986
v -0.109587 -0.071899 0.701986
v -0.006482 0.105022 0.701986
v -0.109092 0.100353 1.239240
v -0.124851 -0.053661 1.215470
v -0.131583 -0.064195 1.205315
v -0.169645 -0.071899 1.147902
v -0.112674 0.105022 1.233837
v -0.296458 0.112111 1.195460
v -0.298123 0.100353 1.280037
v -0.241503 -0.053661 1.251524
v -0.238539 -0.064195 1.239342
v -0.234030 -0.071899 1.170472
v -0.297995 0.105022 1.273556
v -0.117756 0.112111 -1.148368
v -0.155835 0.112111 -1.168733
v -0.084594 0.112111 0.004064
v -0.109587 -0.071899 0.004064
v -0.033162 0.100353 -1.148368
v -0.061681 -0.053661 -1.148368
v -0.028519 -0.053661 0.004064
v 0.000000 0.100353 0.004064
v -0.073866 -0.064195 -1.148368
v -0.040703 -0.064195 0.004064
v -0.142749 -0.071899 -1.148368
v -0.109587 -0.071899 0.004064
v -0.006482 0.105022 0.004064
v -0.039644 0.105022 -1.148368
v -0.084594 0.112111 -0.701986
v -0.109587 -0.071899 -0.701986
v 0.000000 0.100353 -0.701986
v -0.028519 -0.053661 -0.701986
v -0.040703 -0.064195 -0.701986
v -0.109587 -0.071899 -0.701986
v -0.006482 0.105022 -0.701986
v -0.109092 0.100353 -1.239240
v -0.124851 -0.053661 -1.215470
v -0.131583 -0.064195 -1.205315
v -0.169645 -0.071899 -1.147902
v -0.112674 0.105022 -1.233837
v -0.296458 0.112111 -1.195460
v -0.298123 0.100353 -1.280037
v -0.241503 -0.053661 -1.251524
v -0.238539 -0.064195 -1.239342
v -0.234030 -0.071899 -1.170472
v -0.297995 0.105022 -1.273556
v -0.084594 0.112111 0.701986
v -0.117756 0.112111 1.148368
v -0.109587 -0.071899 0.701986
v -0.109587 -0.071899 0.701986
v -0.109587 -0.071899 -0.004064
v -0.109587 -0.071899 -0.004064
v -0.084594 0.112111 -0.004064
v -0.142749 -0.071899 1.148368
v -0.155835 0.112111 1.168733
v -0.169645 -0.071899 1.147902
v -0.084594 0.112111 -0.701986
v -0.117756 0.112111 -1.148368
v -0.109587 -0.071899 -0.701986
v -0.109587 -0.071899 -0.701986
v -0.109587 -0.071899 0.004064
v -0.109587 -0.071899 0.004064
v -0.084594 0.112111 0.004064
v -0.142749 -0.071899 -1.148368
v -0.155835 0.112111 -1.168733
v -0.169645 -0.071899 -1.147902
vn 0.0000 0.0000 1.0000
vn 0.3552 0.9347 0.0133
vn 0.9291 0.3681 0.0341
vn 0.9280 0.3725 0.0000
vn 0.3498 0.9368 0.0000
vn 0.8690 -0.4938 0.0321
vn 0.8675 -0.4973 0.0000
vn 0.4063 -0.9136 0.0153
vn 0.4005 -0.9163 0.0000
vn 0.1111 -0.9938 0.0042
vn 0.1111 -0.9938 0.0000
vn 0.0904 0.9959 0.0034
vn 0.0904 0.9959 0.0000
vn 0.0802 0.9954 0.0523
vn 0.3648 0.9145 0.1748
vn 0.4084 -0.8862 0.2186
vn 0.0898 -0.9926 0.0821
vn 0.8172 -0.4665 0.3385
vn 0.8779 0.3421 0.3349
vn 0.4697 -0.4428 0.7637
vn 0.2403 -0.8846 0.3995
vn -0.9909 0.1346 0.0000
vn -0.9902 0.1345 -0.0368
vn -0.9902 0.1345 -0.0366
vn -0.7544 0.1309 -0.6433
vn -0.7909 0.1335 -0.5972
vn 0.0427 0.9953 0.0866
vn 0.2108 0.9123 0.3512
vn 0.4929 0.3429 0.7996
vn 0.0515 -0.9922 0.1138
vn -0.2614 0.0874 -0.9612
vn -0.2630 0.0872 -0.9608
vn -0.7158 0.5455 -0.4359
vn -0.7143 0.6112 0.3409
vn -0.4558 -0.5325 0.7132
vn -0.4663 -0.8256 0.3178
vn -0.5931 0.1311 0.7944
vn -0.5034 -0.6857 -0.5256
vn 0.3552 0.9347 -0.0133
vn 0.9291 0.3681 -0.0341
vn 0.8690 -0.4938 -0.0321
vn 0.4063 -0.9136 -0.0153
vn 0.1111 -0.9938 -0.0042
vn 0.0904 0.9959 -0.0034
vn 0.0802 0.9954 -0.0523
vn 0.3648 0.9145 -0.1748
vn 0.4084 -0.8862 -0.2186
vn 0.0898 -0.9926 -0.0821
vn 0.8172 -0.4665 -0.3385
vn 0.8779 0.3421 -0.3349
vn 0.2403 -0.8846 -0.3995
vn 0.4697 -0.4428 -0.7637
vn -0.9902 0.1345 0.0366
vn -0.9902 0.1345 0.0368
vn -0.7909 0.1335 0.5972
vn -0.7544 0.1309 0.6433
vn 0.2108 0.9123 -0.3512
vn 0.0427 0.9953 -0.0866
vn 0.4929 0.3429 -0.7996
vn 0.0515 -0.9922 -0.1138
vn -0.2630 0.0872 0.9608
vn -0.2614 0.0874 0.9612
vn -0.7143 0.6112 -0.3409
vn -0.7158 0.5455 0.4359
vn -0.4663 -0.8256 -0.3178
vn -0.4558 -0.5325 -0.7132
vn -0.5931 0.1311 -0.7944
vn -0.5034 -0.6857 0.5256
usemtl None
s 1
f 68//1 16//1 4//1 69//1
f 21//2 17//3 8//4 13//5
f 17//3 18//6 7//7 8//4
f 18//6 19//8 10//9 7//7
f 19//8 67//10 70//11 10//9
f 65//12 21//2 13//5 71//13
f 66//14 14//15 21//2 65//12
f 9//16 72//17 67//10 19//8
f 6//18 9//16 19//8 18//6
f 5//19 6//18 18//6 17//3
f 14//15 5//19 17//3 21//2
f 9//16 6//18 23//20 24//21
f 3//22 12//22 20//23 15//24
f 15//24 20//23 11//25 1//26
f 14//15 66//14 73//27 26//28
f 5//19 14//15 26//28 22//29
f 72//17 9//16 24//21 74//30
f 6//18 5//19 22//29 23//20
f 1//26 11//25 25//31 2//32
f 26//28 73//27 27//33 32//34
f 24//21 23//20 29//35 30//36
f 22//29 26//28 32//34 28//37
f 2//32 25//31 31//38 27//33
f 74//30 24//21 30//36 31//38
f 23//20 22//29 28//37 29//35
f 29//35 28//37 32//34 27//33 31//38 30//36
f 78//1 79//1 36//1 48//1
f 53//39 45//5 40//4 49//40
f 49//40 40//4 39//7 50//41
f 50//41 39//7 42//9 51//42
f 51//42 42//9 80//11 77//43
f 75//44 81//13 45//5 53//39
f 76//45 75//44 53//39 46//46
f 41//47 51//42 77//43 82//48
f 38//49 50//41 51//42 41//47
f 37//50 49//40 50//41 38//49
f 46//46 53//39 49//40 37//50
f 41//47 56//51 55//52 38//49
f 35//22 47//53 52//54 44//22
f 47//53 33//55 43//56 52//54
f 46//46 58//57 83//58 76//45
f 37//50 54//59 58//57 46//46
f 82//48 84//60 56//51 41//47
f 38//49 55//52 54//59 37//50
f 33//55 34//61 57//62 43//56
f 58//57 64//63 59//64 83//58
f 56//51 62//65 61//66 55//52
f 54//59 60//67 64//63 58//57
f 34//61 59//64 63//68 57//62
f 84//60 63//68 62//65 56//51
f 55//52 61//66 60//67 54//59
f 61//66 62//65 63//68 59//64 64//63 60//67
