# Blender v2.79 (sub 0) OBJ File: 'bumper_70s.blend'
# www.blender.org
mtllib bumper_70s.mtl
o Plane
v -0.117756 0.112111 1.148368
v -0.109587 -0.071899 1.148368
v -0.084594 0.112111 -0.004064
v -0.109587 -0.071899 -0.004064
v -0.033162 0.100353 1.148368
v -0.061681 -0.053661 1.148368
v -0.028519 -0.053661 -0.004064
v 0.000000 0.100353 -0.004064
v -0.073866 -0.064195 1.148368
v -0.040703 -0.064195 -0.004064
v -0.142749 -0.071899 1.148368
v -0.109587 -0.071899 -0.004064
v -0.006482 0.105022 -0.004064
v -0.039644 0.105022 1.148368
v -0.084594 0.112111 0.701986
v -0.109587 -0.071899 0.701986
v 0.000000 0.100353 0.701986
v -0.028519 -0.053661 0.701986
v -0.040703 -0.064195 0.701986
v -0.109587 -0.071899 0.701986
v -0.006482 0.105022 0.701986
v -0.363256 0.119501 1.236383
v -0.066414 0.121005 1.134373
v -0.313133 -0.128346 1.235991
v -0.066806 -0.075213 1.134373
v -0.332626 0.009698 1.270308
v -0.349495 0.094608 1.288328
v -0.014469 0.094608 1.134341
v -0.032488 0.009698 1.134352
v -0.356375 0.111605 1.286453
v -0.016343 0.111605 1.134342
v -0.196178 0.121005 1.236383
v -0.174036 -0.100656 1.235991
v -0.190099 0.094608 1.288328
v -0.182647 0.009698 1.270308
v -0.193139 0.111605 1.286453
v -0.108734 0.121005 1.214092
v -0.097623 -0.080780 1.213700
v -0.105683 0.094608 1.266037
v -0.101944 0.009698 1.248018
v -0.107208 0.111605 1.264163
v -0.064398 0.121005 1.186894
v -0.072446 -0.075213 1.182916
v -0.023122 0.094608 1.218459
v -0.036143 0.009698 1.205898
v -0.024995 0.111605 1.217795
v -0.363256 0.119501 1.129136
v -0.313133 -0.128346 1.131566
v -0.117756 0.112111 -1.148368
v -0.109587 -0.071899 -1.148368
v -0.084594 0.112111 0.004064
v -0.109587 -0.071899 0.004064
v -0.033162 0.100353 -1.148368
v -0.061681 -0.053661 -1.148368
v -0.028519 -0.053661 0.004064
v 0.000000 0.100353 0.004064
v -0.073866 -0.064195 -1.148368
v -0.040703 -0.064195 0.004064
v -0.142749 -0.071899 -1.148368
v -0.109587 -0.071899 0.004064
v -0.006482 0.105022 0.004064
v -0.039644 0.105022 -1.148368
v -0.084594 0.112111 -0.701986
v -0.109587 -0.071899 -0.701986
v 0.000000 0.100353 -0.701986
v -0.028519 -0.053661 -0.701986
v -0.040703 -0.064195 -0.701986
v -0.109587 -0.071899 -0.701986
v -0.006482 0.105022 -0.701986
v -0.363256 0.119501 -1.236383
v -0.066414 0.121005 -1.134373
v -0.313133 -0.128346 -1.235991
v -0.066806 -0.075213 -1.134373
v -0.332626 0.009698 -1.270308
v -0.349495 0.094608 -1.288328
v -0.014469 0.094608 -1.134341
v -0.032488 0.009698 -1.134352
v -0.356375 0.111605 -1.286453
v -0.016343 0.111605 -1.134342
v -0.196178 0.121005 -1.236383
v -0.174036 -0.100656 -1.235991
v -0.190099 0.094608 -1.288328
v -0.182647 0.009698 -1.270308
v -0.193139 0.111605 -1.286453
v -0.108734 0.121005 -1.214092
v -0.097623 -0.080780 -1.213700
v -0.105683 0.094608 -1.266037
v -0.101944 0.009698 -1.248018
v -0.107208 0.111605 -1.264163
v -0.064398 0.121005 -1.186894
v -0.072446 -0.075213 -1.182916
v -0.023122 0.094608 -1.218459
v -0.036143 0.009698 -1.205898
v -0.024995 0.111605 -1.217795
v -0.363256 0.119501 -1.129136
v -0.313133 -0.128346 -1.131566
v -0.084594 0.112111 0.701986
v -0.117756 0.112111 1.148368
v -0.142749 -0.071899 1.148368
v -0.142749 -0.071899 1.148368
v -0.142749 -0.071899 1.148368
v -0.109587 -0.071899 1.148368
v -0.040703 -0.064195 0.701986
v -0.040703 -0.064195 -0.004064
v -0.109587 -0.071899 0.701986
v -0.109587 -0.071899 0.701986
v -0.109587 -0.071899 0.701986
v -0.109587 -0.071899 0.701986
v -0.109587 -0.071899 -0.004064
v -0.109587 -0.071899 -0.004064
v -0.006482 0.105022 0.701986
v -0.006482 0.105022 -0.004064
v -0.084594 0.112111 -0.004064
v -0.073866 -0.064195 1.148368
v -0.039644 0.105022 1.148368
v -0.109587 -0.071899 0.701986
v -0.109587 -0.071899 0.701986
v -0.356375 0.111605 1.286453
v -0.363256 0.119501 1.236383
v -0.363256 0.119501 1.236383
v -0.064398 0.121005 1.186894
v -0.064398 0.121005 1.186894
v -0.066414 0.121005 1.134373
v -0.066414 0.121005 1.134373
v -0.032488 0.009698 1.134352
v -0.066806 -0.075213 1.134373
v -0.174036 -0.100656 1.235991
v -0.313133 -0.128346 1.235991
v -0.313133 -0.128346 1.235991
v -0.332626 0.009698 1.270308
v -0.349495 0.094608 1.288328
v -0.016343 0.111605 1.134342
v -0.014469 0.094608 1.134341
v -0.196178 0.121005 1.236383
v -0.097623 -0.080780 1.213700
v -0.108734 0.121005 1.214092
v -0.072446 -0.075213 1.182916
v -0.024995 0.111605 1.217795
v -0.023122 0.094608 1.218459
v -0.036143 0.009698 1.205898
v -0.363256 0.119501 1.129136
v -0.363256 0.119501 1.129136
v -0.313133 -0.128346 1.131566
v -0.313133 -0.128346 1.131566
v -0.084594 0.112111 -0.701986
v -0.117756 0.112111 -1.148368
v -0.142749 -0.071899 -1.148368
v -0.142749 -0.071899 -1.148368
v -0.142749 -0.071899 -1.148368
v -0.109587 -0.071899 -1.148368
v -0.040703 -0.064195 -0.701986
v -0.040703 -0.064195 0.004064
v -0.109587 -0.071899 -0.701986
v -0.109587 -0.071899 -0.701986
v -0.109587 -0.071899 -0.701986
v -0.109587 -0.071899 -0.701986
v -0.109587 -0.071899 0.004064
v -0.109587 -0.071899 0.004064
v -0.006482 0.105022 -0.701986
v -0.006482 0.105022 0.004064
v -0.084594 0.112111 0.004064
v -0.073866 -0.064195 -1.148368
v -0.039644 0.105022 -1.148368
v -0.109587 -0.071899 -0.701986
v -0.109587 -0.071899 -0.701986
v -0.356375 0.111605 -1.286453
v -0.363256 0.119501 -1.236383
v -0.363256 0.119501 -1.236383
v -0.064398 0.121005 -1.186894
v -0.064398 0.121005 -1.186894
v -0.066414 0.121005 -1.134373
v -0.066414 0.121005 -1.134373
v -0.032488 0.009698 -1.134352
v -0.066806 -0.075213 -1.134373
v -0.174036 -0.100656 -1.235991
v -0.313133 -0.128346 -1.235991
v -0.313133 -0.128346 -1.235991
v -0.332626 0.009698 -1.270308
v -0.349495 0.094608 -1.288328
v -0.016343 0.111605 -1.134342
v -0.014469 0.094608 -1.134341
v -0.196178 0.121005 -1.236383
v -0.097623 -0.080780 -1.213700
v -0.108734 0.121005 -1.214092
v -0.072446 -0.075213 -1.182916
v -0.024995 0.111605 -1.217795
v -0.023122 0.094608 -1.218459
v -0.036143 0.009698 -1.205898
v -0.363256 0.119501 -1.129136
v -0.363256 0.119501 -1.129136
v -0.313133 -0.128346 -1.131566
v -0.313133 -0.128346 -1.131566
vn 0.0000 0.0000 1.0000
vn 0.5843 0.8112 0.0221
vn 0.9291 0.3681 0.0341
vn 0.9280 0.3725 0.0000
vn 0.5845 0.8114 0.0000
vn 0.8690 -0.4938 0.0321
vn 0.8675 -0.4973 0.0000
vn 0.6538 -0.7562 0.0247
vn 0.6540 -0.7565 0.0000
vn 0.1111 -0.9938 0.0040
vn 0.1111 -0.9938 0.0042
vn 0.1111 -0.9938 0.0000
vn 0.0904 0.9959 0.0034
vn 0.0904 0.9959 0.0033
vn 0.0904 0.9959 0.0000
vn 0.0904 0.9959 0.0067
vn 0.1111 -0.9937 0.0082
vn 0.8618 -0.5031 0.0640
vn 0.6532 -0.7556 0.0485
vn 0.9221 0.3806 0.0685
vn 0.5839 0.8106 0.0434
vn 0.0000 1.0000 0.0000
vn 0.9578 -0.2774 0.0750
vn 0.5617 -0.8269 0.0276
vn 0.6550 -0.7546 0.0379
vn 0.9545 -0.2887 0.0747
vn 0.8325 0.5481 0.0807
vn 0.9953 -0.0322 0.0912
vn 0.9952 -0.0368 0.0908
vn 0.7536 0.6534 0.0713
vn 0.2023 0.9792 0.0099
vn -0.0045 0.9853 0.1706
vn -0.0033 0.7759 0.6308
vn 0.0854 0.6646 0.7422
vn 0.0222 0.9840 0.1767
vn 0.0000 -0.0219 0.9998
vn 0.0113 -0.2328 0.9724
vn 0.1449 -0.2375 0.9605
vn 0.1314 -0.0358 0.9907
vn 0.0252 -0.2636 0.9643
vn 0.1534 -0.2795 0.9478
vn 0.2788 0.6604 0.6972
vn 0.0804 0.9807 0.1784
vn 0.4167 -0.2509 0.8737
vn 0.3818 -0.0283 0.9238
vn 0.4586 -0.3246 0.8272
vn 0.4031 0.5832 0.7052
vn 0.1021 0.9791 0.1757
vn 0.5541 -0.2572 0.7917
vn 0.5061 -0.0341 0.8618
vn 0.5996 -0.3452 0.7219
vn -0.0055 1.0000 -0.0034
vn 0.2129 -0.9770 -0.0074
vn 0.0137 -0.0034 -0.9999
vn -0.9909 0.1346 0.0000
vn -0.9902 0.1345 -0.0368
vn -0.9902 0.1345 -0.0366
vn -0.9882 0.1342 -0.0734
vn -0.9784 -0.2024 0.0426
vn 0.0000 -1.0000 0.0000
vn 0.5843 0.8112 -0.0221
vn 0.9291 0.3681 -0.0341
vn 0.8690 -0.4938 -0.0321
vn 0.6538 -0.7562 -0.0247
vn 0.1111 -0.9938 -0.0040
vn 0.1111 -0.9938 -0.0042
vn 0.0904 0.9959 -0.0034
vn 0.0904 0.9959 -0.0033
vn 0.0904 0.9959 -0.0067
vn 0.1111 -0.9937 -0.0082
vn 0.8618 -0.5031 -0.0640
vn 0.6532 -0.7556 -0.0485
vn 0.9221 0.3806 -0.0685
vn 0.5839 0.8106 -0.0434
vn 0.9578 -0.2774 -0.0750
vn 0.9545 -0.2887 -0.0747
vn 0.6550 -0.7546 -0.0379
vn 0.5617 -0.8269 -0.0276
vn 0.8325 0.5481 -0.0807
vn 0.7536 0.6534 -0.0713
vn 0.9952 -0.0368 -0.0908
vn 0.9953 -0.0322 -0.0912
vn 0.2023 0.9792 -0.0099
vn -0.0045 0.9853 -0.1706
vn 0.0222 0.9840 -0.1767
vn 0.0854 0.6646 -0.7422
vn -0.0033 0.7759 -0.6308
vn 0.0000 -0.0219 -0.9998
vn 0.1314 -0.0358 -0.9907
vn 0.1449 -0.2375 -0.9605
vn 0.0113 -0.2328 -0.9724
vn 0.1534 -0.2795 -0.9478
vn 0.0252 -0.2636 -0.9643
vn 0.0804 0.9807 -0.1784
vn 0.2788 0.6604 -0.6972
vn 0.3818 -0.0283 -0.9238
vn 0.4167 -0.2509 -0.8737
vn 0.4586 -0.3246 -0.8272
vn 0.1021 0.9791 -0.1757
vn 0.4031 0.5832 -0.7052
vn 0.5061 -0.0341 -0.8618
vn 0.5541 -0.2572 -0.7917
vn 0.5996 -0.3452 -0.7219
vn -0.0055 1.0000 0.0034
vn 0.2129 -0.9770 0.0074
vn 0.0137 -0.0034 0.9999
vn -0.9902 0.1345 0.0366
vn -0.9902 0.1345 0.0368
vn -0.9882 0.1342 0.0734
vn -0.9784 -0.2024 -0.0426
usemtl None
s 1
f 20//1 116//1 4//1 109//1
f 111//2 17//3 8//4 13//5
f 17//3 18//6 7//7 8//4
f 18//6 103//8 104//9 7//7
f 19//10 105//11 110//12 10//12
f 97//13 21//14 112//15 113//15
f 98//16 14//16 21//14 97//13
f 9//17 100//17 105//11 19//10
f 6//18 114//19 103//8 18//6
f 5//20 6//18 18//6 17//3
f 115//21 5//20 17//3 111//2
f 99//22 102//22 117//22 106//22
f 45//23 43//24 126//25 125//26
f 46//27 44//28 133//29 132//30
f 44//28 45//23 125//26 133//29
f 121//31 46//27 132//30 123//31
f 119//32 118//33 36//34 134//35
f 131//36 130//37 35//38 34//39
f 118//33 131//36 34//39 36//34
f 130//37 128//40 127//41 35//38
f 134//35 36//34 41//42 136//43
f 34//39 35//38 40//44 39//45
f 36//34 34//39 39//45 41//42
f 35//38 127//41 135//46 40//44
f 136//43 41//42 138//47 122//48
f 39//45 40//44 140//49 139//50
f 41//42 39//45 139//50 138//47
f 40//44 135//46 137//51 140//49
f 42//52 124//52 141//52 120//52 32//52 37//52
f 33//53 129//53 143//53 126//25 43//24 38//53
f 29//54 25//54 144//54 142//54 23//54 31//54 28//54
f 3//55 12//55 107//56 15//57
f 15//57 107//56 101//58 1//58
f 30//59 22//59 47//59 48//59 24//59 26//59 27//59
f 2//60 11//60 16//60 108//60
f 68//1 157//1 52//1 164//1
f 159//61 61//5 56//4 65//62
f 65//62 56//4 55//7 66//63
f 66//63 55//7 152//9 151//64
f 67//65 58//12 158//12 153//66
f 145//67 161//15 160//15 69//68
f 146//69 145//67 69//68 62//69
f 57//70 67//65 153//66 148//70
f 54//71 66//63 151//64 162//72
f 53//73 65//62 66//63 54//71
f 163//74 159//61 65//62 53//73
f 147//22 154//22 165//22 150//22
f 93//75 173//76 174//77 91//78
f 94//79 180//80 181//81 92//82
f 92//82 181//81 173//76 93//75
f 169//83 171//83 180//80 94//79
f 167//84 182//85 84//86 166//87
f 179//88 82//89 83//90 178//91
f 166//87 84//86 82//89 179//88
f 178//91 83//90 175//92 176//93
f 182//85 184//94 89//95 84//86
f 82//89 87//96 88//97 83//90
f 84//86 89//95 87//96 82//89
f 83//90 88//97 183//98 175//92
f 184//94 170//99 186//100 89//95
f 87//96 187//101 188//102 88//97
f 89//95 186//100 187//101 87//96
f 88//97 188//102 185//103 183//98
f 90//104 85//104 80//104 168//104 189//104 172//104
f 81//105 86//105 91//78 174//77 191//105 177//105
f 77//106 76//106 79//106 71//106 190//106 192//106 73//106
f 51//55 63//107 155//108 60//55
f 63//107 49//109 149//109 155//108
f 78//110 75//110 74//110 72//110 96//110 95//110 70//110
f 50//60 156//60 64//60 59//60
