# Blender v2.79 (sub 0) OBJ File: 'bumper_offroad_3.blend'
# www.blender.org
mtllib bumper_offroad_3.mtl
o Plane_Plane.001
v 0.025039 -0.017394 0.553988
v 0.006507 -0.050135 0.553988
v 0.061313 -0.081045 0.553988
v 0.080048 -0.050135 0.553988
v 0.025039 -0.081045 0.553988
v 0.061313 -0.017394 0.553988
v -0.017750 -0.050135 1.040243
v 0.000360 -0.017394 1.044178
v 0.012945 -0.017394 0.825250
v -0.005555 -0.050135 0.824168
v 0.049158 -0.081045 0.827368
v 0.067861 -0.050135 0.828462
v 0.012945 -0.081045 0.825250
v 0.049158 -0.017394 0.827368
v -0.047924 -0.050135 1.179142
v -0.029815 -0.017394 1.183076
v 0.035807 -0.081045 1.051878
v 0.054115 -0.050135 1.055855
v 0.000360 -0.081045 1.044178
v 0.035807 -0.017394 1.051878
v 0.005633 -0.081045 1.190776
v 0.023941 -0.050135 1.194754
v -0.029815 -0.081045 1.183076
v 0.005633 -0.017394 1.190776
v -0.086120 -0.050135 1.220043
v -0.084971 -0.017394 1.238539
v -0.056968 -0.017394 1.227276
v -0.067620 -0.050135 1.212112
v -0.036119 -0.081045 1.256960
v -0.025351 -0.050135 1.272292
v -0.056968 -0.081045 1.227276
v -0.036119 -0.017394 1.256960
v -0.159063 -0.050135 1.223600
v -0.157914 -0.017394 1.242096
v -0.082722 -0.081045 1.274744
v -0.081560 -0.050135 1.293442
v -0.084971 -0.081045 1.238539
v -0.082722 -0.017394 1.274744
v -0.155665 -0.081045 1.278300
v -0.154503 -0.050135 1.296999
v -0.157914 -0.081045 1.242096
v -0.155665 -0.017394 1.278300
v -0.157914 -0.050135 1.242096
v -0.155665 -0.050135 1.278300
v 0.025039 0.084829 0.553988
v 0.006507 0.052088 0.553988
v 0.061313 0.021178 0.553988
v 0.080048 0.052088 0.553988
v 0.025039 0.021178 0.553988
v 0.061313 0.084829 0.553988
v -0.017750 0.052088 1.040243
v 0.000360 0.084829 1.044178
v 0.012945 0.084829 0.825250
v -0.005555 0.052088 0.824168
v 0.049158 0.021178 0.827368
v 0.067861 0.052088 0.828462
v 0.012945 0.021178 0.825250
v 0.049158 0.084829 0.827368
v -0.047924 0.052088 1.179142
v -0.029815 0.084829 1.183076
v 0.035807 0.021178 1.051878
v 0.054115 0.052088 1.055855
v 0.000360 0.021178 1.044178
v 0.035807 0.084829 1.051878
v 0.005633 0.021178 1.190776
v 0.023941 0.052088 1.194754
v -0.029815 0.021178 1.183076
v 0.005633 0.084829 1.190776
v -0.086120 0.052088 1.220043
v -0.084971 0.084829 1.238539
v -0.056968 0.084829 1.227276
v -0.067620 0.052088 1.212112
v -0.036119 0.021178 1.256960
v -0.025351 0.052088 1.272292
v -0.056968 0.021178 1.227276
v -0.036119 0.084829 1.256960
v -0.159063 0.052088 1.223600
v -0.157914 0.084829 1.242096
v -0.082722 0.021178 1.274744
v -0.081560 0.052088 1.293442
v -0.084971 0.021178 1.238539
v -0.082722 0.084829 1.274744
v -0.155665 0.021178 1.278300
v -0.154503 0.052088 1.296999
v -0.157914 0.021178 1.242096
v -0.155665 0.084829 1.278300
v -0.157914 0.052088 1.242096
v -0.155665 0.052088 1.278300
v 0.008843 -0.029528 1.000968
v 0.029748 -0.029528 1.000968
v 0.029748 -0.029528 0.964285
v 0.008843 -0.029528 0.964285
v -0.001837 -0.029528 0.983154
v 0.040545 -0.029528 0.983154
v 0.008843 -0.029528 0.983154
v 0.029748 -0.029528 0.983154
v 0.008843 0.042049 0.964285
v -0.001837 0.042049 0.983154
v 0.029748 0.042049 1.000968
v 0.040545 0.042049 0.983154
v 0.008843 0.042049 1.000968
v 0.029748 0.042049 0.964285
v 0.008843 0.042049 0.983154
v 0.029748 0.042049 0.983154
v 0.025039 -0.081045 0.000069
v 0.061313 -0.081045 0.000069
v 0.061313 -0.017394 0.000069
v 0.025039 -0.017394 0.000069
v 0.006507 -0.050135 0.000069
v 0.080048 -0.050135 0.000069
v 0.025039 -0.050135 0.000069
v 0.061313 -0.050135 0.000069
v 0.025039 -0.017394 -0.553850
v 0.006507 -0.050135 -0.553850
v 0.061313 -0.081045 -0.553850
v 0.080048 -0.050135 -0.553850
v 0.025039 -0.081045 -0.553850
v 0.061313 -0.017394 -0.553850
v -0.017750 -0.050135 -1.040106
v 0.000360 -0.017394 -1.044040
v 0.012945 -0.017394 -0.825113
v -0.005555 -0.050135 -0.824031
v 0.049158 -0.081045 -0.827231
v 0.067861 -0.050135 -0.828325
v 0.012945 -0.081045 -0.825113
v 0.049158 -0.017394 -0.827231
v -0.047924 -0.050135 -1.179005
v -0.029815 -0.017394 -1.182939
v 0.035807 -0.081045 -1.051741
v 0.054115 -0.050135 -1.055718
v 0.000360 -0.081045 -1.044040
v 0.035807 -0.017394 -1.051741
v 0.005633 -0.081045 -1.190639
v 0.023941 -0.050135 -1.194616
v -0.029815 -0.081045 -1.182939
v 0.005633 -0.017394 -1.190639
v -0.086120 -0.050135 -1.219906
v -0.084971 -0.017394 -1.238402
v -0.056968 -0.017394 -1.227139
v -0.067620 -0.050135 -1.211974
v -0.036119 -0.081045 -1.256823
v -0.025351 -0.050135 -1.272154
v -0.056968 -0.081045 -1.227139
v -0.036119 -0.017394 -1.256823
v -0.159063 -0.050135 -1.223463
v -0.157914 -0.017394 -1.241958
v -0.082722 -0.081045 -1.274606
v -0.081560 -0.050135 -1.293305
v -0.084971 -0.081045 -1.238402
v -0.082722 -0.017394 -1.274606
v -0.155665 -0.081045 -1.278163
v -0.154503 -0.050135 -1.296862
v -0.157914 -0.081045 -1.241958
v -0.155665 -0.017394 -1.278163
v -0.157914 -0.050135 -1.241958
v -0.155665 -0.050135 -1.278163
v 0.025039 0.021178 0.000069
v 0.061313 0.021178 0.000069
v 0.061313 0.084829 0.000069
v 0.025039 0.084829 0.000069
v 0.006507 0.052088 0.000069
v 0.080048 0.052088 0.000069
v 0.025039 0.052088 0.000069
v 0.061313 0.052088 0.000069
v 0.025039 0.084829 -0.553850
v 0.006507 0.052088 -0.553850
v 0.061313 0.021178 -0.553850
v 0.080048 0.052088 -0.553850
v 0.025039 0.021178 -0.553850
v 0.061313 0.084829 -0.553850
v -0.017750 0.052088 -1.040106
v 0.000360 0.084829 -1.044040
v 0.012945 0.084829 -0.825113
v -0.005555 0.052088 -0.824031
v 0.049158 0.021178 -0.827231
v 0.067861 0.052088 -0.828325
v 0.012945 0.021178 -0.825113
v 0.049158 0.084829 -0.827231
v -0.047924 0.052088 -1.179005
v -0.029815 0.084829 -1.182939
v 0.035807 0.021178 -1.051741
v 0.054115 0.052088 -1.055718
v 0.000360 0.021178 -1.044040
v 0.035807 0.084829 -1.051741
v 0.005633 0.021178 -1.190639
v 0.023941 0.052088 -1.194616
v -0.029815 0.021178 -1.182939
v 0.005633 0.084829 -1.190639
v -0.086120 0.052088 -1.219906
v -0.084971 0.084829 -1.238402
v -0.056968 0.084829 -1.227139
v -0.067620 0.052088 -1.211974
v -0.036119 0.021178 -1.256823
v -0.025351 0.052088 -1.272154
v -0.056968 0.021178 -1.227139
v -0.036119 0.084829 -1.256823
v -0.159063 0.052088 -1.223463
v -0.157914 0.084829 -1.241958
v -0.082722 0.021178 -1.274606
v -0.081560 0.052088 -1.293305
v -0.084971 0.021178 -1.238402
v -0.082722 0.084829 -1.274606
v -0.155665 0.021178 -1.278163
v -0.154503 0.052088 -1.296862
v -0.157914 0.021178 -1.241958
v -0.155665 0.084829 -1.278163
v -0.157914 0.052088 -1.241958
v -0.155665 0.052088 -1.278163
v 0.008843 -0.029528 -1.000830
v 0.029748 -0.029528 -1.000830
v 0.029748 -0.029528 -0.964148
v 0.008843 -0.029528 -0.964148
v -0.001837 -0.029528 -0.983017
v 0.040545 -0.029528 -0.983017
v 0.008843 -0.029528 -0.983017
v 0.029748 -0.029528 -0.983017
v 0.008843 0.042049 -0.964148
v -0.001837 0.042049 -0.983017
v 0.029748 0.042049 -1.000830
v 0.040545 0.042049 -0.983017
v 0.008843 0.042049 -1.000830
v 0.029748 0.042049 -0.964148
v 0.008843 0.042049 -0.983017
v 0.029748 0.042049 -0.983017
v 0.025039 -0.017394 0.000069
v 0.025039 -0.017394 0.000069
v 0.006507 -0.050135 0.000069
v 0.006507 -0.050135 0.000069
v 0.061313 -0.081045 0.000069
v 0.061313 -0.081045 0.000069
v 0.080048 -0.050135 0.000069
v 0.080048 -0.050135 0.000069
v 0.025039 -0.081045 0.000069
v 0.025039 -0.081045 0.000069
v 0.061313 -0.017394 0.000069
v 0.061313 -0.017394 0.000069
v -0.157914 -0.017394 1.242096
v -0.159063 -0.050135 1.223600
v -0.155665 -0.081045 1.278300
v -0.154503 -0.050135 1.296999
v -0.157914 -0.081045 1.242096
v -0.155665 -0.017394 1.278300
v 0.025039 0.084829 0.000069
v 0.025039 0.084829 0.000069
v 0.006507 0.052088 0.000069
v 0.006507 0.052088 0.000069
v 0.061313 0.021178 0.000069
v 0.061313 0.021178 0.000069
v 0.080048 0.052088 0.000069
v 0.080048 0.052088 0.000069
v 0.025039 0.021178 0.000069
v 0.025039 0.021178 0.000069
v 0.061313 0.084829 0.000069
v 0.061313 0.084829 0.000069
v -0.157914 0.084829 1.242096
v -0.159063 0.052088 1.223600
v -0.155665 0.021178 1.278300
v -0.154503 0.052088 1.296999
v -0.157914 0.021178 1.242096
v -0.155665 0.084829 1.278300
v 0.008843 -0.029528 0.964285
v -0.001837 -0.029528 0.983154
v 0.029748 -0.029528 1.000968
v 0.040545 -0.029528 0.983154
v 0.008843 -0.029528 1.000968
v 0.029748 -0.029528 0.964285
v 0.008843 0.042049 0.964285
v -0.001837 0.042049 0.983154
v 0.029748 0.042049 1.000968
v 0.040545 0.042049 0.983154
v 0.008843 0.042049 1.000968
v 0.029748 0.042049 0.964285
v -0.157914 -0.017394 -1.241958
v -0.159063 -0.050135 -1.223463
v -0.155665 -0.081045 -1.278163
v -0.154503 -0.050135 -1.296862
v -0.157914 -0.081045 -1.241958
v -0.155665 -0.017394 -1.278163
v -0.157914 0.084829 -1.241958
v -0.159063 0.052088 -1.223463
v -0.155665 0.021178 -1.278163
v -0.154503 0.052088 -1.296862
v -0.157914 0.021178 -1.241958
v -0.155665 0.084829 -1.278163
v 0.008843 -0.029528 -0.964148
v -0.001837 -0.029528 -0.983017
v 0.029748 -0.029528 -1.000830
v 0.040545 -0.029528 -0.983017
v 0.008843 -0.029528 -1.000830
v 0.029748 -0.029528 -0.964148
v 0.008843 0.042049 -0.964148
v -0.001837 0.042049 -0.983017
v 0.029748 0.042049 -1.000830
v 0.040545 0.042049 -0.983017
v 0.008843 0.042049 -1.000830
v 0.029748 0.042049 -0.964148
vn 0.4958 -0.8683 0.0111
vn 0.9997 -0.0125 0.0220
vn 0.9985 -0.0125 0.0521
vn 0.4924 -0.8699 0.0257
vn 0.5068 0.8620 0.0113
vn 0.5033 0.8636 0.0262
vn -0.9997 -0.0126 -0.0224
vn -0.4874 -0.8731 -0.0108
vn -0.4913 -0.8706 -0.0249
vn -0.9986 -0.0125 -0.0507
vn -0.4982 0.8670 -0.0110
vn -0.5021 0.8644 -0.0255
vn 0.5017 0.8650 0.0000
vn -0.5037 0.8639 0.0000
vn -0.4928 -0.8701 0.0000
vn 0.4907 -0.8713 0.0000
vn -0.9999 -0.0125 0.0000
vn 0.9999 -0.0126 0.0000
vn 0.5040 -0.8610 0.0684
vn -0.4693 -0.8806 -0.0649
vn -0.4799 0.8748 -0.0663
vn 0.5149 0.8543 0.0699
vn 0.9903 -0.0123 0.1383
vn -0.9910 -0.0128 -0.1330
vn 0.9285 -0.0118 0.3712
vn 0.4919 -0.8453 0.2082
vn 0.5021 0.8383 0.2122
vn -0.9250 -0.0130 -0.3796
vn -0.4330 0.8854 -0.1689
vn -0.4234 -0.8908 -0.1650
vn 0.6266 -0.0114 0.7792
vn 0.3575 -0.8285 0.4310
vn 0.3645 0.8209 0.4397
vn -0.2645 -0.9117 -0.3144
vn -0.6588 -0.0139 -0.7522
vn -0.2709 0.9072 -0.3218
vn 0.1972 -0.0120 0.9803
vn 0.1117 -0.8493 0.5160
vn 0.1139 0.8423 0.5268
vn -0.0950 -0.8921 -0.4418
vn -0.2274 -0.0132 -0.9737
vn -0.0974 0.8867 -0.4519
vn 0.0237 -0.8730 0.4870
vn -0.0241 -0.8683 -0.4954
vn -0.0487 -0.0125 -0.9987
vn -0.0247 0.8620 -0.5063
vn 0.0243 0.8669 0.4979
vn 0.0487 -0.0126 0.9987
vn -0.9980 0.0000 0.0620
vn 0.0000 -1.0000 0.0000
vn 0.0000 1.0000 0.0000
vn 0.4907 0.0000 0.8713
vn 0.9999 0.0000 0.0126
vn 0.5017 0.0000 -0.8650
vn -0.5037 0.0000 -0.8639
vn -0.4928 0.0000 0.8701
vn -0.9999 0.0000 0.0125
vn 0.0000 0.0000 1.0000
vn 0.4958 -0.8683 -0.0111
vn 0.4924 -0.8699 -0.0257
vn 0.9985 -0.0125 -0.0521
vn 0.9997 -0.0125 -0.0220
vn 0.5033 0.8636 -0.0262
vn 0.5068 0.8620 -0.0113
vn -0.9997 -0.0126 0.0224
vn -0.9986 -0.0125 0.0507
vn -0.4913 -0.8706 0.0249
vn -0.4874 -0.8731 0.0108
vn -0.4982 0.8670 0.0110
vn -0.5021 0.8644 0.0255
vn -0.4693 -0.8806 0.0649
vn 0.5040 -0.8610 -0.0684
vn 0.5149 0.8543 -0.0699
vn -0.4799 0.8748 0.0663
vn 0.9903 -0.0123 -0.1383
vn -0.9910 -0.0128 0.1330
vn 0.4919 -0.8453 -0.2082
vn 0.9285 -0.0118 -0.3712
vn 0.5021 0.8383 -0.2122
vn -0.4330 0.8854 0.1689
vn -0.9250 -0.0130 0.3796
vn -0.4234 -0.8908 0.1650
vn 0.3575 -0.8285 -0.4310
vn 0.6266 -0.0114 -0.7792
vn 0.3645 0.8209 -0.4397
vn -0.6588 -0.0139 0.7522
vn -0.2645 -0.9117 0.3144
vn -0.2709 0.9072 0.3218
vn 0.1117 -0.8493 -0.5160
vn 0.1972 -0.0120 -0.9803
vn 0.1139 0.8423 -0.5268
vn -0.2274 -0.0132 0.9737
vn -0.0950 -0.8921 0.4418
vn -0.0974 0.8867 0.4519
vn -0.0241 -0.8683 0.4954
vn 0.0237 -0.8730 -0.4870
vn -0.0247 0.8620 0.5063
vn -0.0487 -0.0125 0.9987
vn 0.0243 0.8669 -0.4979
vn 0.0487 -0.0126 -0.9987
vn -0.9980 0.0000 -0.0620
vn 0.4907 0.0000 -0.8713
vn 0.9999 0.0000 -0.0126
vn 0.5017 0.0000 0.8650
vn -0.5037 0.0000 0.8639
vn -0.4928 0.0000 -0.8701
vn -0.9999 0.0000 -0.0125
usemtl None
s 1
f 3//1 4//2 12//3 11//4
f 4//2 6//5 14//6 12//3
f 2//7 5//8 13//9 10//10
f 1//11 2//7 10//10 9//12
f 5//8 3//1 11//4 13//9
f 6//5 1//11 9//12 14//6
f 236//13 226//14 1//11 6//5
f 234//15 230//16 3//1 5//8
f 226//14 228//17 2//7 1//11
f 228//17 234//15 5//8 2//7
f 232//18 236//13 6//5 4//2
f 230//16 232//18 4//2 3//1
f 13//9 11//4 17//19 19//20
f 14//6 9//12 8//21 20//22
f 11//4 12//3 18//23 17//19
f 12//3 14//6 20//22 18//23
f 10//10 13//9 19//20 7//24
f 9//12 10//10 7//24 8//21
f 17//19 18//23 22//25 21//26
f 18//23 20//22 24//27 22//25
f 8//21 7//24 15//28 16//29
f 7//24 19//20 23//30 15//28
f 19//20 17//19 21//26 23//30
f 20//22 8//21 16//29 24//27
f 21//26 22//25 30//31 29//32
f 22//25 24//27 32//33 30//31
f 15//28 23//30 31//34 28//35
f 23//30 21//26 29//32 31//34
f 16//29 15//28 28//35 27//36
f 24//27 16//29 27//36 32//33
f 29//32 30//31 36//37 35//38
f 30//31 32//33 38//39 36//37
f 28//35 31//34 37//40 25//41
f 27//36 28//35 25//41 26//42
f 31//34 29//32 35//38 37//40
f 32//33 27//36 26//42 38//39
f 37//40 35//38 239//43 241//44
f 26//42 25//41 238//45 237//46
f 38//39 26//42 237//46 242//47
f 35//38 36//37 240//48 239//43
f 36//37 38//39 242//47 240//48
f 25//41 37//40 241//44 238//45
f 42//49 44//49 40//49
f 34//49 33//49 43//49
f 43//49 44//49 42//49 34//49
f 41//49 39//49 44//49 43//49
f 40//49 44//49 39//49
f 33//49 41//49 43//49
f 47//1 48//2 56//3 55//4
f 48//2 50//5 58//6 56//3
f 46//7 49//8 57//9 54//10
f 45//11 46//7 54//10 53//12
f 49//8 47//1 55//4 57//9
f 50//5 45//11 53//12 58//6
f 254//13 244//14 45//11 50//5
f 252//15 248//16 47//1 49//8
f 244//14 246//17 46//7 45//11
f 246//17 252//15 49//8 46//7
f 250//18 254//13 50//5 48//2
f 248//16 250//18 48//2 47//1
f 57//9 55//4 61//19 63//20
f 58//6 53//12 52//21 64//22
f 55//4 56//3 62//23 61//19
f 56//3 58//6 64//22 62//23
f 54//10 57//9 63//20 51//24
f 53//12 54//10 51//24 52//21
f 61//19 62//23 66//25 65//26
f 62//23 64//22 68//27 66//25
f 52//21 51//24 59//28 60//29
f 51//24 63//20 67//30 59//28
f 63//20 61//19 65//26 67//30
f 64//22 52//21 60//29 68//27
f 65//26 66//25 74//31 73//32
f 66//25 68//27 76//33 74//31
f 59//28 67//30 75//34 72//35
f 67//30 65//26 73//32 75//34
f 60//29 59//28 72//35 71//36
f 68//27 60//29 71//36 76//33
f 73//32 74//31 80//37 79//38
f 74//31 76//33 82//39 80//37
f 72//35 75//34 81//40 69//41
f 71//36 72//35 69//41 70//42
f 75//34 73//32 79//38 81//40
f 76//33 71//36 70//42 82//39
f 81//40 79//38 257//43 259//44
f 70//42 69//41 256//45 255//46
f 82//39 70//42 255//46 260//47
f 79//38 80//37 258//48 257//43
f 80//37 82//39 260//47 258//48
f 69//41 81//40 259//44 256//45
f 86//49 88//49 84//49
f 78//49 77//49 87//49
f 87//49 88//49 86//49 78//49
f 85//49 83//49 88//49 87//49
f 84//49 88//49 83//49
f 77//49 85//49 87//49
f 266//50 264//50 96//50
f 261//50 95//50 262//50
f 95//50 261//50 266//50 96//50
f 265//50 95//50 96//50 263//50
f 264//50 263//50 96//50
f 262//50 95//50 265//50
f 272//51 104//51 270//51
f 267//51 268//51 103//51
f 103//51 104//51 272//51 267//51
f 271//51 269//51 104//51 103//51
f 270//51 104//51 269//51
f 268//51 271//51 103//51
f 90//52 94//53 100//53 99//52
f 91//54 92//55 97//55 102//54
f 89//56 90//52 99//52 101//56
f 92//55 93//57 98//57 97//55
f 93//57 89//56 101//56 98//57
f 94//53 91//54 102//54 100//53
f 235//58 112//58 231//58
f 225//58 227//58 111//58
f 111//58 112//58 235//58 225//58
f 233//58 229//58 112//58 111//58
f 231//58 112//58 229//58
f 227//58 233//58 111//58
f 115//59 123//60 124//61 116//62
f 116//62 124//61 126//63 118//64
f 114//65 122//66 125//67 117//68
f 113//69 121//70 122//66 114//65
f 117//68 125//67 123//60 115//59
f 118//64 126//63 121//70 113//69
f 107//13 118//64 113//69 108//14
f 105//15 117//68 115//59 106//16
f 108//14 113//69 114//65 109//17
f 109//17 114//65 117//68 105//15
f 110//18 116//62 118//64 107//13
f 106//16 115//59 116//62 110//18
f 125//67 131//71 129//72 123//60
f 126//63 132//73 120//74 121//70
f 123//60 129//72 130//75 124//61
f 124//61 130//75 132//73 126//63
f 122//66 119//76 131//71 125//67
f 121//70 120//74 119//76 122//66
f 129//72 133//77 134//78 130//75
f 130//75 134//78 136//79 132//73
f 120//74 128//80 127//81 119//76
f 119//76 127//81 135//82 131//71
f 131//71 135//82 133//77 129//72
f 132//73 136//79 128//80 120//74
f 133//77 141//83 142//84 134//78
f 134//78 142//84 144//85 136//79
f 127//81 140//86 143//87 135//82
f 135//82 143//87 141//83 133//77
f 128//80 139//88 140//86 127//81
f 136//79 144//85 139//88 128//80
f 141//83 147//89 148//90 142//84
f 142//84 148//90 150//91 144//85
f 140//86 137//92 149//93 143//87
f 139//88 138//94 137//92 140//86
f 143//87 149//93 147//89 141//83
f 144//85 150//91 138//94 139//88
f 149//93 277//95 275//96 147//89
f 138//94 273//97 274//98 137//92
f 150//91 278//99 273//97 138//94
f 147//89 275//96 276//100 148//90
f 148//90 276//100 278//99 150//91
f 137//92 274//98 277//95 149//93
f 154//101 152//101 156//101
f 146//101 155//101 145//101
f 155//101 146//101 154//101 156//101
f 153//101 155//101 156//101 151//101
f 152//101 151//101 156//101
f 145//101 155//101 153//101
f 253//58 164//58 249//58
f 243//58 245//58 163//58
f 163//58 164//58 253//58 243//58
f 251//58 247//58 164//58 163//58
f 249//58 164//58 247//58
f 245//58 251//58 163//58
f 167//59 175//60 176//61 168//62
f 168//62 176//61 178//63 170//64
f 166//65 174//66 177//67 169//68
f 165//69 173//70 174//66 166//65
f 169//68 177//67 175//60 167//59
f 170//64 178//63 173//70 165//69
f 159//13 170//64 165//69 160//14
f 157//15 169//68 167//59 158//16
f 160//14 165//69 166//65 161//17
f 161//17 166//65 169//68 157//15
f 162//18 168//62 170//64 159//13
f 158//16 167//59 168//62 162//18
f 177//67 183//71 181//72 175//60
f 178//63 184//73 172//74 173//70
f 175//60 181//72 182//75 176//61
f 176//61 182//75 184//73 178//63
f 174//66 171//76 183//71 177//67
f 173//70 172//74 171//76 174//66
f 181//72 185//77 186//78 182//75
f 182//75 186//78 188//79 184//73
f 172//74 180//80 179//81 171//76
f 171//76 179//81 187//82 183//71
f 183//71 187//82 185//77 181//72
f 184//73 188//79 180//80 172//74
f 185//77 193//83 194//84 186//78
f 186//78 194//84 196//85 188//79
f 179//81 192//86 195//87 187//82
f 187//82 195//87 193//83 185//77
f 180//80 191//88 192//86 179//81
f 188//79 196//85 191//88 180//80
f 193//83 199//89 200//90 194//84
f 194//84 200//90 202//91 196//85
f 192//86 189//92 201//93 195//87
f 191//88 190//94 189//92 192//86
f 195//87 201//93 199//89 193//83
f 196//85 202//91 190//94 191//88
f 201//93 283//95 281//96 199//89
f 190//94 279//97 280//98 189//92
f 202//91 284//99 279//97 190//94
f 199//89 281//96 282//100 200//90
f 200//90 282//100 284//99 202//91
f 189//92 280//98 283//95 201//93
f 206//101 204//101 208//101
f 198//101 207//101 197//101
f 207//101 198//101 206//101 208//101
f 205//101 207//101 208//101 203//101
f 204//101 203//101 208//101
f 197//101 207//101 205//101
f 290//50 216//50 288//50
f 285//50 286//50 215//50
f 215//50 216//50 290//50 285//50
f 289//50 287//50 216//50 215//50
f 288//50 216//50 287//50
f 286//50 289//50 215//50
f 296//51 294//51 224//51
f 291//51 223//51 292//51
f 223//51 291//51 296//51 224//51
f 295//51 223//51 224//51 293//51
f 294//51 293//51 224//51
f 292//51 223//51 295//51
f 210//102 219//102 220//103 214//103
f 211//104 222//104 217//105 212//105
f 209//106 221//106 219//102 210//102
f 212//105 217//105 218//107 213//107
f 213//107 218//107 221//106 209//106
f 214//103 220//103 222//104 211//104
