# Blender v2.79 (sub 0) OBJ File: 'exhaust_2.blend'
# www.blender.org
mtllib exhaust_2.mtl
o Muffler_Plane.001
v -0.003420 0.016842 0.089654
v -0.003420 -0.017541 0.089654
v -0.003420 0.016059 -0.086866
v -0.003420 -0.016915 -0.086866
v -0.003420 0.042193 -0.053374
v -0.003420 0.052052 0.000977
v -0.003420 0.042349 0.055050
v -0.003420 -0.043362 0.055050
v -0.003420 -0.052751 0.000977
v -0.003420 -0.042579 -0.053374
v 0.285447 0.042349 0.055050
v 0.285447 0.016842 0.089654
v 0.285447 -0.017541 0.089654
v 0.285447 -0.042579 -0.053374
v 0.285447 -0.016915 -0.086866
v 0.285447 0.016059 -0.086866
v 0.285447 0.042193 -0.053374
v 0.285447 0.052052 0.000977
v 0.285447 -0.043362 0.055050
v 0.285447 -0.052751 0.000977
v 0.306390 0.102070 0.130494
v 0.306390 0.040899 0.213481
v 0.306390 -0.041554 0.213481
v 0.306390 -0.101600 -0.129518
v 0.306390 -0.040053 -0.209837
v 0.306390 0.039022 -0.209837
v 0.306390 0.101695 -0.129518
v 0.306390 0.125338 0.000822
v 0.306390 -0.103476 0.130494
v 0.306390 -0.125993 0.000822
v 1.031523 0.102070 0.130494
v 1.031523 0.040899 0.213481
v 1.031523 -0.041555 0.213481
v 1.031523 -0.101600 -0.129518
v 1.031523 -0.040053 -0.209837
v 1.031523 0.039022 -0.209837
v 1.031523 0.101695 -0.129518
v 1.031523 0.125337 0.000822
v 1.031523 -0.103476 0.130494
v 1.031523 -0.125993 0.000822
v 1.052537 0.049127 0.063612
v 1.052537 0.019572 0.103707
v 1.052537 -0.020266 0.103707
v 1.052537 -0.049277 -0.062015
v 1.052537 -0.019541 -0.100822
v 1.052537 0.018665 -0.100822
v 1.052537 0.048946 -0.062015
v 1.052537 0.060369 0.000959
v 1.052537 -0.050184 0.063612
v 1.052537 -0.061063 0.000959
v -0.003420 0.042349 0.055050
v -0.003420 0.016842 0.089654
v -0.003420 -0.017541 0.089654
v -0.003420 -0.042579 -0.053374
v -0.003420 -0.016915 -0.086866
v -0.003420 0.016059 -0.086866
v -0.003420 0.042193 -0.053374
v -0.003420 0.052052 0.000977
v -0.003420 -0.043362 0.055050
v -0.003420 -0.052751 0.000977
v 0.285447 0.042349 0.055050
v 0.285447 0.016842 0.089654
v 0.285447 -0.017541 0.089654
v 0.285447 -0.042579 -0.053374
v 0.285447 -0.016915 -0.086866
v 0.285447 0.016059 -0.086866
v 0.285447 0.042193 -0.053374
v 0.285447 0.052052 0.000977
v 0.285447 -0.043362 0.055050
v 0.285447 -0.052751 0.000977
v 0.306390 0.102070 0.130494
v 0.306390 0.040899 0.213481
v 0.306390 -0.041554 0.213481
v 0.306390 -0.101600 -0.129518
v 0.306390 -0.040053 -0.209837
v 0.306390 0.039022 -0.209837
v 0.306390 0.101695 -0.129518
v 0.306390 0.125338 0.000822
v 0.306390 -0.103476 0.130494
v 0.306390 -0.125993 0.000822
v 1.031523 0.102070 0.130494
v 1.031523 0.040899 0.213481
v 1.031523 -0.041555 0.213481
v 1.031523 -0.101600 -0.129518
v 1.031523 -0.040053 -0.209837
v 1.031523 0.039022 -0.209837
v 1.031523 0.101695 -0.129518
v 1.031523 0.125337 0.000822
v 1.031523 -0.103476 0.130494
v 1.031523 -0.125993 0.000822
vn -1.0000 0.0000 0.0000
vn -0.9839 0.0976 -0.1493
vn -0.9681 0.2370 -0.0810
vn -0.9728 0.2053 -0.1071
vn -0.9856 0.0659 -0.1555
vn -0.9841 -0.0998 0.1471
vn -0.9679 -0.2388 0.0784
vn -0.9726 -0.2078 0.1043
vn -0.9858 -0.0668 0.1538
vn -0.9677 0.2394 0.0791
vn -0.9840 0.1008 0.1468
vn -0.9858 0.0672 0.1537
vn -0.9723 0.2088 0.1046
vn -0.9839 -0.0989 -0.1489
vn -0.9856 -0.0665 -0.1553
vn 0.0000 -1.0000 -0.0065
vn 0.0000 -0.9133 -0.4072
vn 0.0000 1.0000 -0.0009
vn 0.0000 0.9185 0.3953
vn 0.0000 -0.4426 -0.8967
vn 0.0000 0.4386 -0.8986
vn 0.0000 0.4509 0.8925
vn 0.0000 -0.4483 0.8939
vn 0.0000 -0.9185 0.3954
vn 0.0000 0.9127 -0.4087
vn -0.9615 -0.2749 -0.0020
vn -0.9615 -0.2749 -0.0017
vn -0.9615 0.2748 -0.0002
vn -0.9615 0.2748 -0.0003
vn -0.9678 -0.2381 -0.0816
vn -0.9725 -0.2068 -0.1072
vn 0.9655 0.2308 -0.1202
vn 0.9514 0.3077 -0.0003
vn 0.9849 0.1729 -0.0001
vn 0.9866 0.1543 -0.0529
vn 0.9652 -0.2335 0.1172
vn 0.9514 -0.3079 -0.0019
vn 0.9849 -0.1730 -0.0012
vn 0.9866 -0.1549 0.0510
vn 0.9819 0.0758 0.1732
vn 0.9820 -0.0754 0.1733
vn 0.9915 -0.0728 0.1075
vn 0.9915 0.0736 0.1075
vn 0.9817 0.0743 -0.1753
vn 0.9915 0.0708 -0.1086
vn 0.9866 -0.1544 -0.0531
vn 0.9915 -0.0720 -0.1086
vn 0.9866 0.1548 0.0513
vn 0.9651 -0.2323 -0.1204
vn 0.9817 -0.0750 -0.1751
vn 0.9649 0.2346 0.1174
usemtl None
s 1
f 57//1 56//1 55//1 54//1
f 52//1 51//1 59//1 53//1
f 51//1 58//1 60//1 59//1
f 58//1 57//1 54//1 60//1
f 66//2 67//3 77//4 76//5
f 13//6 69//7 79//8 23//9
f 61//10 62//11 72//12 71//13
f 15//14 66//2 76//5 75//15
f 9//16 10//17 64//17 70//16
f 6//18 7//19 11//19 68//18
f 4//20 3//21 16//21 65//20
f 7//19 1//22 12//22 11//19
f 2//23 8//24 19//24 63//23
f 3//21 5//25 17//25 16//21
f 1//22 2//23 63//23 12//22
f 8//24 9//16 70//16 19//24
f 5//25 6//18 68//18 17//25
f 10//17 4//20 65//20 64//17
f 29//24 80//16 90//16 89//24
f 22//22 73//23 83//23 82//22
f 26//21 27//25 87//25 86//21
f 73//23 29//24 89//24 83//23
f 62//11 13//6 23//9 72//12
f 69//7 20//26 30//27 79//8
f 67//3 18//28 78//29 77//4
f 14//30 15//14 75//15 74//31
f 20//26 14//30 74//31 30//27
f 18//28 61//10 71//13 78//29
f 37//32 88//33 48//34 47//35
f 39//36 40//37 50//38 49//39
f 32//40 33//41 43//42 42//43
f 36//44 37//32 47//35 46//45
f 27//25 28//18 38//18 87//25
f 24//17 25//20 85//20 84//17
f 80//16 24//17 84//17 90//16
f 28//18 21//19 81//19 38//18
f 25//20 26//21 86//21 85//20
f 21//19 22//22 82//22 81//19
f 47//35 44//46 45//47 46//45
f 42//43 43//42 49//39 41//48
f 41//48 49//39 50//38 48//34
f 48//34 50//38 44//46 47//35
f 34//49 35//50 45//47 44//46
f 40//37 34//49 44//46 50//38
f 88//33 31//51 41//48 48//34
f 35//50 36//44 46//45 45//47
f 31//51 32//40 42//43 41//48
f 33//41 39//36 49//39 43//42
o Pipe1_Plane.002
v 0.990204 0.013834 0.102201
v 0.990204 -0.014533 0.102201
v 0.990204 0.013189 0.020252
v 0.990204 -0.014017 0.020252
v 0.990204 0.034751 0.035800
v 0.990204 0.042885 0.061033
v 0.990204 0.034880 0.086136
v 0.990204 -0.035837 0.086136
v 0.990204 -0.043584 0.061033
v 0.990204 -0.035192 0.035800
v 1.331959 0.034880 0.086136
v 1.331959 0.013834 0.102201
v 1.331959 -0.014533 0.102201
v 1.331959 -0.035192 0.035800
v 1.331959 -0.014017 0.020252
v 1.331959 0.013189 0.020252
v 1.331959 0.034751 0.035800
v 1.331959 0.042885 0.061033
v 1.331959 -0.035837 0.086136
v 1.331959 -0.043584 0.061033
v 1.415088 0.040839 0.091649
v 1.407743 0.016235 0.111250
v 1.397842 -0.016930 0.111250
v 1.390632 -0.041081 0.030236
v 1.398022 -0.016326 0.011265
v 1.407517 0.015480 0.011265
v 1.415043 0.040688 0.030236
v 1.417882 0.050198 0.061021
v 1.390407 -0.041836 0.091649
v 1.387703 -0.050893 0.061021
v 1.439789 0.047346 0.095996
v 1.431400 0.019243 0.118385
v 1.420091 -0.018638 0.118385
v 1.411856 -0.046225 0.025849
v 1.420297 -0.017949 0.004180
v 1.431142 0.018381 0.004180
v 1.439738 0.047174 0.025849
v 1.442981 0.058036 0.061013
v 1.411598 -0.047087 0.095996
v 1.408510 -0.057432 0.061013
v 1.453720 0.047200 0.095996
v 1.445330 0.019097 0.118385
v 1.434021 -0.018784 0.118385
v 1.425786 -0.046371 0.025849
v 1.434227 -0.018095 0.004180
v 1.445072 0.018235 0.004180
v 1.453668 0.047028 0.025849
v 1.456911 0.057890 0.061013
v 1.425528 -0.047233 0.095996
v 1.422440 -0.057578 0.061013
v 1.460724 0.042263 0.090320
v 1.453698 0.018729 0.109069
v 1.444228 -0.012994 0.109069
v 1.437332 -0.036095 0.031577
v 1.444401 -0.012416 0.013431
v 1.453483 0.018007 0.013431
v 1.460681 0.042119 0.031577
v 1.463396 0.051215 0.061024
v 1.437116 -0.036817 0.090320
v 1.434530 -0.045480 0.061024
v 1.182808 0.019400 0.076133
v 1.179191 0.007286 0.085783
v 1.174317 -0.009042 0.085783
v 1.170767 -0.020932 0.045897
v 1.174406 -0.008744 0.036557
v 1.179081 0.006915 0.036557
v 1.182786 0.019326 0.045897
v 1.184183 0.024007 0.061053
v 1.170656 -0.021304 0.076133
v 1.169325 -0.025763 0.061053
v 0.990204 0.034880 0.086136
v 0.990204 0.013834 0.102201
v 0.990204 -0.014533 0.102201
v 0.990204 -0.035192 0.035800
v 0.990204 -0.014017 0.020252
v 0.990204 0.013189 0.020252
v 0.990204 0.034751 0.035800
v 0.990204 0.042885 0.061033
v 0.990204 -0.035837 0.086136
v 0.990204 -0.043584 0.061033
v 1.453720 0.047200 0.095996
v 1.445330 0.019097 0.118385
v 1.434021 -0.018784 0.118385
v 1.425786 -0.046371 0.025849
v 1.434227 -0.018095 0.004180
v 1.445072 0.018235 0.004180
v 1.453668 0.047028 0.025849
v 1.456911 0.057890 0.061013
v 1.425528 -0.047233 0.095996
v 1.422440 -0.057578 0.061013
v 1.460724 0.042263 0.090320
v 1.453698 0.018729 0.109069
v 1.444228 -0.012994 0.109069
v 1.437332 -0.036095 0.031577
v 1.444401 -0.012416 0.013431
v 1.453483 0.018007 0.013431
v 1.460681 0.042119 0.031577
v 1.463396 0.051215 0.061024
v 1.437116 -0.036817 0.090320
v 1.434530 -0.045480 0.061024
v 1.182808 0.019400 0.076133
v 1.179191 0.007286 0.085783
v 1.174317 -0.009042 0.085783
v 1.170767 -0.020932 0.045897
v 1.174406 -0.008744 0.036557
v 1.179081 0.006915 0.036557
v 1.182786 0.019326 0.045897
v 1.184183 0.024007 0.061053
v 1.170656 -0.021304 0.076133
v 1.169325 -0.025763 0.061053
vn -1.0000 0.0000 0.0000
vn -0.0611 0.3184 -0.9460
vn -0.0499 0.8136 -0.5792
vn -0.2101 0.8152 -0.5396
vn -0.2203 0.3539 -0.9090
vn -0.0696 -0.3112 0.9478
vn -0.0687 -0.8169 0.5727
vn -0.2211 -0.7889 0.5733
vn -0.2279 -0.2700 0.9355
vn -0.0497 0.8223 0.5669
vn -0.0616 0.3313 0.9415
vn -0.2225 0.3662 0.9035
vn -0.2094 0.8233 0.5275
vn -0.0689 -0.3052 -0.9498
vn -0.2256 -0.2644 -0.9376
vn 0.0000 -0.9999 -0.0109
vn 0.0000 -0.8085 -0.5885
vn -0.0681 -0.8068 -0.5868
vn -0.0661 -0.9977 -0.0110
vn 0.0000 1.0000 -0.0016
vn 0.0000 0.8175 0.5759
vn -0.0446 0.9990 -0.0015
vn 0.0000 -0.3114 -0.9503
vn 0.0000 0.3073 -0.9516
vn 0.0000 0.3202 0.9473
vn 0.0000 -0.3175 0.9482
vn 0.0000 -0.8185 0.5745
vn 0.0000 0.8086 -0.5883
vn -0.2146 -0.9766 -0.0110
vn -0.1604 -0.9870 -0.0106
vn -0.1617 -0.8010 0.5763
vn -0.1590 -0.2829 0.9459
vn -0.1486 0.3612 0.9206
vn -0.1375 0.8218 -0.5528
vn -0.1477 0.3489 -0.9254
vn -0.2042 0.9789 -0.0014
vn -0.2192 -0.7790 -0.5874
vn -0.1334 0.9911 -0.0014
vn 0.0105 0.9999 -0.0014
vn 0.0087 0.8362 -0.5482
vn -0.0105 -0.9999 -0.0110
vn -0.0085 -0.8101 0.5862
vn -0.0029 -0.2749 0.9615
vn 0.0040 0.3822 0.9241
vn 0.0038 0.3675 -0.9300
vn -0.1575 -0.2769 -0.9479
vn -0.1602 -0.7912 -0.5902
vn -0.1376 0.8300 0.5405
vn 0.7121 -0.6429 -0.2820
vn 0.7266 -0.4340 -0.5326
vn 0.7296 -0.3583 -0.5824
vn 0.7134 -0.6246 -0.3175
vn 0.7324 0.4455 -0.5148
vn 0.7172 0.6969 -0.0014
vn 0.7172 0.6969 -0.0013
vn 0.7280 0.5232 -0.4429
vn 0.7136 -0.6450 0.2732
vn 0.7073 -0.7068 -0.0045
vn 0.7073 -0.7068 -0.0063
vn 0.7150 -0.6277 0.3077
vn 0.7426 -0.0376 0.6686
vn 0.7289 -0.4369 0.5270
vn 0.7320 -0.3606 0.5779
vn 0.7424 0.0953 0.6631
vn -0.0028 -0.2695 -0.9630
vn -0.0084 -0.7998 -0.6002
vn 0.0088 0.8435 0.5371
vn 0.0970 -0.9953 0.0014
vn 0.0963 -0.8489 -0.5197
vn 0.0962 -0.8148 -0.5717
vn 0.0970 -0.9953 0.0016
vn 0.0741 0.9972 0.0111
vn 0.0776 0.7882 0.6104
vn 0.0769 0.8291 0.5538
vn 0.0741 0.9972 0.0102
vn 0.0861 0.2420 0.9664
vn 0.0845 0.3557 0.9307
vn 0.0964 -0.8422 0.5305
vn 0.0962 -0.8049 0.5855
vn 0.7318 0.4565 0.5060
vn 0.7270 0.5313 0.4349
vn 0.7387 -0.0440 -0.6726
vn 0.7384 0.0839 -0.6691
vn 0.9582 -0.2860 0.0000
vn 0.0930 -0.3930 0.9148
vn 0.0919 -0.2853 0.9540
vn 0.0940 -0.4075 -0.9083
vn 0.0930 -0.2966 -0.9504
vn 0.0869 0.2472 -0.9650
vn 0.0782 0.7987 -0.5965
vn 0.0775 0.8383 -0.5397
vn 0.0854 0.3626 -0.9280
usemtl None
s 1
f 167//52 166//52 165//52 164//52
f 162//52 161//52 169//52 163//52
f 161//52 168//52 170//52 169//52
f 168//52 167//52 164//52 170//52
f 106//53 107//54 117//55 116//56
f 103//57 109//58 119//59 113//60
f 101//61 102//62 112//63 111//64
f 105//65 106//53 116//56 115//66
f 99//67 100//68 104//69 110//70
f 96//71 97//72 101//61 108//73
f 94//74 93//75 106//53 105//65
f 97//72 91//76 102//62 101//61
f 92//77 98//78 109//58 103//57
f 93//75 95//79 107//54 106//53
f 91//76 92//77 103//57 102//62
f 98//78 99//67 110//70 109//58
f 95//79 96//71 108//73 107//54
f 100//68 94//74 105//65 104//69
f 119//59 120//80 130//81 129//82
f 112//63 113//60 123//83 122//84
f 116//56 117//55 127//85 126//86
f 113//60 119//59 129//82 123//83
f 102//62 103//57 113//60 112//63
f 109//58 110//70 120//80 119//59
f 107//54 108//73 118//87 117//55
f 104//69 105//65 115//66 114//88
f 110//70 104//69 114//88 120//80
f 108//73 101//61 111//64 118//87
f 127//85 128//89 178//90 177//91
f 129//82 130//81 180//92 179//93
f 122//84 123//83 173//94 172//95
f 126//86 127//85 177//91 176//96
f 117//55 118//87 128//89 127//85
f 114//88 115//66 125//97 124//98
f 120//80 114//88 124//98 130//81
f 118//87 111//64 121//99 128//89
f 115//66 116//56 126//86 125//97
f 111//64 112//63 122//84 121//99
f 174//100 175//101 185//102 184//103
f 137//104 138//105 188//106 187//107
f 139//108 140//109 190//110 189//111
f 132//112 133//113 183//114 182//115
f 124//98 125//97 135//116 134//117
f 130//81 124//98 134//117 180//92
f 128//89 121//99 171//118 178//90
f 125//97 126//86 176//96 135//116
f 121//99 122//84 172//95 171//118
f 123//83 129//82 179//93 173//94
f 148//119 141//120 151//121 198//122
f 150//123 144//124 194//125 160//126
f 144//124 145//127 195//128 194//125
f 147//129 148//119 198//122 197//130
f 140//109 174//100 184//103 190//110
f 138//105 131//131 181//132 188//106
f 175//101 136//133 186//134 185//102
f 131//131 132//112 182//115 181//132
f 133//113 139//108 189//111 183//114
f 136//133 137//104 187//107 186//134
f 157//135 154//135 155//135 196//135
f 192//135 193//135 199//135 191//135
f 191//135 199//135 200//135 158//135
f 158//135 200//135 154//135 157//135
f 145//127 146//136 156//137 195//128
f 141//120 142//138 152//139 151//121
f 143//140 149//141 159//142 153//143
f 146//136 147//129 197//130 156//137
f 142//138 143//140 153//143 152//139
f 149//141 150//123 160//126 159//142
o Pipe2_Plane.003
v 0.990204 0.013834 -0.021365
v 0.990204 -0.014533 -0.021365
v 0.990204 0.013189 -0.103315
v 0.990204 -0.014017 -0.103315
v 0.990204 0.034751 -0.087766
v 0.990204 0.042885 -0.062533
v 0.990204 0.034880 -0.037430
v 0.990204 -0.035837 -0.037430
v 0.990204 -0.043584 -0.062533
v 0.990204 -0.035192 -0.087766
v 1.331959 0.034880 -0.037430
v 1.331959 0.013834 -0.021365
v 1.331959 -0.014533 -0.021365
v 1.331959 -0.035192 -0.087766
v 1.331959 -0.014017 -0.103315
v 1.331959 0.013189 -0.103315
v 1.331959 0.034751 -0.087766
v 1.331959 0.042885 -0.062533
v 1.331959 -0.035837 -0.037430
v 1.331959 -0.043584 -0.062533
v 1.415088 0.040839 -0.031917
v 1.407743 0.016235 -0.012316
v 1.397842 -0.016930 -0.012316
v 1.390632 -0.041081 -0.093330
v 1.398022 -0.016326 -0.112301
v 1.407517 0.015480 -0.112301
v 1.415043 0.040688 -0.093330
v 1.417882 0.050198 -0.062545
v 1.390407 -0.041836 -0.031917
v 1.387703 -0.050893 -0.062545
v 1.439789 0.047346 -0.027570
v 1.431400 0.019243 -0.005181
v 1.420091 -0.018638 -0.005181
v 1.411856 -0.046225 -0.097718
v 1.420297 -0.017949 -0.119386
v 1.431142 0.018381 -0.119386
v 1.439738 0.047174 -0.097718
v 1.442981 0.058036 -0.062554
v 1.411598 -0.047087 -0.027570
v 1.408510 -0.057432 -0.062554
v 1.453720 0.047200 -0.027570
v 1.445330 0.019097 -0.005181
v 1.434021 -0.018784 -0.005181
v 1.425786 -0.046371 -0.097718
v 1.434227 -0.018095 -0.119386
v 1.445072 0.018235 -0.119386
v 1.453668 0.047028 -0.097718
v 1.456911 0.057890 -0.062554
v 1.425528 -0.047233 -0.027570
v 1.422440 -0.057578 -0.062554
v 1.460724 0.042263 -0.033246
v 1.453698 0.018729 -0.014497
v 1.444228 -0.012994 -0.014497
v 1.437332 -0.036095 -0.091989
v 1.444401 -0.012416 -0.110135
v 1.453483 0.018007 -0.110135
v 1.460681 0.042119 -0.091989
v 1.463396 0.051215 -0.062542
v 1.437116 -0.036817 -0.033246
v 1.434530 -0.045480 -0.062542
v 1.182808 0.019400 -0.047434
v 1.179191 0.007286 -0.037783
v 1.174317 -0.009042 -0.037783
v 1.170767 -0.020932 -0.077670
v 1.174406 -0.008744 -0.087010
v 1.179081 0.006915 -0.087010
v 1.182786 0.019326 -0.077670
v 1.184183 0.024007 -0.062513
v 1.170656 -0.021304 -0.047434
v 1.169325 -0.025763 -0.062513
v 0.990204 0.034880 -0.037430
v 0.990204 0.013834 -0.021365
v 0.990204 -0.014533 -0.021365
v 0.990204 -0.035192 -0.087766
v 0.990204 -0.014017 -0.103315
v 0.990204 0.013189 -0.103315
v 0.990204 0.034751 -0.087766
v 0.990204 0.042885 -0.062533
v 0.990204 -0.035837 -0.037430
v 0.990204 -0.043584 -0.062533
v 1.453720 0.047200 -0.027570
v 1.445330 0.019097 -0.005181
v 1.434021 -0.018784 -0.005181
v 1.425786 -0.046371 -0.097718
v 1.434227 -0.018095 -0.119386
v 1.445072 0.018235 -0.119386
v 1.453668 0.047028 -0.097718
v 1.456911 0.057890 -0.062554
v 1.425528 -0.047233 -0.027570
v 1.422440 -0.057578 -0.062554
v 1.460724 0.042263 -0.033246
v 1.453698 0.018729 -0.014497
v 1.444228 -0.012994 -0.014497
v 1.437332 -0.036095 -0.091989
v 1.444401 -0.012416 -0.110135
v 1.453483 0.018007 -0.110135
v 1.460681 0.042119 -0.091989
v 1.463396 0.051215 -0.062542
v 1.437116 -0.036817 -0.033246
v 1.434530 -0.045480 -0.062542
v 1.182808 0.019400 -0.047434
v 1.179191 0.007286 -0.037783
v 1.174317 -0.009042 -0.037783
v 1.170767 -0.020932 -0.077670
v 1.174406 -0.008744 -0.087010
v 1.179081 0.006915 -0.087010
v 1.182786 0.019326 -0.077670
v 1.184183 0.024007 -0.062513
v 1.170656 -0.021304 -0.047434
v 1.169325 -0.025763 -0.062513
vn -1.0000 0.0000 0.0000
vn -0.0611 0.3184 -0.9460
vn -0.0499 0.8136 -0.5792
vn -0.2101 0.8152 -0.5396
vn -0.2203 0.3539 -0.9090
vn -0.0696 -0.3112 0.9478
vn -0.0687 -0.8169 0.5727
vn -0.2211 -0.7889 0.5733
vn -0.2279 -0.2700 0.9355
vn -0.0497 0.8223 0.5669
vn -0.0616 0.3313 0.9415
vn -0.2225 0.3662 0.9035
vn -0.2094 0.8233 0.5275
vn -0.0689 -0.3052 -0.9498
vn -0.2256 -0.2644 -0.9376
vn 0.0000 -0.9999 -0.0109
vn 0.0000 -0.8085 -0.5885
vn -0.0681 -0.8068 -0.5868
vn -0.0661 -0.9977 -0.0110
vn 0.0000 1.0000 -0.0016
vn 0.0000 0.8175 0.5759
vn -0.0446 0.9990 -0.0015
vn 0.0000 -0.3114 -0.9503
vn 0.0000 0.3073 -0.9516
vn 0.0000 0.3202 0.9473
vn 0.0000 -0.3175 0.9482
vn 0.0000 -0.8185 0.5745
vn 0.0000 0.8086 -0.5883
vn -0.2146 -0.9766 -0.0110
vn -0.1604 -0.9870 -0.0106
vn -0.1617 -0.8010 0.5763
vn -0.1590 -0.2829 0.9459
vn -0.1486 0.3612 0.9206
vn -0.1375 0.8218 -0.5528
vn -0.1477 0.3489 -0.9254
vn -0.2042 0.9789 -0.0014
vn -0.2192 -0.7790 -0.5874
vn -0.1334 0.9911 -0.0014
vn 0.0105 0.9999 -0.0014
vn 0.0087 0.8362 -0.5482
vn -0.0105 -0.9999 -0.0110
vn -0.0085 -0.8101 0.5862
vn -0.0029 -0.2749 0.9615
vn 0.0040 0.3822 0.9241
vn 0.0038 0.3675 -0.9300
vn -0.1575 -0.2769 -0.9479
vn -0.1602 -0.7912 -0.5902
vn -0.1376 0.8300 0.5405
vn 0.7121 -0.6429 -0.2820
vn 0.7266 -0.4340 -0.5326
vn 0.7296 -0.3583 -0.5824
vn 0.7134 -0.6246 -0.3175
vn 0.7324 0.4455 -0.5148
vn 0.7172 0.6969 -0.0014
vn 0.7172 0.6969 -0.0013
vn 0.7280 0.5232 -0.4429
vn 0.7136 -0.6450 0.2732
vn 0.7073 -0.7068 -0.0045
vn 0.7073 -0.7068 -0.0063
vn 0.7150 -0.6277 0.3077
vn 0.7426 -0.0376 0.6686
vn 0.7289 -0.4369 0.5270
vn 0.7320 -0.3606 0.5779
vn 0.7424 0.0953 0.6631
vn -0.0028 -0.2695 -0.9630
vn -0.0084 -0.7998 -0.6002
vn 0.0088 0.8435 0.5371
vn 0.0970 -0.9953 0.0014
vn 0.0963 -0.8489 -0.5197
vn 0.0962 -0.8148 -0.5717
vn 0.0970 -0.9953 0.0016
vn 0.0741 0.9972 0.0111
vn 0.0776 0.7882 0.6104
vn 0.0769 0.8291 0.5538
vn 0.0741 0.9972 0.0102
vn 0.0861 0.2420 0.9664
vn 0.0845 0.3557 0.9307
vn 0.0964 -0.8422 0.5305
vn 0.0962 -0.8049 0.5855
vn 0.7318 0.4565 0.5060
vn 0.7270 0.5314 0.4349
vn 0.7387 -0.0440 -0.6726
vn 0.7384 0.0839 -0.6691
vn 0.9582 -0.2860 0.0000
vn 0.0930 -0.3930 0.9148
vn 0.0919 -0.2853 0.9540
vn 0.0940 -0.4075 -0.9083
vn 0.0930 -0.2966 -0.9504
vn 0.0869 0.2472 -0.9650
vn 0.0782 0.7987 -0.5965
vn 0.0775 0.8383 -0.5397
vn 0.0854 0.3626 -0.9280
usemtl None
s 1
f 277//144 276//144 275//144 274//144
f 272//144 271//144 279//144 273//144
f 271//144 278//144 280//144 279//144
f 278//144 277//144 274//144 280//144
f 216//145 217//146 227//147 226//148
f 213//149 219//150 229//151 223//152
f 211//153 212//154 222//155 221//156
f 215//157 216//145 226//148 225//158
f 209//159 210//160 214//161 220//162
f 206//163 207//164 211//153 218//165
f 204//166 203//167 216//145 215//157
f 207//164 201//168 212//154 211//153
f 202//169 208//170 219//150 213//149
f 203//167 205//171 217//146 216//145
f 201//168 202//169 213//149 212//154
f 208//170 209//159 220//162 219//150
f 205//171 206//163 218//165 217//146
f 210//160 204//166 215//157 214//161
f 229//151 230//172 240//173 239//174
f 222//155 223//152 233//175 232//176
f 226//148 227//147 237//177 236//178
f 223//152 229//151 239//174 233//175
f 212//154 213//149 223//152 222//155
f 219//150 220//162 230//172 229//151
f 217//146 218//165 228//179 227//147
f 214//161 215//157 225//158 224//180
f 220//162 214//161 224//180 230//172
f 218//165 211//153 221//156 228//179
f 237//177 238//181 288//182 287//183
f 239//174 240//173 290//184 289//185
f 232//176 233//175 283//186 282//187
f 236//178 237//177 287//183 286//188
f 227//147 228//179 238//181 237//177
f 224//180 225//158 235//189 234//190
f 230//172 224//180 234//190 240//173
f 228//179 221//156 231//191 238//181
f 225//158 226//148 236//178 235//189
f 221//156 222//155 232//176 231//191
f 284//192 285//193 295//194 294//195
f 247//196 248//197 298//198 297//199
f 249//200 250//201 300//202 299//203
f 242//204 243//205 293//206 292//207
f 234//190 235//189 245//208 244//209
f 240//173 234//190 244//209 290//184
f 238//181 231//191 281//210 288//182
f 235//189 236//178 286//188 245//208
f 231//191 232//176 282//187 281//210
f 233//175 239//174 289//185 283//186
f 258//211 251//212 261//213 308//214
f 260//215 254//216 304//217 270//218
f 254//216 255//219 305//220 304//217
f 257//221 258//211 308//214 307//222
f 250//201 284//192 294//195 300//202
f 248//197 241//223 291//224 298//198
f 285//193 246//225 296//226 295//194
f 241//223 242//204 292//207 291//224
f 243//205 249//200 299//203 293//206
f 246//225 247//196 297//199 296//226
f 267//227 264//227 265//227 306//227
f 302//227 303//227 309//227 301//227
f 301//227 309//227 310//227 268//227
f 268//227 310//227 264//227 267//227
f 255//219 256//228 266//229 305//220
f 251//212 252//230 262//231 261//213
f 253//232 259//233 269//234 263//235
f 256//228 257//221 307//222 266//229
f 252//230 253//232 263//235 262//231
f 259//233 260//215 270//218 269//234
