# Blender v2.79 (sub 0) OBJ File: 'exhaust_1.blend'
# www.blender.org
mtllib exhaust_1.mtl
o Plane.002_Plane.000
v 0.004232 0.012686 0.046706
v 0.004232 -0.018615 0.046706
v 0.004232 0.011974 -0.043718
v 0.004232 -0.018045 -0.043718
v 0.004232 0.035766 -0.026561
v 0.004232 0.044741 0.001281
v 0.004232 0.035908 0.028980
v 0.004232 -0.042121 0.028980
v 0.004232 -0.050669 0.001281
v 0.004232 -0.041409 -0.026561
v 0.313362 0.035908 0.028980
v 0.313362 0.012686 0.046706
v 0.313362 -0.018615 0.046706
v 0.313362 -0.041409 -0.026561
v 0.313362 -0.018045 -0.043718
v 0.313362 0.011974 -0.043718
v 0.313362 0.035766 -0.026561
v 0.313362 0.044741 0.001281
v 0.313362 -0.042121 0.028980
v 0.313362 -0.050669 0.001281
v 0.327304 0.093165 0.069680
v 0.327304 0.035751 0.113507
v 0.327304 -0.041638 0.113507
v 0.327304 -0.097995 -0.067639
v 0.327304 -0.040229 -0.110057
v 0.327304 0.033990 -0.110057
v 0.327304 0.092813 -0.067639
v 0.327304 0.115003 0.001197
v 0.327304 -0.099756 0.069680
v 0.327304 -0.120890 0.001197
v 1.143670 0.093165 0.069680
v 1.143670 0.035751 0.113507
v 1.143670 -0.041638 0.113507
v 1.143670 -0.097995 -0.067639
v 1.143670 -0.040229 -0.110057
v 1.143670 0.033990 -0.110057
v 1.143670 0.092813 -0.067639
v 1.143670 0.115003 0.001197
v 1.143670 -0.099756 0.069680
v 1.143670 -0.120890 0.001197
v 1.165875 0.037317 0.029981
v 1.165875 0.013254 0.048350
v 1.165875 -0.019181 0.048350
v 1.165875 -0.042802 -0.027572
v 1.165875 -0.018591 -0.045351
v 1.165875 0.012516 -0.045351
v 1.165875 0.037170 -0.027572
v 1.165875 0.046470 0.001279
v 1.165875 -0.043540 0.029981
v 1.165875 -0.052398 0.001279
v 1.699199 0.037317 0.029981
v 1.699199 0.013254 0.048350
v 1.699199 -0.019181 0.048350
v 1.699199 -0.042802 -0.027572
v 1.699199 -0.018591 -0.045351
v 1.699199 0.012516 -0.045351
v 1.699199 0.037170 -0.027572
v 1.699199 0.046470 0.001279
v 1.699199 -0.043540 0.029981
v 1.699199 -0.052398 0.001279
v 1.839827 0.036881 0.032230
v 1.829487 0.013078 0.052041
v 1.815548 -0.019006 0.052041
v 1.805398 -0.042371 -0.029841
v 1.815802 -0.018422 -0.049015
v 1.829169 0.012348 -0.049015
v 1.839764 0.036735 -0.029841
v 1.843761 0.045935 0.001274
v 1.805080 -0.043101 0.032230
v 1.801274 -0.051863 0.001274
v 1.800968 0.034450 0.027909
v 1.799990 0.012149 0.044948
v 1.798671 -0.017910 0.044948
v 1.797711 -0.039800 -0.025480
v 1.798695 -0.017363 -0.041972
v 1.799960 0.011465 -0.041972
v 1.800962 0.034313 -0.025480
v 1.801340 0.042932 0.001283
v 1.797681 -0.040484 0.027909
v 1.797321 -0.048693 0.001283
v 1.440567 0.033579 0.027908
v 1.439589 0.011279 0.044947
v 1.438270 -0.018780 0.044947
v 1.437310 -0.040670 -0.025481
v 1.438294 -0.018233 -0.041973
v 1.439559 0.010595 -0.041973
v 1.440561 0.033443 -0.025481
v 1.440939 0.042062 0.001282
v 1.437280 -0.041354 0.027908
v 1.436920 -0.049563 0.001282
v 0.004232 0.035908 0.028980
v 0.004232 0.012686 0.046706
v 0.004232 -0.018615 0.046706
v 0.004232 -0.041409 -0.026561
v 0.004232 -0.018045 -0.043718
v 0.004232 0.011974 -0.043718
v 0.004232 0.035766 -0.026561
v 0.004232 0.044741 0.001281
v 0.004232 -0.042121 0.028980
v 0.004232 -0.050669 0.001281
v 0.313362 0.035908 0.028980
v 0.313362 0.012686 0.046706
v 0.313362 -0.018615 0.046706
v 0.313362 -0.041409 -0.026561
v 0.313362 -0.018045 -0.043718
v 0.313362 0.011974 -0.043718
v 0.313362 0.035766 -0.026561
v 0.313362 0.044741 0.001281
v 0.313362 -0.042121 0.028980
v 0.313362 -0.050669 0.001281
v 0.327304 0.093165 0.069680
v 0.327304 0.035751 0.113507
v 0.327304 -0.041638 0.113507
v 0.327304 -0.097995 -0.067639
v 0.327304 -0.040229 -0.110057
v 0.327304 0.033990 -0.110057
v 0.327304 0.092813 -0.067639
v 0.327304 0.115003 0.001197
v 0.327304 -0.099756 0.069680
v 0.327304 -0.120890 0.001197
v 1.143670 0.093165 0.069680
v 1.143670 0.035751 0.113507
v 1.143670 -0.041638 0.113507
v 1.143670 -0.097995 -0.067639
v 1.143670 -0.040229 -0.110057
v 1.143670 0.033990 -0.110057
v 1.143670 0.092813 -0.067639
v 1.143670 0.115003 0.001197
v 1.143670 -0.099756 0.069680
v 1.143670 -0.120890 0.001197
v 1.165875 0.037317 0.029981
v 1.165875 0.013254 0.048350
v 1.165875 -0.019181 0.048350
v 1.165875 -0.042802 -0.027572
v 1.165875 -0.018591 -0.045351
v 1.165875 0.012516 -0.045351
v 1.165875 0.037170 -0.027572
v 1.165875 0.046470 0.001279
v 1.165875 -0.043540 0.029981
v 1.165875 -0.052398 0.001279
v 1.839827 0.036881 0.032230
v 1.829487 0.013078 0.052041
v 1.815548 -0.019006 0.052041
v 1.805398 -0.042371 -0.029841
v 1.815802 -0.018422 -0.049015
v 1.829169 0.012348 -0.049015
v 1.839764 0.036735 -0.029841
v 1.843761 0.045935 0.001274
v 1.805080 -0.043101 0.032230
v 1.801274 -0.051863 0.001274
v 1.440567 0.033579 0.027908
v 1.439589 0.011279 0.044947
v 1.438270 -0.018780 0.044947
v 1.437310 -0.040670 -0.025481
v 1.438294 -0.018233 -0.041973
v 1.439559 0.010595 -0.041973
v 1.440561 0.033443 -0.025481
v 1.440939 0.042062 0.001282
v 1.437280 -0.041354 0.027908
v 1.436920 -0.049563 0.001282
vn -1.0000 0.0000 0.0000
vn -0.9807 0.0597 -0.1863
vn -0.9809 0.1571 -0.1147
vn -0.9809 0.1574 -0.1143
vn -0.9807 0.0603 -0.1861
vn -0.9811 -0.0610 0.1837
vn -0.9810 -0.1588 0.1112
vn -0.9810 -0.1586 0.1114
vn -0.9811 -0.0617 0.1835
vn -0.9809 0.1592 0.1119
vn -0.9811 0.0616 0.1835
vn -0.9811 0.0622 0.1833
vn -0.9809 0.1591 0.1122
vn -0.9807 -0.0605 -0.1859
vn -0.9807 -0.0610 -0.1857
vn 0.0000 -0.9999 -0.0109
vn 0.0000 -0.8085 -0.5885
vn 0.0000 1.0000 -0.0016
vn 0.0000 0.8175 0.5759
vn 0.0000 -0.3114 -0.9503
vn 0.0000 0.3073 -0.9516
vn 0.0000 0.3202 0.9473
vn 0.0000 -0.3175 0.9482
vn 0.0000 -0.8185 0.5745
vn 0.0000 0.8086 -0.5883
vn -0.9808 -0.1947 -0.0026
vn -0.9808 -0.1947 -0.0018
vn -0.9809 0.1946 -0.0003
vn -0.9807 -0.1580 -0.1151
vn -0.9807 -0.1581 -0.1151
vn 0.9514 0.2492 -0.1810
vn 0.9513 0.3082 -0.0005
vn 0.9514 0.2489 -0.1816
vn 0.9517 -0.2512 0.1765
vn 0.9512 -0.3084 -0.0029
vn 0.9512 -0.3084 -0.0041
vn 0.9517 -0.2514 0.1762
vn 0.9518 0.0985 0.2904
vn 0.9518 -0.0977 0.2907
vn 0.9518 -0.0967 0.2910
vn 0.9518 0.0977 0.2906
vn 0.9508 0.0955 -0.2946
vn 0.9508 0.0945 -0.2949
vn -0.0130 -0.3152 -0.9489
vn -0.0048 -0.8141 -0.5807
vn 0.0005 1.0000 -0.0015
vn -0.0040 0.8148 -0.5797
vn 0.0006 -0.9999 -0.0107
vn -0.0046 -0.8239 0.5667
vn -0.0130 -0.3213 0.9469
vn -0.0121 0.3285 0.9444
vn 0.9509 -0.2503 -0.1821
vn 0.9509 -0.0966 -0.2940
vn 0.9509 -0.0959 -0.2942
vn 0.9509 -0.2502 -0.1823
vn 0.9513 0.2519 0.1777
vn 0.9513 0.2522 0.1773
vn -0.0038 0.8235 0.5673
vn -0.0064 0.8514 0.5244
vn 0.0009 1.0000 -0.0014
vn -0.0112 -0.7898 -0.6133
vn 0.0013 -0.9999 -0.0113
vn -0.0272 -0.2394 -0.9705
vn -0.0067 0.8449 -0.5348
vn -0.0121 0.3154 -0.9489
vn 0.3532 0.1355 0.9257
vn 0.2198 -0.4224 0.8793
vn 0.1219 -0.3421 0.9317
vn 0.1991 0.2725 0.9413
vn 0.0826 -0.9966 0.0013
vn 0.1184 -0.8503 -0.5128
vn 0.0635 -0.8295 -0.5548
vn 0.0432 -0.9991 0.0015
vn 0.5361 0.8441 0.0103
vn 0.4726 0.6252 0.6211
vn 0.2652 0.7747 0.5740
vn 0.2928 0.9561 0.0116
vn -0.0224 0.3947 -0.9185
vn -0.0223 0.4100 0.9118
vn -0.0109 -0.8004 0.5994
vn -0.0273 -0.2443 0.9693
vn 0.1224 -0.3552 -0.9267
vn 0.0007 -0.3120 -0.9500
vn 0.0020 -0.8148 -0.5797
vn 0.0007 -0.2994 0.9541
vn -0.0008 0.3200 0.9474
vn 0.0024 -1.0000 0.0016
vn -0.0020 0.8118 0.5839
vn -0.0024 0.9999 0.0108
vn 0.2203 -0.4365 -0.8723
vn 0.3577 0.1380 -0.9236
vn 0.4812 0.6308 -0.6086
vn 0.2709 0.7837 -0.5589
vn 0.2026 0.2778 -0.9390
vn 0.1197 -0.8439 0.5229
vn 0.0644 -0.8212 0.5670
vn 0.9990 -0.0438 0.0000
vn -0.0020 0.8217 -0.5699
vn -0.0008 0.3261 -0.9453
vn 0.0019 -0.8057 0.5923
usemtl None
s 1
f 97//1 96//1 95//1 94//1
f 92//1 91//1 99//1 93//1
f 91//1 98//1 100//1 99//1
f 98//1 97//1 94//1 100//1
f 106//2 107//3 117//4 116//5
f 13//6 109//7 119//8 23//9
f 101//10 102//11 112//12 111//13
f 15//14 106//2 116//5 115//15
f 9//16 10//17 104//17 110//16
f 6//18 7//19 11//19 108//18
f 4//20 3//21 16//21 105//20
f 7//19 1//22 12//22 11//19
f 2//23 8//24 19//24 103//23
f 3//21 5//25 17//25 16//21
f 1//22 2//23 103//23 12//22
f 8//24 9//16 110//16 19//24
f 5//25 6//18 108//18 17//25
f 10//17 4//20 105//20 104//17
f 29//24 120//16 130//16 129//24
f 22//22 113//23 123//23 122//22
f 26//21 27//25 127//25 126//21
f 113//23 29//24 129//24 123//23
f 102//11 13//6 23//9 112//12
f 109//7 20//26 30//27 119//8
f 107//3 18//28 118//28 117//4
f 14//29 15//14 115//15 114//30
f 20//26 14//29 114//30 30//27
f 18//28 101//10 111//13 118//28
f 37//31 128//32 138//32 137//33
f 39//34 40//35 140//36 139//37
f 32//38 33//39 133//40 132//41
f 36//42 37//31 137//33 136//43
f 27//25 28//18 38//18 127//25
f 24//17 25//20 125//20 124//17
f 120//16 24//17 124//17 130//16
f 28//18 21//19 121//19 38//18
f 25//20 26//21 126//21 125//20
f 21//19 22//22 122//22 121//19
f 134//17 135//20 55//44 54//45
f 47//25 48//18 58//46 57//47
f 49//24 50//16 60//48 59//49
f 42//22 43//23 53//50 52//51
f 34//52 35//53 45//54 44//55
f 40//35 34//52 44//55 140//36
f 128//32 31//56 131//57 138//32
f 35//53 36//42 136//43 45//54
f 31//56 32//38 132//41 131//57
f 33//39 39//34 139//37 133//40
f 58//46 51//58 141//59 148//60
f 60//48 54//45 144//61 150//62
f 54//45 55//44 145//63 144//61
f 57//47 58//46 148//60 147//64
f 50//16 134//17 54//45 60//48
f 48//18 41//19 51//58 58//46
f 135//20 46//21 56//65 55//44
f 41//19 42//22 52//51 51//58
f 43//23 49//24 59//49 53//50
f 46//21 47//25 57//47 56//65
f 65//66 146//67 76//68 75//69
f 68//70 61//71 71//72 78//73
f 70//74 64//75 74//76 80//77
f 64//75 65//66 75//69 74//76
f 55//44 56//65 66//78 145//63
f 51//58 52//51 142//79 141//59
f 53//50 59//49 149//80 143//81
f 56//65 57//47 147//64 66//78
f 52//51 53//50 143//81 142//79
f 59//49 60//48 150//62 149//80
f 71//72 72//82 152//83 151//84
f 75//69 76//68 156//85 85//86
f 78//73 71//72 151//84 88//87
f 80//77 74//76 154//88 160//89
f 61//71 62//90 72//82 71//72
f 63//91 69//92 79//93 73//94
f 146//67 67//95 77//96 76//68
f 62//90 63//91 73//94 72//82
f 69//92 70//74 80//77 79//93
f 67//95 68//70 78//73 77//96
f 157//97 84//97 155//97 86//97
f 82//97 153//97 159//97 81//97
f 81//97 159//97 90//97 158//97
f 158//97 90//97 84//97 157//97
f 73//94 79//93 89//98 83//99
f 76//68 77//96 87//100 156//85
f 72//82 73//94 83//99 152//83
f 79//93 80//77 160//89 89//98
f 77//96 78//73 88//87 87//100
f 74//76 75//69 85//86 154//88
