# Blender v2.79 (sub 0) OBJ File: 'front_lip.blend'
# www.blender.org
mtllib front_lip.mtl
o Plane
v -0.254236 0.078892 1.216893
v -0.250254 -0.055015 1.183275
v -0.260975 -0.036816 1.254027
v -0.257629 -0.000369 1.245542
v 0.027327 0.078892 0.449621
v -0.006526 -0.055015 0.449621
v 0.084626 -0.036816 0.449621
v 0.056176 -0.000369 0.449621
v 0.008148 0.078892 0.667928
v -0.025706 -0.055015 0.667928
v 0.065446 -0.036816 0.667928
v 0.036997 -0.000369 0.667928
v -0.028714 0.078892 0.946136
v -0.062568 -0.055015 0.946136
v 0.028584 -0.036816 0.946136
v 0.000134 -0.000369 0.946136
v -0.055905 0.078892 1.043375
v -0.089759 -0.055015 1.043375
v 0.001393 -0.036816 1.043375
v -0.027056 -0.000369 1.043375
v -0.100910 0.078892 1.139619
v -0.130977 -0.055015 1.124062
v -0.050020 -0.036816 1.165949
v -0.075288 -0.000369 1.152876
v -0.254236 0.078892 -1.216893
v -0.250254 -0.055015 -1.183275
v 0.035205 0.078892 0.000000
v 0.001352 -0.055015 0.000000
v -0.260975 -0.036816 -1.254027
v 0.092503 -0.036816 0.000000
v 0.064054 -0.000369 0.000000
v -0.257629 -0.000369 -1.245542
v 0.027327 0.078892 -0.449621
v -0.006526 -0.055015 -0.449621
v 0.084626 -0.036816 -0.449621
v 0.056176 -0.000369 -0.449621
v 0.008148 0.078892 -0.667928
v -0.025706 -0.055015 -0.667928
v 0.065446 -0.036816 -0.667928
v 0.036997 -0.000369 -0.667928
v -0.028714 0.078892 -0.946136
v -0.062568 -0.055015 -0.946136
v 0.028584 -0.036816 -0.946136
v 0.000134 -0.000369 -0.946136
v -0.055905 0.078892 -1.043375
v -0.089759 -0.055015 -1.043375
v 0.001393 -0.036816 -1.043375
v -0.027056 -0.000369 -1.043375
v -0.100910 0.078892 -1.139619
v -0.130977 -0.055015 -1.124062
v -0.050020 -0.036816 -1.165949
v -0.075288 -0.000369 -1.152876
v -0.100910 0.078892 1.139619
v -0.100910 0.078892 1.139619
v -0.100910 0.078892 1.139619
v -0.254236 0.078892 1.216893
v -0.254236 0.078892 1.216893
v -0.260975 -0.036816 1.254027
v -0.260975 -0.036816 1.254027
v -0.250254 -0.055015 1.183275
v -0.250254 -0.055015 1.183275
v -0.006526 -0.055015 0.449621
v 0.001352 -0.055015 0.000000
v -0.257629 -0.000369 1.245542
v 0.084626 -0.036816 0.449621
v 0.092503 -0.036816 0.000000
v 0.035205 0.078892 0.000000
v 0.027327 0.078892 0.449621
v -0.025706 -0.055015 0.667928
v 0.065446 -0.036816 0.667928
v 0.008148 0.078892 0.667928
v -0.062568 -0.055015 0.946136
v 0.028584 -0.036816 0.946136
v -0.028714 0.078892 0.946136
v -0.089759 -0.055015 1.043375
v 0.001393 -0.036816 1.043375
v -0.055905 0.078892 1.043375
v -0.130977 -0.055015 1.124062
v -0.130977 -0.055015 1.124062
v -0.050020 -0.036816 1.165949
v -0.050020 -0.036816 1.165949
v -0.075288 -0.000369 1.152876
v -0.100910 0.078892 -1.139619
v -0.100910 0.078892 -1.139619
v -0.100910 0.078892 -1.139619
v -0.254236 0.078892 -1.216893
v -0.254236 0.078892 -1.216893
v -0.260975 -0.036816 -1.254027
v -0.260975 -0.036816 -1.254027
v -0.250254 -0.055015 -1.183275
v -0.250254 -0.055015 -1.183275
v -0.006526 -0.055015 -0.449621
v -0.257629 -0.000369 -1.245542
v 0.084626 -0.036816 -0.449621
v 0.027327 0.078892 -0.449621
v -0.025706 -0.055015 -0.667928
v 0.065446 -0.036816 -0.667928
v 0.008148 0.078892 -0.667928
v -0.062568 -0.055015 -0.946136
v 0.028584 -0.036816 -0.946136
v -0.028714 0.078892 -0.946136
v -0.089759 -0.055015 -1.043375
v 0.001393 -0.036816 -1.043375
v -0.055905 0.078892 -1.043375
v -0.130977 -0.055015 -1.124062
v -0.130977 -0.055015 -1.124062
v -0.050020 -0.036816 -1.165949
v -0.050020 -0.036816 -1.165949
v -0.075288 -0.000369 -1.152876
vn 0.1958 -0.9806 0.0101
vn 0.1958 -0.9806 0.0105
vn 0.1958 -0.9806 0.0000
vn 0.8730 0.4856 0.0460
vn 0.7876 0.6148 0.0409
vn 0.7883 0.6153 0.0000
vn 0.8743 0.4853 0.0000
vn 0.9385 0.3416 0.0497
vn 0.9397 0.3420 0.0000
vn 0.9346 0.3402 0.1034
vn 0.8701 0.4834 0.0960
vn 0.7854 0.6130 0.0857
vn 0.1957 -0.9804 0.0212
vn 0.1957 -0.9804 0.0219
vn 0.1956 -0.9799 0.0384
vn 0.1956 -0.9798 0.0420
vn 0.8591 0.4801 0.1771
vn 0.7787 0.6078 0.1553
vn 0.9222 0.3356 0.1921
vn 0.8851 0.3303 0.3279
vn 0.8285 0.4740 0.2982
vn 0.7561 0.6008 0.2593
vn 0.1919 -0.9791 0.0665
vn 0.1899 -0.9791 0.0731
vn 0.1579 -0.9768 0.1447
vn 0.1417 -0.9738 0.1779
vn 0.8065 0.4717 0.3564
vn 0.7358 0.5989 0.3159
vn 0.8603 0.3282 0.3899
vn 0.4327 0.2866 0.8547
vn 0.4084 0.3319 0.8503
vn 0.4072 0.3339 0.8501
vn 0.3884 0.3668 0.8453
vn 0.1087 -0.9637 0.2436
vn -0.9912 0.0156 -0.1311
vn -0.4383 0.2034 -0.8755
vn -0.8741 0.2333 -0.4260
vn -0.9101 0.2359 -0.3406
vn -0.9067 0.2358 -0.3497
vn -0.9513 0.2405 -0.1928
vn -0.9505 0.2403 -0.1971
vn -0.9640 0.2437 -0.1058
vn -0.9640 0.2437 -0.1065
vn -0.9682 0.2448 -0.0507
vn -0.9682 0.2448 -0.0512
vn -0.9695 0.2451 0.0000
vn 0.1958 -0.9806 -0.0101
vn 0.1958 -0.9806 -0.0105
vn 0.8730 0.4856 -0.0460
vn 0.7876 0.6148 -0.0409
vn 0.9385 0.3416 -0.0497
vn 0.9346 0.3402 -0.1034
vn 0.8701 0.4834 -0.0960
vn 0.7854 0.6130 -0.0857
vn 0.1957 -0.9804 -0.0212
vn 0.1957 -0.9804 -0.0219
vn 0.1956 -0.9799 -0.0384
vn 0.1956 -0.9798 -0.0420
vn 0.8591 0.4801 -0.1771
vn 0.7787 0.6078 -0.1553
vn 0.9222 0.3356 -0.1921
vn 0.8851 0.3303 -0.3279
vn 0.8285 0.4740 -0.2982
vn 0.7561 0.6008 -0.2593
vn 0.1919 -0.9791 -0.0665
vn 0.1899 -0.9791 -0.0731
vn 0.1579 -0.9768 -0.1447
vn 0.1417 -0.9738 -0.1779
vn 0.8065 0.4717 -0.3564
vn 0.7358 0.5989 -0.3159
vn 0.8603 0.3282 -0.3899
vn 0.4327 0.2866 -0.8547
vn 0.4072 0.3339 -0.8501
vn 0.4084 0.3319 -0.8503
vn 0.3884 0.3668 -0.8453
vn 0.1087 -0.9637 -0.2436
vn -0.9912 0.0156 0.1311
vn -0.4383 0.2034 0.8755
vn -0.8741 0.2333 0.4260
vn -0.9067 0.2358 0.3497
vn -0.9101 0.2359 0.3406
vn -0.9505 0.2403 0.1971
vn -0.9513 0.2405 0.1928
vn -0.9640 0.2437 0.1065
vn -0.9640 0.2437 0.1058
vn -0.9682 0.2448 0.0512
vn -0.9682 0.2448 0.0507
usemtl None
s 1
f 65//1 62//2 63//3 66//3
f 8//4 7//5 30//6 31//7
f 68//8 8//4 31//7 67//9
f 71//10 12//11 8//4 68//8
f 12//11 70//12 7//5 8//4
f 11//13 69//14 62//2 65//1
f 73//15 72//16 69//14 11//13
f 16//17 15//18 70//12 12//11
f 74//19 16//17 12//11 71//10
f 77//20 20//21 16//17 74//19
f 20//21 76//22 15//18 16//17
f 19//23 75//24 72//16 73//15
f 80//25 78//26 75//24 19//23
f 82//27 23//28 76//22 20//21
f 54//29 82//27 20//21 77//20
f 56//30 64//31 24//32 53//30
f 64//31 59//33 81//33 24//32
f 58//34 60//34 78//26 80//25
f 3//35 4//35 57//35 61//35
f 55//36 79//36 2//36 1//36
f 22//37 21//37 17//38 18//39
f 18//39 17//38 13//40 14//41
f 14//41 13//40 9//42 10//43
f 10//43 9//42 5//44 6//45
f 6//45 5//44 27//46 28//46
f 94//47 66//3 63//3 92//48
f 36//49 31//7 30//6 35//50
f 95//51 67//9 31//7 36//49
f 98//52 95//51 36//49 40//53
f 40//53 36//49 35//50 97//54
f 39//55 94//47 92//48 96//56
f 100//57 39//55 96//56 99//58
f 44//59 40//53 97//54 43//60
f 101//61 98//52 40//53 44//59
f 104//62 101//61 44//59 48//63
f 48//63 44//59 43//60 103//64
f 47//65 100//57 99//58 102//66
f 107//67 47//65 102//66 105//68
f 109//69 48//63 103//64 51//70
f 84//71 104//62 48//63 109//69
f 86//72 83//72 52//73 93//74
f 93//74 52//73 108//75 89//75
f 88//76 107//67 105//68 90//76
f 29//77 91//77 87//77 32//77
f 85//78 25//78 26//78 106//78
f 50//79 46//80 45//81 49//79
f 46//80 42//82 41//83 45//81
f 42//82 38//84 37//85 41//83
f 38//84 34//86 33//87 37//85
f 34//86 28//46 27//46 33//87
