# Blender v2.79 (sub 0) OBJ File: 'hood_scoop.blend'
# www.blender.org
mtllib hood_scoop.mtl
o Plane
v 0.000000 0.024712 0.379991
v -0.000000 -0.024712 0.379991
v 0.000000 0.024712 0.297857
v -0.000000 -0.024712 0.297857
v 0.000000 0.085630 0.351036
v 0.000000 0.064313 0.276935
v 0.000000 0.120944 0.176986
v 0.000000 0.083986 0.175802
v -0.255805 0.031108 0.291183
v -0.255805 0.031108 0.359184
v -0.255805 -0.023318 0.359184
v -0.255805 -0.023318 0.291183
v -0.255805 0.063895 0.273860
v -0.255805 0.081544 0.335211
v -0.255805 0.080183 0.180157
v -0.255805 0.110782 0.181137
v -0.517460 0.023007 0.328389
v -0.517460 -0.027677 0.328389
v -0.517460 0.067953 0.311790
v -0.517460 0.088197 0.187280
v 0.047145 0.024712 0.297857
v 0.047145 0.029792 0.364882
v 0.047145 -0.024846 0.364882
v 0.047145 -0.024712 0.297857
v 0.047145 0.064313 0.276935
v 0.047145 0.083123 0.339533
v 0.047145 0.083986 0.175802
v 0.047145 0.114040 0.187159
v -0.863093 -0.012919 0.254934
v -0.863093 -0.039593 0.254934
v -0.863093 -0.006863 0.251263
v -0.863093 -0.002385 0.223722
v 0.000000 0.024712 -0.379991
v -0.000000 -0.024712 -0.379991
v 0.000000 0.024712 -0.297857
v -0.000000 -0.024712 -0.297857
v 0.000000 0.085630 -0.351036
v 0.000000 0.064313 -0.276935
v 0.000000 0.120944 -0.176986
v 0.000000 0.083986 -0.175802
v 0.000000 0.120944 0.000000
v 0.000000 0.083986 0.000000
v -0.255805 0.031108 -0.291183
v -0.255805 0.031108 -0.359184
v -0.255805 -0.023318 -0.359184
v -0.255805 -0.023318 -0.291183
v -0.255805 0.063895 -0.273860
v -0.255805 0.081544 -0.335211
v -0.255805 0.080183 -0.180157
v -0.255805 0.110782 -0.181137
v -0.255805 0.080183 0.000000
v -0.255805 0.110782 0.000000
v -0.517460 0.023007 -0.328389
v -0.517460 -0.027677 -0.328389
v -0.517460 0.067953 -0.311790
v -0.517460 0.088197 0.000000
v -0.517460 0.088197 -0.187280
v 0.047145 0.024712 -0.297857
v 0.047145 0.029792 -0.364882
v 0.047145 -0.024846 -0.364882
v 0.047145 -0.024712 -0.297857
v 0.047145 0.064313 -0.276935
v 0.047145 0.083123 -0.339533
v 0.047145 0.083986 -0.175802
v 0.047145 0.114040 -0.187159
v 0.047145 0.083986 0.000000
v 0.047145 0.114040 0.000000
v -0.863093 -0.012919 -0.254934
v -0.863093 -0.039593 -0.254934
v -0.863093 -0.006863 -0.251263
v -0.863093 -0.002385 0.000000
v -0.863093 -0.002385 -0.223722
v -0.255805 -0.024555 0.000000
v -0.863093 -0.043233 0.000000
v -0.255805 -0.023318 0.291183
v -0.255805 -0.023318 0.291183
v -0.255805 0.031108 0.291183
v -0.255805 0.063895 0.273860
v -0.255805 0.080183 0.180157
v -0.255805 0.080183 0.000000
v -0.000000 -0.024712 0.297857
v -0.255805 -0.023318 0.359184
v -0.000000 -0.024712 0.379991
v 0.047145 0.029792 0.364882
v 0.047145 -0.024846 0.364882
v 0.047145 -0.024846 0.364882
v 0.047145 -0.024712 0.297857
v 0.047145 -0.024712 0.297857
v 0.047145 0.024712 0.297857
v 0.047145 0.083123 0.339533
v 0.047145 0.064313 0.276935
v 0.047145 0.083986 0.175802
v 0.047145 0.083986 0.175802
v 0.047145 0.083986 0.175802
v 0.047145 0.083986 0.175802
v 0.047145 0.114040 0.187159
v 0.047145 0.114040 0.187159
v 0.047145 0.114040 0.187159
v 0.047145 0.114040 0.187159
v 0.047145 0.083986 0.000000
v 0.047145 0.083986 0.000000
v 0.047145 0.083986 0.000000
v 0.047145 0.083986 0.000000
v 0.047145 0.114040 0.000000
v 0.047145 0.114040 0.000000
v 0.047145 0.114040 0.000000
v 0.047145 0.114040 0.000000
v 0.000000 0.120944 0.000000
v 0.000000 0.083986 0.000000
v 0.000000 0.083986 0.175802
v 0.000000 0.120944 0.176986
v -0.863093 -0.012919 0.254934
v -0.863093 -0.039593 0.254934
v -0.255805 -0.023318 -0.291183
v -0.255805 -0.023318 -0.291183
v -0.255805 0.031108 -0.291183
v -0.255805 0.063895 -0.273860
v -0.255805 0.080183 -0.180157
v -0.000000 -0.024712 -0.297857
v -0.255805 -0.023318 -0.359184
v -0.000000 -0.024712 -0.379991
v 0.047145 0.029792 -0.364882
v 0.047145 -0.024846 -0.364882
v 0.047145 -0.024846 -0.364882
v 0.047145 -0.024712 -0.297857
v 0.047145 -0.024712 -0.297857
v 0.047145 0.024712 -0.297857
v 0.047145 0.083123 -0.339533
v 0.047145 0.064313 -0.276935
v 0.047145 0.083986 -0.175802
v 0.047145 0.083986 -0.175802
v 0.047145 0.083986 -0.175802
v 0.047145 0.083986 -0.175802
v 0.047145 0.114040 -0.187159
v 0.047145 0.114040 -0.187159
v 0.047145 0.114040 -0.187159
v 0.047145 0.114040 -0.187159
v 0.000000 0.083986 -0.175802
v 0.000000 0.120944 -0.176986
v -0.863093 -0.012919 -0.254934
v -0.863093 -0.039593 -0.254934
vn 0.0053 -0.8037 -0.5950
vn 0.0056 -0.9956 -0.0930
vn 0.0000 -0.9816 -0.1909
vn 0.0000 -0.8030 -0.5959
vn -0.0037 -1.0000 -0.0004
vn -0.0035 -1.0000 -0.0004
vn -0.0016 -1.0000 -0.0009
vn 0.0690 0.7709 0.6332
vn 0.1027 0.2055 0.9732
vn 0.2736 0.2348 0.9327
vn 0.1812 0.8028 0.5680
vn -0.0781 0.7839 0.6159
vn -0.0580 0.9940 0.0920
vn -0.1628 0.9833 0.0810
vn -0.1810 0.7721 0.6091
vn -0.0945 0.2123 0.9726
vn -0.1697 0.1940 0.9662
vn -0.1633 0.0000 0.9866
vn -0.0990 0.0000 0.9951
vn -0.0054 -1.0000 0.0000
vn 0.0106 -0.8073 -0.5901
vn 0.0113 -0.9957 -0.0922
vn 0.0097 -0.2383 -0.9711
vn 0.0191 -0.2451 -0.9693
vn 0.0451 0.9948 0.0908
vn 0.0528 0.9986 0.0000
vn -0.0628 0.9980 0.0000
vn 0.0130 0.0000 -0.9999
vn 0.0261 0.0000 -0.9996
vn 0.1449 0.9894 0.0000
vn 0.0149 -0.9999 0.0000
vn 0.0074 -1.0000 0.0000
vn 0.1147 0.0000 0.9934
vn -0.1704 0.9854 0.0000
vn 1.0000 0.0000 0.0000
vn 0.0000 -0.2406 -0.9706
vn 0.0000 0.0000 -1.0000
vn 0.1187 0.1826 -0.9760
vn 0.0000 -1.0000 0.0000
vn 0.3052 0.0000 0.9523
vn 0.1001 0.9751 0.1978
vn -0.7326 0.5336 0.4226
vn -0.2238 0.1782 0.9582
vn -0.2079 0.0000 0.9781
vn -0.7917 0.6109 0.0000
vn -0.7737 0.6312 0.0550
vn -1.0000 0.0000 0.0000
vn 0.0053 -0.8037 0.5950
vn 0.0000 -0.8030 0.5959
vn 0.0000 -0.9816 0.1909
vn 0.0056 -0.9956 0.0930
vn -0.0037 -1.0000 0.0004
vn -0.0016 -1.0000 0.0009
vn -0.0035 -1.0000 0.0004
vn 0.0000 0.0000 1.0000
vn 0.0690 0.7709 -0.6332
vn 0.1812 0.8028 -0.5680
vn 0.2736 0.2348 -0.9327
vn 0.1027 0.2055 -0.9732
vn -0.0781 0.7839 -0.6159
vn -0.1810 0.7721 -0.6091
vn -0.1628 0.9833 -0.0810
vn -0.0580 0.9940 -0.0920
vn -0.0945 0.2123 -0.9726
vn -0.0990 0.0000 -0.9951
vn -0.1633 0.0000 -0.9866
vn -0.1697 0.1940 -0.9662
vn 0.0113 -0.9957 0.0922
vn 0.0106 -0.8073 0.5901
vn 0.0097 -0.2383 0.9711
vn 0.0191 -0.2451 0.9693
vn 0.0451 0.9948 -0.0908
vn 0.0130 0.0000 0.9999
vn 0.0261 0.0000 0.9996
vn 0.1147 0.0000 -0.9934
vn 0.0000 -0.2406 0.9706
vn 0.1187 0.1826 0.9760
vn 0.3052 0.0000 -0.9523
vn 0.1001 0.9751 -0.1978
vn -0.2238 0.1782 -0.9582
vn -0.7326 0.5336 -0.4226
vn -0.2079 0.0000 -0.9781
vn -0.7737 0.6312 -0.0550
usemtl None
s 1
f 6//1 8//2 93//3 25//4
f 2//5 81//6 87//7 86//7
f 5//8 1//9 84//10 90//11
f 14//12 16//13 20//14 19//15
f 10//16 17//17 18//18 82//19
f 5//8 14//12 10//16 1//9
f 2//5 11//20 75//20 81//6
f 6//1 78//21 79//22 8//2
f 3//23 77//24 78//21 6//1
f 16//13 7//25 41//26 52//27
f 4//28 76//29 77//24 3//23
f 41//26 7//25 98//30 105//30
f 8//2 79//22 80//31 109//32
f 1//9 10//16 82//19 83//33
f 7//25 16//13 14//12 5//8
f 14//12 19//15 17//17 10//16
f 52//27 56//34 20//14 16//13
f 22//35 85//35 88//35 89//35
f 22//35 89//35 91//35 26//35
f 26//35 91//35 95//35 97//35
f 3//23 6//1 25//4 21//36
f 4//28 3//23 21//36 24//37
f 110//38 111//38 96//38 92//38
f 94//35 100//35 107//35 28//35
f 8//2 109//32 103//39 27//39
f 1//9 83//33 23//40 84//10
f 7//25 5//8 90//11 99//41
f 17//17 19//15 31//42 112//43
f 17//17 112//43 113//44 18//18
f 20//14 56//34 71//45 32//46
f 20//14 32//46 31//42 19//15
f 51//35 15//35 13//35 9//35 12//35
f 51//35 12//35 73//35
f 29//47 31//42 32//46 71//45 74//47 30//47
f 38//48 62//49 131//50 40//51
f 34//52 124//53 125//53 119//54
f 42//55 101//55 104//55 108//55
f 37//56 128//57 122//58 33//59
f 48//60 55//61 57//62 50//63
f 44//64 120//65 54//66 53//67
f 37//56 33//59 44//64 48//60
f 34//52 119//54 114//20 45//20
f 38//48 40//51 118//68 117//69
f 35//70 38//48 117//69 116//71
f 50//63 52//27 41//26 39//72
f 36//73 35//70 116//71 115//74
f 41//26 106//30 136//30 39//72
f 40//51 109//32 80//31 118//68
f 33//59 121//75 120//65 44//64
f 39//72 37//56 48//60 50//63
f 48//60 44//64 53//67 55//61
f 52//27 50//63 57//62 56//34
f 59//35 127//35 126//35 123//35
f 59//35 63//35 129//35 127//35
f 63//35 135//35 64//35 129//35
f 35//70 58//76 62//49 38//48
f 36//73 61//55 58//76 35//70
f 138//77 130//77 134//77 139//77
f 132//35 137//35 67//35 102//35
f 40//51 133//39 66//39 109//32
f 33//59 122//58 60//78 121//75
f 39//72 65//79 128//57 37//56
f 53//67 140//80 70//81 55//61
f 53//67 54//66 141//82 140//80
f 57//62 72//83 71//45 56//34
f 57//62 55//61 70//81 72//83
f 51//35 46//35 43//35 47//35 49//35
f 51//35 73//35 46//35
f 68//47 69//47 74//47 71//45 72//83 70//81
