# Blender v2.79 (sub 0) OBJ File: 'mirror_modern1.blend'
# www.blender.org
mtllib mirror_modern1.mtl
o Body_Plane
v 0.000000 0.018055 0.053259
v -0.000000 -0.018055 0.053259
v 0.000000 0.028489 -0.053379
v -0.000000 -0.028489 -0.053379
v 0.000000 0.035812 -0.026720
v 0.000000 0.032195 -0.000060
v 0.000000 0.028489 0.026599
v -0.000000 -0.028489 0.026599
v -0.000000 -0.032195 -0.000060
v -0.000000 -0.035812 -0.026720
v 0.000000 0.009496 0.058707
v -0.000000 -0.009496 0.058707
v -0.000000 -0.009496 -0.061067
v 0.000000 0.009496 -0.061067
v -0.000000 -0.009496 0.026599
v 0.000000 0.009496 0.026599
v -0.000000 -0.009496 -0.000060
v 0.000000 0.009496 -0.000060
v -0.000000 -0.009496 -0.026720
v 0.000000 0.009496 -0.026720
v 0.009794 0.046631 0.043719
v 0.009794 0.029552 0.087356
v 0.009794 -0.015544 0.096273
v 0.009794 -0.029552 0.087356
v 0.009794 -0.058617 -0.043554
v 0.009794 -0.046631 -0.087190
v 0.009794 0.015544 -0.099775
v 0.009794 0.046631 -0.087190
v 0.009794 0.058617 -0.043554
v 0.009794 0.052697 0.000083
v 0.009794 -0.046631 0.043719
v 0.009794 -0.052697 0.000083
v 0.041322 -0.071197 -0.132973
v 0.054320 -0.089496 -0.066348
v 0.054320 -0.045120 0.133524
v 0.009794 0.015544 0.096273
v 0.009794 -0.015544 -0.099775
v 0.054320 -0.023732 0.147139
v 0.054320 0.045120 0.133524
v 0.054320 0.071197 0.066900
v 0.026345 0.061005 0.057282
v 0.026345 0.038661 0.114369
v 0.026345 -0.020335 0.126035
v 0.026345 -0.038661 0.114369
v 0.026345 -0.076685 -0.056891
v 0.026345 -0.061005 -0.113978
v 0.026345 0.020335 -0.130441
v 0.026345 0.061005 -0.113978
v 0.026345 0.076685 -0.056891
v 0.026345 0.068940 0.000196
v 0.026345 -0.061005 0.057282
v 0.026345 -0.068940 0.000196
v 0.072497 0.045120 0.133524
v 0.072497 0.071197 0.066900
v 0.072497 -0.045120 0.133524
v 0.026345 0.020335 0.126035
v 0.026345 -0.020335 -0.130441
v 0.072497 -0.023732 0.147139
v 0.072497 -0.071197 -0.132973
v 0.072497 -0.089496 -0.066348
v 0.054320 0.023732 -0.152186
v 0.054320 0.071197 -0.132973
v 0.054320 0.089496 -0.066348
v 0.054320 0.080458 0.000276
v 0.054320 -0.071197 0.066900
v 0.054320 -0.080458 0.000276
v 0.084221 -0.066835 -0.124844
v 0.084221 -0.084013 -0.062301
v 0.084221 -0.042356 0.125327
v 0.054320 0.023732 0.147139
v 0.041322 -0.023732 -0.152186
v 0.084221 -0.022278 0.138108
v 0.084221 0.042356 0.125327
v 0.084221 0.066835 0.062784
v 0.072497 0.023732 -0.152186
v 0.072497 0.071197 -0.132973
v 0.072497 0.089496 -0.066348
v 0.072497 0.080458 0.000276
v 0.072497 -0.071197 0.066900
v 0.072497 -0.080458 0.000276
v 0.070572 0.036088 0.106739
v 0.070572 0.056945 0.053451
v 0.070572 -0.036088 0.106739
v 0.072497 0.023732 0.147139
v 0.072497 -0.023732 -0.152186
v 0.070572 -0.018982 0.117629
v 0.070572 -0.056945 -0.106412
v 0.070572 -0.071581 -0.053124
v 0.084221 0.022278 -0.142880
v 0.084221 0.066835 -0.124844
v 0.084221 0.084013 -0.062301
v 0.084221 0.075529 0.000242
v 0.084221 -0.066835 0.062784
v 0.084221 -0.075529 0.000242
v 0.084221 0.022278 0.138108
v 0.084221 -0.022278 -0.142880
v 0.070572 0.018982 -0.121779
v 0.070572 0.056945 -0.106412
v 0.070572 0.071581 -0.053124
v 0.070572 0.064352 0.000164
v 0.070572 -0.056945 0.053451
v 0.070572 -0.064352 0.000164
v 0.070572 0.018982 0.053451
v 0.070572 0.018982 0.000164
v 0.070572 0.018982 -0.053124
v 0.070572 0.018982 0.117629
v 0.070572 -0.018982 -0.121779
v 0.070572 -0.018982 0.053451
v 0.070572 -0.018982 0.000164
v 0.070572 -0.018982 -0.053124
v 0.032643 -0.123784 -0.224888
v 0.032643 -0.049891 -0.254800
v 0.081177 -0.123784 -0.224888
v 0.081177 -0.049891 -0.254800
v 0.041322 -0.071197 -0.132973
v 0.041322 -0.071197 -0.132973
v 0.084221 -0.084013 -0.062301
v 0.084221 -0.066835 -0.124844
v 0.084221 -0.022278 0.138108
v 0.084221 -0.042356 0.125327
v 0.084221 0.066835 0.062784
v 0.084221 0.042356 0.125327
v 0.072497 -0.071197 -0.132973
v 0.072497 -0.071197 -0.132973
v 0.041322 -0.023732 -0.152186
v 0.072497 -0.023732 -0.152186
v 0.072497 -0.023732 -0.152186
v 0.084221 0.022278 -0.142880
v 0.084221 0.066835 -0.124844
v 0.084221 0.084013 -0.062301
v 0.084221 0.075529 0.000242
v 0.084221 -0.066835 0.062784
v 0.084221 -0.075529 0.000242
v 0.084221 0.022278 0.138108
v 0.084221 -0.022278 -0.142880
v 0.032643 -0.123784 -0.224888
v 0.032643 -0.123784 -0.224888
v 0.032643 -0.049891 -0.254800
v 0.032643 -0.049891 -0.254800
v 0.081177 -0.123784 -0.224888
v 0.081177 -0.123784 -0.224888
v 0.081177 -0.049891 -0.254800
v 0.081177 -0.049891 -0.254800
vn -1.0000 0.0000 0.0000
vn -0.9906 -0.0269 -0.1343
vn -0.9833 -0.1533 -0.0979
vn -0.9736 -0.2282 0.0034
vn -0.9888 -0.0459 0.1422
vn -0.9736 -0.2226 0.0491
vn -0.9792 -0.1737 0.1052
vn -0.9749 -0.2207 0.0303
vn -0.9749 0.2207 0.0303
vn -0.9736 0.2282 0.0034
vn -0.9736 0.2226 0.0491
vn -0.9792 0.1737 0.1052
vn -0.9888 0.0459 0.1422
vn -0.9833 0.1533 -0.0979
vn -0.9906 0.0269 -0.1343
vn -0.9281 -0.0720 -0.3653
vn -0.9281 0.0720 -0.3653
vn -0.7741 0.1538 -0.6141
vn -0.8293 -0.0727 -0.5541
vn -0.9207 -0.1142 0.3731
vn -0.8789 -0.3883 0.2768
vn -0.6675 -0.5861 0.4592
vn -0.7378 -0.1925 0.6469
vn -0.8234 -0.5504 0.1382
vn -0.8115 -0.5789 0.0795
vn -0.5477 -0.8289 0.1138
vn -0.5684 -0.7958 0.2085
vn -0.9037 -0.3438 -0.2550
vn -0.7848 -0.5091 -0.3533
vn -0.8234 0.5504 0.1382
vn -0.8789 0.3883 0.2768
vn -0.6675 0.5861 0.4592
vn -0.5684 0.7958 0.2085
vn -0.9207 0.1142 0.3731
vn -0.7378 0.1925 0.6469
vn -0.8115 0.5789 0.0795
vn -0.5477 0.8289 0.1138
vn -0.8376 0.5459 -0.0210
vn -0.5945 0.8025 -0.0503
vn -0.9037 0.3438 -0.2550
vn -0.7102 0.5431 -0.4479
vn -0.8376 -0.5459 -0.0210
vn -0.3131 0.2035 -0.9276
vn -0.7949 -0.0156 -0.6065
vn -0.2649 -0.7300 0.6299
vn -0.3030 -0.2621 0.9162
vn -0.1925 -0.9721 0.1335
vn -0.2040 -0.9453 0.2544
vn -0.9271 -0.3025 -0.2212
vn -0.2649 0.7300 0.6299
vn -0.2040 0.9453 0.2544
vn -0.3030 0.2621 0.9162
vn -0.1925 0.9721 0.1335
vn -0.2194 0.9724 -0.0792
vn -0.2885 0.7026 -0.6504
vn -0.6106 -0.7912 -0.0345
vn -0.2282 -0.9716 -0.0630
vn 0.2233 -0.9715 -0.0793
vn 0.1962 -0.9714 0.1334
vn 0.3198 0.1801 -0.9302
vn 0.4281 -0.1006 -0.8981
vn 0.2077 -0.9445 0.2543
vn 0.0000 -0.8680 0.4966
vn 0.2691 -0.7290 0.6293
vn 0.3074 -0.2616 0.9149
vn 0.3074 0.2616 0.9149
vn 0.2077 0.9445 0.2543
vn 0.1962 0.9714 0.1334
vn 0.2691 0.7290 0.6293
vn 0.2233 0.9715 -0.0793
vn 0.2927 0.7017 -0.6496
vn 0.5815 0.6490 -0.4904
vn 0.6260 0.1515 -0.7649
vn 0.4308 -0.9021 -0.0258
vn 0.3848 -0.9144 0.1256
vn 0.6260 -0.1515 -0.7649
vn 0.4061 -0.8880 0.2158
vn 0.3937 -0.7842 -0.4796
vn 0.5815 -0.6490 -0.4904
vn 0.5118 -0.7020 0.4952
vn 0.6114 -0.2335 0.7561
vn 0.6114 0.2335 0.7561
vn 0.4061 0.8880 0.2158
vn 0.3848 0.9144 0.1256
vn 0.5118 0.7020 0.4952
vn 0.0000 -0.9643 -0.2648
vn 0.8339 -0.1463 -0.5322
vn 0.8339 0.1463 -0.5322
vn 0.9420 0.1014 -0.3199
vn 0.9420 -0.1014 -0.3199
vn 0.6304 -0.7691 -0.1055
vn 0.6628 -0.7197 -0.2067
vn 0.8969 -0.4307 -0.0999
vn 0.9027 -0.4263 -0.0586
vn 0.7003 0.7092 0.0809
vn 0.8266 0.3966 0.3993
vn 0.9214 0.3200 0.2203
vn 0.8957 0.4447 0.0027
vn 0.7861 -0.4475 -0.4263
vn 0.9101 -0.3476 -0.2255
vn 0.7003 -0.7092 0.0809
vn 0.8957 -0.4447 0.0027
vn 0.8266 -0.3966 0.3993
vn 0.9214 -0.3200 0.2203
vn 0.8425 -0.1012 0.5291
vn 0.9502 -0.0609 0.3057
vn 0.6304 0.7691 -0.1055
vn 0.9027 0.4263 -0.0586
vn 0.8425 0.1012 0.5291
vn 0.9502 0.0609 0.3057
vn 0.6628 0.7197 -0.2067
vn 0.8969 0.4307 -0.0999
vn 0.4308 0.9021 -0.0258
vn 1.0000 0.0000 0.0000
vn 0.9101 0.3476 -0.2255
vn 0.7861 0.4475 -0.4263
vn 0.0000 -0.3752 -0.9269
vn 0.0000 0.9690 -0.2470
vn 0.9966 0.0309 0.0764
vn -0.9966 0.0309 0.0764
usemtl None
s 1
f 19//1 13//2 4//3 10//4
f 12//5 15//1 8//6 2//7
f 15//1 17//1 9//8 8//6
f 17//1 19//1 10//4 9//8
f 6//9 5//10 20//1 18//1
f 18//1 20//1 19//1 17//1
f 7//11 6//9 18//1 16//1
f 16//1 18//1 17//1 15//1
f 1//12 7//11 16//1 11//13
f 11//13 16//1 15//1 12//5
f 5//10 3//14 14//15 20//1
f 20//1 14//15 13//2 19//1
f 37//16 27//17 47//18 57//19
f 23//20 24//21 44//22 43//23
f 31//24 32//25 52//26 51//27
f 26//28 37//16 57//19 46//29
f 21//30 22//31 42//32 41//33
f 24//21 31//24 51//27 44//22
f 36//34 23//20 43//23 56//35
f 30//36 21//30 41//33 50//37
f 22//31 36//34 56//35 42//32
f 29//38 30//36 50//37 49//39
f 28//40 29//38 49//39 48//41
f 27//17 28//40 48//41 47//18
f 5//10 6//9 30//36 29//38
f 1//12 11//13 36//34 22//31
f 6//9 7//11 21//30 30//36
f 11//13 12//5 23//20 36//34
f 2//7 8//6 31//24 24//21
f 7//11 1//12 22//31 21//30
f 4//3 13//2 37//16 26//28
f 8//6 9//8 32//25 31//24
f 12//5 2//7 24//21 23//20
f 13//2 14//15 27//17 37//16
f 9//8 10//4 25//42 32//25
f 10//4 4//3 26//28 25//42
f 14//15 3//14 28//40 27//17
f 3//14 5//10 29//38 28//40
f 57//19 47//18 61//43 125//44
f 43//23 44//22 35//45 38//46
f 51//27 52//26 66//47 65//48
f 46//29 57//19 125//44 115//49
f 41//33 42//32 39//50 40//51
f 44//22 51//27 65//48 35//45
f 56//35 43//23 38//46 70//52
f 50//37 41//33 40//51 64//53
f 42//32 56//35 70//52 39//50
f 49//39 50//37 64//53 63//54
f 48//41 49//39 63//54 62//55
f 47//18 48//41 62//55 61//43
f 32//25 25//42 45//56 52//26
f 25//42 26//28 46//29 45//56
f 66//47 34//57 60//58 80//59
f 125//44 61//43 75//60 126//61
f 65//48 66//47 80//59 79//62
f 124//63 116//63 137//63 140//63
f 35//45 65//48 79//62 55//64
f 70//52 38//46 58//65 84//66
f 64//53 40//51 54//67 78//68
f 40//51 39//50 53//69 54//67
f 39//50 70//52 84//66 53//69
f 63//54 64//53 78//68 77//70
f 38//46 35//45 55//64 58//65
f 62//55 63//54 77//70 76//71
f 52//26 45//56 34//57 66//47
f 45//56 46//29 115//49 34//57
f 75//60 76//71 129//72 128//73
f 80//59 60//58 117//74 133//75
f 126//61 75//60 128//73 135//76
f 79//62 80//59 133//75 132//77
f 60//58 123//78 118//79 117//74
f 123//78 126//61 135//76 118//79
f 55//64 79//62 132//77 120//80
f 58//65 55//64 120//80 119//81
f 84//66 58//65 119//81 134//82
f 78//68 54//67 121//83 131//84
f 54//67 53//69 122//85 121//83
f 53//69 84//66 134//82 122//85
f 61//43 62//55 76//71 75//60
f 34//57 33//86 123//78 60//58
f 95//87 72//88 86//89 106//90
f 92//91 74//92 82//93 100//94
f 68//95 67//96 87//97 88//98
f 73//99 95//87 106//90 81//100
f 91//101 92//91 100//94 99//102
f 90//103 91//101 99//102 98//104
f 89//105 90//103 98//104 97//106
f 94//107 68//95 88//98 102//108
f 96//109 89//105 97//106 107//110
f 93//111 94//107 102//108 101//112
f 74//92 73//99 81//100 82//93
f 67//96 96//109 107//110 87//97
f 76//71 77//70 130//113 129//72
f 77//70 78//68 131//84 130//113
f 110//114 88//98 87//97 107//110
f 86//89 83//115 101//112 108//114
f 108//114 101//112 102//108 109//114
f 109//114 102//108 88//98 110//114
f 100//94 104//114 105//114 99//102
f 104//114 109//114 110//114 105//114
f 82//93 103//114 104//114 100//94
f 103//114 108//114 109//114 104//114
f 81//100 106//90 103//114 82//93
f 106//90 86//89 108//114 103//114
f 99//102 105//114 97//106 98//104
f 105//114 110//114 107//110 97//106
f 72//88 69//116 83//115 86//89
f 69//116 93//111 101//112 83//115
f 136//117 138//117 142//117 141//117
f 71//118 127//118 143//118 139//118
f 85//119 59//119 113//119 114//119
f 115//49 125//44 112//120 111//120
o Mirror_Plane.002
v 0.078301 0.040098 0.118677
v 0.078301 -0.040098 0.118677
v 0.078301 0.063272 -0.118156
v 0.078301 -0.063272 -0.118156
v 0.078301 0.079534 -0.058948
v 0.078301 0.071502 0.000260
v 0.078301 0.063272 0.059469
v 0.078301 -0.063272 0.059469
v 0.078301 -0.071502 0.000260
v 0.078301 -0.079534 -0.058948
v 0.078301 0.021091 0.130776
v 0.078301 -0.021091 0.130776
v 0.078301 -0.021091 -0.135231
v 0.078301 0.021091 -0.135231
v 0.078301 -0.021091 0.059469
v 0.078301 0.021091 0.059469
v 0.078301 -0.021091 0.000260
v 0.078301 0.021091 0.000260
v 0.078301 -0.021091 -0.058948
v 0.078301 0.021091 -0.058948
vn 1.0000 0.0000 0.0000
usemtl None
s off
f 162//121 153//121 147//121 156//121
f 155//121 145//121 151//121 158//121
f 158//121 151//121 152//121 160//121
f 160//121 152//121 153//121 162//121
f 149//121 161//121 163//121 148//121
f 161//121 160//121 162//121 163//121
f 150//121 159//121 161//121 149//121
f 159//121 158//121 160//121 161//121
f 144//121 154//121 159//121 150//121
f 154//121 155//121 158//121 159//121
f 148//121 163//121 157//121 146//121
f 163//121 162//121 156//121 157//121
