# Blender v2.79 (sub 0) OBJ File: 'mirror_retro_round.blend'
# www.blender.org
mtllib mirror_retro_round.mtl
o Body_Plane.000
v -0.157563 0.019878 0.049435
v -0.157563 -0.012103 0.049435
v -0.157563 0.019150 -0.042952
v -0.157563 -0.011521 -0.042952
v -0.157563 0.043458 -0.025423
v -0.157563 0.052628 0.003023
v -0.157563 0.043604 0.031324
v -0.157563 -0.036120 0.031324
v -0.157563 -0.044854 0.003023
v -0.157563 -0.035392 -0.025423
v -0.145236 0.088649 0.063343
v -0.145236 0.038023 0.101989
v -0.145236 -0.030216 0.101989
v -0.145236 -0.079909 -0.057740
v -0.145236 -0.028973 -0.095143
v -0.145236 0.036470 -0.095143
v -0.145236 0.088338 -0.057740
v -0.145236 0.107905 0.002957
v -0.145236 -0.081462 0.063343
v -0.145236 -0.100097 0.002957
v -0.129898 0.110339 0.078762
v -0.129898 0.046761 0.127295
v -0.129898 -0.038937 0.127295
v -0.129898 -0.101346 -0.073302
v -0.129898 -0.037377 -0.120275
v -0.129898 0.044811 -0.120275
v -0.129898 0.109949 -0.073302
v -0.129898 0.134523 0.002925
v -0.129898 -0.103296 0.078762
v -0.129898 -0.126699 0.002925
v -0.110161 0.121779 0.086893
v -0.110161 0.051369 0.140641
v -0.110161 -0.043537 0.140641
v -0.110161 -0.112651 -0.081509
v -0.110161 -0.041809 -0.133528
v -0.110161 0.049209 -0.133528
v -0.110161 0.121347 -0.081509
v -0.110161 0.148560 0.002908
v -0.110161 -0.114811 0.086893
v -0.110161 -0.140728 0.002908
v -0.097695 0.108654 0.077564
v -0.097695 0.046082 0.125329
v -0.097695 -0.038260 0.125329
v -0.097695 -0.099680 -0.072093
v -0.097695 -0.036724 -0.118322
v -0.097695 0.044163 -0.118322
v -0.097695 0.108270 -0.072093
v -0.097695 0.132455 0.002928
v -0.097695 -0.101600 0.077564
v -0.097695 -0.124632 0.002928
v -0.118677 0.096992 0.069274
v -0.118677 0.041384 0.111723
v -0.118677 -0.033570 0.111723
v -0.118677 -0.088155 -0.063726
v -0.118677 -0.032206 -0.104810
v -0.118677 0.039678 -0.104810
v -0.118677 0.096651 -0.063726
v -0.118677 0.118143 0.002945
v -0.118677 -0.089861 0.069274
v -0.118677 -0.110330 0.002945
v -0.174755 -0.001982 -0.019549
v -0.174755 -0.009499 -0.013811
v -0.174755 -0.019632 -0.013811
v -0.174755 -0.027011 -0.037529
v -0.174755 -0.019448 -0.043083
v -0.174755 -0.009730 -0.043083
v -0.174755 -0.002028 -0.037529
v -0.174755 0.000877 -0.028516
v -0.174755 -0.027242 -0.019549
v -0.174755 -0.030009 -0.028516
v -0.206047 -0.012857 -0.029140
v -0.205095 -0.021021 -0.024462
v -0.199952 -0.029751 -0.024462
v -0.184370 -0.029136 -0.043795
v -0.185437 -0.020986 -0.048323
v -0.190369 -0.012613 -0.048323
v -0.197050 -0.007610 -0.043795
v -0.203023 -0.007757 -0.036449
v -0.193226 -0.034621 -0.029140
v -0.187346 -0.034368 -0.036449
v -0.233117 -0.027509 -0.056109
v -0.234649 -0.035674 -0.051588
v -0.230205 -0.044404 -0.049000
v -0.207009 -0.043788 -0.057864
v -0.205653 -0.035639 -0.062313
v -0.209915 -0.027266 -0.064795
v -0.217966 -0.022263 -0.064246
v -0.226825 -0.022409 -0.060903
v -0.222038 -0.049273 -0.049657
v -0.213279 -0.049021 -0.053014
v -0.273694 -0.080742 -0.165990
v -0.275226 -0.088906 -0.161469
v -0.270782 -0.097636 -0.158880
v -0.247586 -0.097021 -0.167744
v -0.246230 -0.088871 -0.172194
v -0.250492 -0.080498 -0.174676
v -0.258544 -0.075495 -0.174126
v -0.267403 -0.075642 -0.170784
v -0.262616 -0.102506 -0.159537
v -0.253856 -0.102253 -0.162894
v -0.295137 -0.084228 -0.224615
v -0.296792 -0.093539 -0.224655
v -0.292176 -0.102543 -0.224114
v -0.267816 -0.098224 -0.221893
v -0.266345 -0.088956 -0.221870
v -0.270772 -0.080322 -0.222389
v -0.279198 -0.076025 -0.223228
v -0.288501 -0.077576 -0.224078
v -0.283629 -0.106673 -0.223265
v -0.274430 -0.105020 -0.222427
v -0.328185 -0.076483 -0.244374
v -0.334326 -0.096680 -0.244144
v -0.317155 -0.116211 -0.243855
v -0.226617 -0.106842 -0.243712
v -0.221161 -0.086740 -0.243943
v -0.237628 -0.068009 -0.244220
v -0.268953 -0.058688 -0.244424
v -0.303529 -0.062052 -0.244481
v -0.285380 -0.125170 -0.243655
v -0.251190 -0.121585 -0.243601
v -0.328137 -0.076686 -0.260942
v -0.334279 -0.096883 -0.260711
v -0.317108 -0.116414 -0.260423
v -0.226570 -0.107046 -0.260280
v -0.221114 -0.086943 -0.260511
v -0.237581 -0.068212 -0.260787
v -0.268905 -0.058891 -0.260991
v -0.303482 -0.062256 -0.261048
v -0.285333 -0.125374 -0.260222
v -0.251143 -0.121788 -0.260169
vn -0.6515 -0.1879 -0.7350
vn -0.7228 -0.5985 -0.3454
vn 0.3301 -0.7205 -0.6098
vn 0.3275 -0.2781 -0.9030
vn -0.9677 0.2520 0.0095
vn -0.9497 0.2664 -0.1644
vn -0.5170 0.6881 -0.5091
vn -0.7458 0.6658 0.0232
vn -0.9099 -0.4128 0.0396
vn -0.9576 -0.2248 0.1801
vn -0.5359 -0.7134 0.4515
vn -0.0468 -0.9945 -0.0934
vn -0.9704 -0.0692 0.2312
vn -0.9741 0.0736 0.2136
vn -0.8117 0.1624 0.5611
vn -0.7417 -0.2350 0.6282
vn -0.9217 0.3879 -0.0006
vn -0.9218 0.3170 0.2230
vn -0.7200 0.5674 0.3995
vn -0.7197 0.6942 -0.0011
vn -0.9216 -0.3881 -0.0047
vn -0.9211 -0.3146 -0.2291
vn -0.7184 -0.5624 -0.4094
vn -0.7195 -0.6944 -0.0079
vn -0.9209 -0.1211 -0.3706
vn -0.7179 -0.2166 -0.6615
vn -0.9215 0.3139 -0.2286
vn -0.7195 0.5615 -0.4087
vn -0.9220 -0.1224 0.3673
vn -0.9219 0.1237 0.3671
vn -0.9221 -0.3167 0.2221
vn -0.9731 0.1863 0.1351
vn -0.8734 0.2035 -0.4424
vn -0.9209 0.1194 -0.3710
vn -0.7205 0.2218 0.6569
vn 0.1294 0.3182 0.9391
vn 0.1303 0.8103 0.5714
vn -0.7180 0.2136 -0.6624
vn 0.1299 0.3055 -0.9432
vn 0.1298 -0.3094 -0.9420
vn 0.1300 0.9915 -0.0015
vn 0.1301 -0.8017 -0.5834
vn 0.1300 -0.9915 -0.0097
vn -0.7209 -0.5673 0.3981
vn -0.7206 -0.2198 0.6575
vn 0.1295 -0.3157 0.9399
vn 0.1299 -0.8114 0.5699
vn 0.9999 0.0090 -0.0069
vn 1.0000 0.0034 -0.0058
vn 1.0000 -0.0026 -0.0046
vn 0.9999 -0.0116 -0.0089
vn 0.9999 -0.0045 0.0099
vn 0.9999 0.0036 0.0081
vn 0.9999 -0.0121 -0.0000
vn 0.1297 0.8021 -0.5829
vn 0.9999 -0.0077 0.0047
vn 0.8453 -0.4318 0.3146
vn 0.8451 -0.1637 0.5088
vn 0.8463 0.4360 -0.3058
vn 0.8453 0.1690 -0.5069
vn 0.8450 -0.1708 -0.5068
vn 0.8467 -0.4351 -0.3062
vn 0.8447 0.1663 0.5087
vn 0.9999 0.0121 -0.0013
vn 0.9999 0.0104 0.0074
vn 0.8457 0.4314 0.3141
vn 0.8460 0.5331 0.0065
vn 0.8461 -0.5330 0.0009
vn -0.0742 0.8611 -0.5029
vn -0.4046 0.9141 0.0266
vn 0.0532 -0.8392 0.5412
vn 0.4113 -0.9115 -0.0016
vn -0.5561 0.1418 0.8189
vn -0.3205 -0.4209 0.8486
vn 0.0201 0.2804 -0.9597
vn 0.2817 0.4518 -0.8465
vn -0.8102 0.4618 0.3608
vn 0.5268 -0.1121 -0.8426
vn 0.5851 -0.6172 -0.5260
vn 0.7638 -0.6011 -0.2352
vn 0.8050 -0.0669 -0.5895
vn 0.0266 0.8657 -0.4997
vn -0.4731 0.8693 -0.1429
vn -0.0839 -0.8397 0.5365
vn 0.4216 -0.8838 0.2025
vn -0.8425 0.0405 0.5372
vn -0.5680 -0.4951 0.6574
vn -0.5813 0.6345 0.5094
vn 0.4133 -0.9061 0.0905
vn 0.8186 -0.5503 -0.1646
vn 0.9331 0.0006 -0.3595
vn 0.1927 0.9367 -0.2921
vn -0.4208 0.9049 -0.0639
vn -0.1513 -0.9401 0.3053
vn -0.7971 0.5559 0.2359
vn 0.5198 0.5075 -0.6872
vn 0.0851 0.9326 0.3508
vn -0.3398 0.8159 0.4678
vn -0.1697 -0.8682 0.4663
vn 0.2788 -0.8748 0.3963
vn -0.6686 -0.6284 0.3976
vn -0.9375 -0.0740 0.3399
vn -0.7191 -0.0958 0.6883
vn -0.5348 -0.6005 0.5943
vn 0.7108 0.5708 -0.4110
vn 0.5731 0.7496 0.3310
vn -0.8440 0.5096 0.1674
vn 0.9073 0.1512 0.3923
vn 0.7339 -0.5477 0.4017
vn 0.7225 -0.5087 0.4681
vn 0.8636 0.1957 0.4645
vn 0.1011 0.9344 0.3415
vn -0.3168 0.8752 0.3655
vn -0.0902 -0.9271 0.3637
vn 0.3162 -0.8563 0.4083
vn -0.8746 -0.1725 0.4530
vn -0.5173 -0.7408 0.4285
vn -0.6427 0.4454 0.6233
vn 0.2395 -0.7193 -0.6521
vn 0.6199 -0.4753 -0.6243
vn 0.7702 0.1708 -0.6144
vn 0.0735 0.7339 -0.6752
vn -0.2291 0.7050 -0.6712
vn -0.0615 -0.7505 -0.6580
vn -0.7235 0.5333 0.4383
vn 0.5134 0.7458 0.4245
vn 0.4117 0.6321 -0.6565
vn -0.7711 -0.1747 -0.6123
vn -0.6055 0.4715 -0.6411
vn -0.4039 -0.6519 -0.6417
usemtl None
s 1
f 4//1 10//2 64//3 65//4
f 6//5 5//6 67//7 68//8
f 9//9 8//10 69//11 70//12
f 2//13 1//14 62//15 63//16
f 18//17 11//18 21//19 28//20
f 20//21 14//22 24//23 30//24
f 14//22 15//25 25//26 24//23
f 17//27 18//17 28//20 27//28
f 1//14 2//13 13//29 12//30
f 8//10 9//9 20//21 19//31
f 5//6 6//5 18//17 17//27
f 10//2 4//1 15//25 14//22
f 9//9 10//2 14//22 20//21
f 6//5 7//32 11//18 18//17
f 4//1 3//33 16//34 15//25
f 7//32 1//14 12//30 11//18
f 2//13 8//10 19//31 13//29
f 3//33 5//6 17//27 16//34
f 21//19 22//35 32//36 31//37
f 25//26 26//38 36//39 35//40
f 28//20 21//19 31//37 38//41
f 30//24 24//23 34//42 40//43
f 15//25 16//34 26//38 25//26
f 11//18 12//30 22//35 21//19
f 13//29 19//31 29//44 23//45
f 16//34 17//27 27//28 26//38
f 12//30 13//29 23//45 22//35
f 19//31 20//21 30//24 29//44
f 33//46 39//47 49//48 43//49
f 31//37 32//36 42//50 41//51
f 35//40 36//39 46//52 45//53
f 38//41 31//37 41//51 48//54
f 23//45 29//44 39//47 33//46
f 26//38 27//28 37//55 36//39
f 22//35 23//45 33//46 32//36
f 29//44 30//24 40//43 39//47
f 27//28 28//20 38//41 37//55
f 24//23 25//26 35//40 34//42
f 46//52 47//56 57//57 56//58
f 43//49 49//48 59//59 53//60
f 41//51 42//50 52//61 51//62
f 45//53 46//52 56//58 55//63
f 36//39 37//55 47//56 46//52
f 32//36 33//46 43//49 42//50
f 39//47 40//43 50//64 49//48
f 37//55 38//41 48//54 47//56
f 34//42 35//40 45//53 44//65
f 40//43 34//42 44//65 50//64
f 57//57 54//66 55//63 56//58
f 52//61 53//60 59//59 51//62
f 51//62 59//59 60//67 58//68
f 58//68 60//67 54//66 57//57
f 42//50 43//49 53//60 52//61
f 49//48 50//64 60//67 59//59
f 47//56 48//54 58//68 57//57
f 44//65 45//53 55//63 54//66
f 50//64 44//65 54//66 60//67
f 48//54 41//51 51//62 58//68
f 68//8 67//7 77//69 78//70
f 70//12 69//11 79//71 80//72
f 63//16 62//15 72//73 73//74
f 67//7 66//75 76//76 77//69
f 10//2 9//9 70//12 64//3
f 7//32 6//5 68//8 61//77
f 3//33 4//1 65//4 66//75
f 1//14 7//32 61//77 62//15
f 8//10 2//13 63//16 69//11
f 5//6 3//33 66//75 67//7
f 75//78 74//79 84//80 85//81
f 78//70 77//69 87//82 88//83
f 80//72 79//71 89//84 90//85
f 73//74 72//73 82//86 83//87
f 65//4 64//3 74//79 75//78
f 64//3 70//12 80//72 74//79
f 61//77 68//8 78//70 71//88
f 66//75 65//4 75//78 76//76
f 62//15 61//77 71//88 72//73
f 69//11 63//16 73//74 79//71
f 84//80 90//85 100//89 94//90
f 85//81 84//80 94//90 95//91
f 88//83 87//82 97//92 98//93
f 90//85 89//84 99//94 100//89
f 74//79 80//72 90//85 84//80
f 71//88 78//70 88//83 81//95
f 76//76 75//78 85//81 86//96
f 72//73 71//88 81//95 82//86
f 79//71 73//74 83//87 89//84
f 77//69 76//76 86//96 87//82
f 98//93 97//92 107//97 108//98
f 100//89 99//94 109//99 110//100
f 93//101 92//102 102//103 103//104
f 97//92 96//105 106//106 107//97
f 81//95 88//83 98//93 91//107
f 86//96 85//81 95//91 96//105
f 82//86 81//95 91//107 92//102
f 89//84 83//87 93//101 99//94
f 87//82 86//96 96//105 97//92
f 83//87 82//86 92//102 93//101
f 105//108 104//109 114//110 115//111
f 108//98 107//97 117//112 118//113
f 110//100 109//99 119//114 120//115
f 103//104 102//103 112//116 113//117
f 95//91 94//90 104//109 105//108
f 94//90 100//89 110//100 104//109
f 91//107 98//93 108//98 101//118
f 96//105 95//91 105//108 106//106
f 92//102 91//107 101//118 102//103
f 99//94 93//101 103//104 109//99
f 114//110 120//115 130//119 124//120
f 115//111 114//110 124//120 125//121
f 118//113 117//112 127//122 128//123
f 120//115 119//114 129//124 130//119
f 104//109 110//100 120//115 114//110
f 101//118 108//98 118//113 111//125
f 106//106 105//108 115//111 116//126
f 102//103 101//118 111//125 112//116
f 109//99 103//104 113//117 119//114
f 107//97 106//106 116//126 117//112
f 127//122 126//127 125//121 124//120
f 122//128 121//129 129//124 123//130
f 121//129 128//123 130//119 129//124
f 128//123 127//122 124//120 130//119
f 111//125 118//113 128//123 121//129
f 116//126 115//111 125//121 126//127
f 112//116 111//125 121//129 122//128
f 119//114 113//117 123//130 129//124
f 117//112 116//126 126//127 127//122
f 113//117 112//116 122//128 123//130
o Mirror_Plane.001
v -0.110160 0.045081 0.122544
v -0.110160 -0.037294 0.122544
v -0.110160 0.043206 -0.115425
v -0.110160 -0.035794 -0.115425
v -0.110160 0.105819 -0.070273
v -0.110160 0.129439 0.002997
v -0.110160 0.106194 0.075893
v -0.110160 -0.099156 0.075893
v -0.110160 -0.121652 0.002997
v -0.110160 -0.097282 -0.070273
vn 1.0000 0.0000 0.0000
usemtl None
s off
f 135//131 140//131 134//131 133//131
f 131//131 132//131 138//131 137//131
f 137//131 138//131 139//131 136//131
f 136//131 139//131 140//131 135//131
