# Blender v2.79 (sub 0) OBJ File: 'offroad_fender_flare.blend'
# www.blender.org
mtllib offroad_fender_flare.mtl
o Plane
v -0.495443 0.004207 0.272726
v -0.327864 0.000000 0.442106
v -0.132874 0.000000 0.520198
v 0.103677 0.000000 0.520806
v 0.103677 0.000000 0.395090
v -0.078038 0.000000 0.394466
v -0.273028 0.000000 0.330861
v -0.370915 0.001514 0.226768
v -0.370102 0.092816 0.226333
v -0.460662 0.094570 0.265581
v -0.312221 0.091439 0.417364
v -0.141287 0.091439 0.482808
v 0.106577 0.091439 0.483435
v 0.104490 0.091301 0.394655
v -0.077225 0.091301 0.394031
v -0.272215 0.091301 0.330426
v -0.369551 0.138509 0.226094
v -0.386284 0.141120 0.301372
v -0.294016 0.138052 0.394631
v -0.167561 0.136560 0.443047
v 0.081990 0.112820 0.443510
v 0.083276 0.112578 0.394416
v -0.076674 0.136994 0.393792
v -0.271664 0.136994 0.330187
v -0.496875 -0.001514 0.000000
v -0.372347 -0.004207 0.000000
v -0.495443 0.004207 -0.272726
v -0.327864 0.000000 -0.442106
v -0.132874 0.000000 -0.520198
v 0.103677 0.000000 -0.520806
v 0.103677 0.000000 -0.395090
v -0.078038 0.000000 -0.394466
v -0.273028 0.000000 -0.330861
v -0.370915 0.001514 -0.226768
v -0.371535 0.087094 0.000000
v -0.463528 0.090312 0.000000
v -0.370102 0.092816 -0.226333
v -0.460662 0.094570 -0.265581
v -0.312221 0.091439 -0.417364
v -0.141287 0.091439 -0.482808
v 0.106577 0.091439 -0.483435
v 0.104490 0.091301 -0.394655
v -0.077225 0.091301 -0.394031
v -0.272215 0.091301 -0.330426
v -0.370983 0.132787 0.000000
v -0.387072 0.136402 0.000000
v -0.369551 0.138509 -0.226094
v -0.386284 0.141120 -0.301372
v -0.294016 0.138052 -0.394631
v -0.167561 0.136560 -0.443047
v 0.081990 0.112820 -0.443510
v 0.083276 0.112578 -0.394416
v -0.076674 0.136994 -0.393792
v -0.271664 0.136994 -0.330187
v -0.372347 -0.004207 0.000000
v -0.372347 -0.004207 0.000000
v -0.372347 -0.004207 0.000000
v -0.372347 -0.004207 0.000000
v -0.496875 -0.001514 0.000000
v -0.496875 -0.001514 0.000000
v -0.496875 -0.001514 0.000000
v -0.496875 -0.001514 0.000000
v -0.370915 0.001514 0.226768
v -0.495443 0.004207 0.272726
v -0.327864 0.000000 0.442106
v -0.132874 0.000000 0.520198
v 0.103677 0.000000 0.520806
v 0.103677 0.000000 0.520806
v 0.103677 0.000000 0.395090
v 0.103677 0.000000 0.395090
v -0.078038 0.000000 0.394466
v -0.273028 0.000000 0.330861
v -0.371535 0.087094 0.000000
v -0.371535 0.087094 0.000000
v -0.370983 0.132787 0.000000
v -0.370983 0.132787 0.000000
v -0.370983 0.132787 0.000000
v -0.370983 0.132787 0.000000
v -0.463528 0.090312 0.000000
v -0.463528 0.090312 0.000000
v 0.104490 0.091301 0.394655
v -0.387072 0.136402 0.000000
v -0.387072 0.136402 0.000000
v -0.369551 0.138509 0.226094
v 0.083276 0.112578 0.394416
v -0.076674 0.136994 0.393792
v -0.271664 0.136994 0.330187
v -0.370915 0.001514 -0.226768
v -0.495443 0.004207 -0.272726
v -0.327864 0.000000 -0.442106
v -0.132874 0.000000 -0.520198
v 0.103677 0.000000 -0.520806
v 0.103677 0.000000 -0.520806
v 0.103677 0.000000 -0.395090
v 0.103677 0.000000 -0.395090
v -0.078038 0.000000 -0.394466
v -0.273028 0.000000 -0.330861
v 0.104490 0.091301 -0.394655
v -0.369551 0.138509 -0.226094
v 0.083276 0.112578 -0.394416
v -0.076674 0.136994 -0.393792
v -0.271664 0.136994 -0.330187
vn -0.0174 -0.9996 0.0230
vn -0.0177 -0.9998 0.0096
vn -0.0177 -0.9998 0.0102
vn -0.0095 -0.9999 -0.0018
vn -0.0081 -0.9999 -0.0015
vn 0.0000 -1.0000 0.0000
vn -0.1412 0.5321 0.8348
vn 0.6597 0.5015 0.5596
vn 0.3467 0.8990 0.2675
vn -0.1038 0.8806 0.4622
vn 0.5361 -0.0098 -0.8441
vn 0.9285 -0.0116 -0.3712
vn 0.9278 -0.0131 -0.3729
vn 0.5357 -0.0109 -0.8444
vn 0.9999 -0.0105 -0.0060
vn 0.9999 -0.0121 -0.0060
vn -0.4992 0.4169 0.7595
vn -0.2795 0.8484 0.4494
vn 0.1595 -0.0061 -0.9872
vn 0.5359 -0.0088 -0.8442
vn 0.1588 -0.0068 -0.9873
vn -0.5194 0.3157 0.7941
vn -0.1594 0.3549 0.9212
vn 0.9290 -0.0100 -0.3699
vn 0.9999 -0.0089 -0.0061
vn -0.0023 0.3783 0.9257
vn 0.9997 -0.0223 -0.0097
vn 0.9206 0.3904 -0.0086
vn -0.9366 0.3503 0.0010
vn -0.8703 0.3523 0.3441
vn -0.7643 0.5780 0.2858
vn -0.7738 0.6334 -0.0048
vn 0.0034 -0.0048 -1.0000
vn 0.0034 -0.0052 -1.0000
vn -0.2030 0.9790 -0.0161
vn -0.3813 0.8812 0.2794
vn 0.1161 0.9930 -0.0189
vn 0.1415 0.9897 -0.0202
vn 0.0245 0.9996 -0.0088
vn 0.0897 0.9924 0.0843
vn 0.4254 0.9033 0.0544
vn 0.1653 -0.0076 -0.9862
vn 0.0032 -0.0061 -1.0000
vn -0.0174 -0.9996 -0.0230
vn -0.0177 -0.9998 -0.0102
vn -0.0177 -0.9998 -0.0096
vn -0.0081 -0.9999 0.0015
vn -0.0095 -0.9999 0.0018
vn -0.1412 0.5321 -0.8348
vn -0.1038 0.8806 -0.4622
vn 0.3467 0.8990 -0.2675
vn 0.6597 0.5015 -0.5596
vn 0.5361 -0.0098 0.8441
vn 0.5357 -0.0109 0.8444
vn 0.9278 -0.0131 0.3729
vn 0.9285 -0.0116 0.3712
vn 0.9999 -0.0121 0.0060
vn 0.9999 -0.0105 0.0060
vn -0.4992 0.4169 -0.7595
vn -0.2795 0.8484 -0.4494
vn 0.0000 0.0000 1.0000
vn 0.1595 -0.0061 0.9872
vn 0.1588 -0.0068 0.9873
vn 0.5359 -0.0088 0.8442
vn -0.5194 0.3157 -0.7941
vn -0.1594 0.3549 -0.9212
vn 0.9290 -0.0100 0.3699
vn 0.9999 -0.0089 0.0061
vn -0.0023 0.3783 -0.9257
vn 0.9997 -0.0223 0.0097
vn 0.9206 0.3904 0.0086
vn -0.9366 0.3503 -0.0010
vn -0.7738 0.6334 0.0048
vn -0.7643 0.5780 -0.2858
vn -0.8703 0.3523 -0.3441
vn 0.0034 -0.0048 1.0000
vn 0.0034 -0.0052 1.0000
vn -0.2030 0.9790 0.0161
vn 0.1415 0.9897 0.0202
vn 0.1161 0.9930 0.0189
vn -0.3813 0.8812 -0.2794
vn 0.0245 0.9996 0.0088
vn 0.0897 0.9924 -0.0843
vn 0.4254 0.9033 -0.0544
vn 0.0032 -0.0061 1.0000
vn 0.1653 -0.0076 0.9862
usemtl None
s 1
f 60//1 56//1 63//2 64//3
f 64//3 63//2 72//4 65//5
f 65//5 72//4 71//6 66//6
f 66//6 71//6 69//6 67//6
f 12//7 13//8 21//9 20//10
f 16//11 9//12 84//13 24//14
f 9//12 74//15 77//16 84//13
f 11//17 12//7 20//10 19//18
f 6//19 7//20 16//11 15//21
f 2//22 3//23 12//7 11//17
f 8//24 58//25 74//15 9//12
f 7//20 8//24 9//12 16//11
f 3//23 68//26 13//8 12//7
f 4//27 70//27 14//28 13//8
f 62//29 1//30 10//31 80//32
f 5//33 6//19 15//21 81//34
f 1//30 2//22 11//17 10//31
f 83//35 18//36 17//37 45//38
f 18//36 19//18 87//39 17//37
f 19//18 20//10 86//40 87//39
f 20//10 21//9 85//41 86//40
f 13//8 14//28 85//41 21//9
f 80//32 10//31 18//36 83//35
f 81//34 15//21 23//42 22//43
f 10//31 11//17 19//18 18//36
f 15//21 16//11 24//14 23//42
f 59//44 89//45 88//46 55//44
f 89//45 90//47 97//48 88//46
f 90//47 91//6 96//6 97//48
f 91//6 92//6 94//6 96//6
f 40//49 50//50 51//51 41//52
f 44//53 54//54 99//55 37//56
f 37//56 99//55 75//57 35//58
f 39//59 49//60 50//50 40//49
f 57//61 73//61 79//61 61//61
f 32//62 43//63 44//53 33//64
f 28//65 39//59 40//49 29//66
f 34//67 37//56 35//58 26//68
f 33//64 44//53 37//56 34//67
f 29//66 40//49 41//52 93//69
f 30//70 41//52 42//71 95//70
f 25//72 36//73 38//74 27//75
f 31//76 98//77 43//63 32//62
f 27//75 38//74 39//59 28//65
f 82//78 76//79 47//80 48//81
f 48//81 47//80 102//82 49//60
f 49//60 102//82 101//83 50//50
f 50//50 101//83 100//84 51//51
f 41//52 51//51 100//84 42//71
f 36//73 82//78 48//81 38//74
f 98//77 52//85 53//86 43//63
f 38//74 48//81 49//60 39//59
f 73//61 78//61 46//61 79//61
f 43//63 53//86 54//54 44//53
