# Blender v2.79 (sub 0) OBJ File: 'rear_spoiler_3.blend'
# www.blender.org
mtllib rear_spoiler_3.mtl
o Plane_Plane.001
v -0.169182 0.005437 0.183190
v -0.155237 -0.015514 0.183190
v 0.072589 -0.040520 0.183190
v 0.158161 -0.040520 0.183190
v 0.169182 -0.018954 0.183190
v 0.158161 0.002612 0.183190
v -0.062184 0.021992 0.183190
v -0.155237 0.026388 0.183190
v -0.062184 -0.040520 0.183190
v 0.072589 0.021992 0.183190
v -0.185925 -0.015514 0.587793
v -0.199688 0.005437 0.585546
v -0.185523 0.005437 0.381077
v -0.171615 -0.015514 0.382088
v 0.055612 -0.040520 0.398594
v 0.140959 -0.040520 0.404794
v 0.151951 -0.018954 0.405592
v 0.140959 0.002612 0.404794
v -0.078806 0.021992 0.388830
v -0.171615 0.026388 0.382088
v -0.078806 -0.040520 0.388830
v 0.055612 0.021992 0.398594
v -0.250198 -0.015514 0.981487
v -0.263960 0.005437 0.979241
v 0.038924 -0.040520 0.624500
v 0.123378 -0.040520 0.638288
v 0.134255 -0.018954 0.640063
v 0.123378 0.002612 0.638288
v -0.094088 0.021992 0.602785
v -0.185925 0.026388 0.587793
v -0.094088 -0.040520 0.602785
v 0.038924 0.021992 0.624500
v -0.025349 -0.040521 1.018195
v 0.059106 -0.040521 1.031983
v 0.069982 -0.018954 1.033758
v 0.059106 0.002612 1.031983
v -0.158360 0.021992 0.996480
v -0.250198 0.026388 0.981487
v -0.158360 -0.040521 0.996480
v -0.025349 0.021992 1.018195
v -0.280822 -0.039492 1.163005
v -0.294585 -0.028831 1.181180
v -0.282269 0.011610 1.104495
v -0.268506 -0.006697 1.094062
v -0.043657 -0.048451 1.109208
v 0.040798 -0.056515 1.120391
v 0.051674 -0.040062 1.134446
v 0.040798 -0.021531 1.145621
v -0.176668 0.014954 1.128162
v -0.268506 0.027289 1.118572
v -0.176668 -0.035749 1.091596
v -0.043657 0.002252 1.145774
v -0.288016 -0.073701 1.193532
v -0.301779 -0.073558 1.214603
v -0.055973 -0.083235 1.155301
v 0.028481 -0.095804 1.160969
v 0.039358 -0.088556 1.181359
v 0.028481 -0.078071 1.200289
v -0.188985 -0.037740 1.203359
v -0.280822 -0.022266 1.201202
v -0.188985 -0.063440 1.146374
v -0.055973 -0.057535 1.212286
v -0.298744 -0.149472 1.188282
v -0.312376 -0.151373 1.209352
v -0.063167 -0.107727 1.164984
v 0.021287 -0.121446 1.163606
v 0.032164 -0.125367 1.184888
v 0.021287 -0.125754 1.206524
v -0.196179 -0.092366 1.229353
v -0.288016 -0.077887 1.235224
v -0.196179 -0.086121 1.167153
v -0.063167 -0.113972 1.227184
v -0.071336 -0.149756 1.159733
v 0.014220 -0.150791 1.158356
v 0.025557 -0.153055 1.179637
v 0.014859 -0.155052 1.201273
v -0.205154 -0.154302 1.224102
v -0.298123 -0.153612 1.229974
v -0.206081 -0.148127 1.161903
v -0.070409 -0.155932 1.221933
v -0.070872 -0.152844 1.190833
v -0.205617 -0.151215 1.193002
v -0.155237 -0.015514 -0.000000
v 0.158161 -0.040520 -0.000000
v -0.155237 0.026388 0.000000
v 0.158161 0.002612 0.000000
v 0.072589 -0.040520 -0.000000
v 0.072589 0.021992 0.000000
v -0.062184 0.021992 0.000000
v -0.062184 -0.040520 -0.000000
v -0.169182 0.005437 0.000000
v 0.169182 -0.018954 -0.000000
v 0.072589 -0.009264 -0.000000
v -0.062184 -0.009264 -0.000000
v -0.169182 0.005437 -0.183190
v -0.155237 -0.015514 -0.183190
v 0.072589 -0.040520 -0.183190
v 0.158161 -0.040520 -0.183190
v 0.169182 -0.018954 -0.183190
v 0.158161 0.002612 -0.183190
v -0.062184 0.021992 -0.183190
v -0.155237 0.026388 -0.183190
v -0.062184 -0.040520 -0.183190
v 0.072589 0.021992 -0.183190
v -0.185925 -0.015514 -0.587793
v -0.199688 0.005437 -0.585546
v -0.185523 0.005437 -0.381077
v -0.171615 -0.015514 -0.382088
v 0.055612 -0.040520 -0.398594
v 0.140959 -0.040520 -0.404794
v 0.151951 -0.018954 -0.405592
v 0.140959 0.002612 -0.404794
v -0.078806 0.021992 -0.388830
v -0.171615 0.026388 -0.382088
v -0.078806 -0.040520 -0.388830
v 0.055612 0.021992 -0.398594
v -0.250198 -0.015514 -0.981487
v -0.263960 0.005437 -0.979241
v 0.038924 -0.040520 -0.624500
v 0.123378 -0.040520 -0.638288
v 0.134255 -0.018954 -0.640063
v 0.123378 0.002612 -0.638288
v -0.094088 0.021992 -0.602785
v -0.185925 0.026388 -0.587793
v -0.094088 -0.040520 -0.602785
v 0.038924 0.021992 -0.624500
v -0.025349 -0.040520 -1.018195
v 0.059106 -0.040520 -1.031983
v 0.069982 -0.018954 -1.033758
v 0.059106 0.002612 -1.031983
v -0.158360 0.021992 -0.996480
v -0.250198 0.026388 -0.981487
v -0.158360 -0.040520 -0.996480
v -0.025349 0.021992 -1.018195
v -0.280822 -0.039492 -1.163005
v -0.294585 -0.028831 -1.181180
v -0.282269 0.011610 -1.104495
v -0.268506 -0.006697 -1.094062
v -0.043657 -0.048451 -1.109208
v 0.040798 -0.056515 -1.120391
v 0.051674 -0.040062 -1.134446
v 0.040798 -0.021531 -1.145621
v -0.176668 0.014954 -1.128162
v -0.268506 0.027289 -1.118572
v -0.176668 -0.035749 -1.091596
v -0.043657 0.002252 -1.145774
v -0.288016 -0.073701 -1.193532
v -0.301779 -0.073558 -1.214603
v -0.055973 -0.083235 -1.155301
v 0.028481 -0.095803 -1.160969
v 0.039358 -0.088556 -1.181359
v 0.028481 -0.078071 -1.200289
v -0.188985 -0.037740 -1.203359
v -0.280822 -0.022265 -1.201202
v -0.188985 -0.063440 -1.146374
v -0.055973 -0.057535 -1.212286
v -0.298744 -0.149472 -1.188282
v -0.312376 -0.151373 -1.209352
v -0.063167 -0.107727 -1.164984
v 0.021287 -0.121445 -1.163606
v 0.032164 -0.125367 -1.184888
v 0.021287 -0.125754 -1.206524
v -0.196179 -0.092366 -1.229353
v -0.288016 -0.077887 -1.235224
v -0.196179 -0.086121 -1.167153
v -0.063167 -0.113972 -1.227184
v -0.071336 -0.149756 -1.159733
v 0.014220 -0.150791 -1.158356
v 0.025557 -0.153055 -1.179637
v 0.014859 -0.155052 -1.201273
v -0.205154 -0.154302 -1.224102
v -0.298123 -0.153611 -1.229974
v -0.206081 -0.148127 -1.161903
v -0.070409 -0.155932 -1.221933
v -0.070872 -0.152844 -1.190833
v -0.205617 -0.151214 -1.193002
v -0.169182 0.005437 0.000000
v -0.169182 0.005437 0.000000
v -0.169182 0.005437 0.000000
v -0.169182 0.005437 0.000000
v -0.155237 -0.015514 -0.000000
v -0.155237 -0.015514 -0.000000
v -0.155237 -0.015514 -0.000000
v -0.155237 -0.015514 -0.000000
v 0.072589 -0.040520 -0.000000
v 0.072589 -0.040520 -0.000000
v 0.158161 -0.040520 -0.000000
v 0.158161 -0.040520 -0.000000
v 0.158161 -0.040520 -0.000000
v 0.158161 -0.040520 -0.000000
v 0.169182 -0.018954 -0.000000
v 0.169182 -0.018954 -0.000000
v 0.169182 -0.018954 -0.000000
v 0.169182 -0.018954 -0.000000
v 0.158161 0.002612 0.000000
v 0.158161 0.002612 0.000000
v 0.158161 0.002612 0.000000
v 0.158161 0.002612 0.000000
v -0.062184 0.021992 0.000000
v -0.062184 0.021992 0.000000
v -0.155237 0.026388 0.000000
v -0.155237 0.026388 0.000000
v -0.155237 0.026388 0.000000
v -0.155237 0.026388 0.000000
v -0.062184 -0.040520 -0.000000
v -0.062184 -0.040520 -0.000000
v 0.072589 0.021992 0.000000
v 0.072589 0.021992 0.000000
v 0.140959 0.002612 0.404794
v 0.158161 0.002612 0.183190
v -0.171615 -0.015514 0.382088
v -0.155237 -0.015514 0.183190
v 0.140959 -0.040520 0.404794
v 0.158161 -0.040520 0.183190
v 0.169182 -0.018954 0.183190
v 0.151951 -0.018954 0.405592
v -0.155237 0.026388 0.183190
v -0.169182 0.005437 0.183190
v 0.123378 0.002612 0.638288
v -0.185925 -0.015514 0.587793
v 0.123378 -0.040520 0.638288
v 0.134255 -0.018954 0.640063
v -0.171615 0.026388 0.382088
v -0.185523 0.005437 0.381077
v 0.069982 -0.018954 1.033758
v 0.059106 0.002612 1.031983
v -0.250198 -0.015514 0.981487
v 0.059106 -0.040521 1.031983
v -0.185925 0.026388 0.587793
v -0.199688 0.005437 0.585546
v -0.268506 -0.006697 1.094062
v -0.263960 0.005437 0.979241
v -0.282269 0.011610 1.104495
v -0.250198 0.026388 0.981487
v -0.268506 0.027289 1.118572
v 0.051674 -0.040062 1.134446
v 0.040798 -0.021531 1.145621
v -0.280822 -0.039492 1.163005
v -0.294585 -0.028831 1.181180
v -0.280822 -0.022266 1.201202
v 0.039358 -0.088556 1.181359
v 0.028481 -0.078071 1.200289
v 0.040798 -0.056515 1.120391
v 0.028481 -0.095804 1.160969
v 0.028481 -0.095804 1.160969
v -0.288016 -0.073701 1.193532
v -0.288016 -0.073701 1.193532
v -0.301779 -0.073558 1.214603
v -0.288016 -0.077887 1.235224
v -0.196179 -0.086121 1.167153
v -0.298744 -0.149472 1.188282
v -0.298744 -0.149472 1.188282
v -0.312376 -0.151373 1.209352
v -0.312376 -0.151373 1.209352
v -0.298123 -0.153612 1.229974
v -0.298123 -0.153612 1.229974
v 0.032164 -0.125367 1.184888
v 0.021287 -0.121446 1.163606
v 0.021287 -0.125754 1.206524
v -0.071336 -0.149756 1.159733
v 0.014220 -0.150791 1.158356
v 0.014220 -0.150791 1.158356
v 0.025557 -0.153055 1.179637
v 0.025557 -0.153055 1.179637
v 0.014859 -0.155052 1.201273
v 0.014859 -0.155052 1.201273
v -0.205154 -0.154302 1.224102
v -0.206081 -0.148127 1.161903
v -0.070409 -0.155932 1.221933
v 0.140959 0.002612 -0.404794
v 0.158161 0.002612 -0.183190
v -0.171615 -0.015514 -0.382088
v -0.155237 -0.015514 -0.183190
v 0.140959 -0.040520 -0.404794
v 0.158161 -0.040520 -0.183190
v 0.169182 -0.018954 -0.183190
v 0.151951 -0.018954 -0.405592
v -0.155237 0.026388 -0.183190
v -0.169182 0.005437 -0.183190
v 0.123378 0.002612 -0.638288
v -0.185925 -0.015514 -0.587793
v 0.123378 -0.040520 -0.638288
v 0.134255 -0.018954 -0.640063
v -0.171615 0.026388 -0.382088
v -0.185523 0.005437 -0.381077
v 0.069982 -0.018954 -1.033758
v 0.059106 0.002612 -1.031983
v -0.250198 -0.015514 -0.981487
v 0.059106 -0.040520 -1.031983
v -0.185925 0.026388 -0.587793
v -0.199688 0.005437 -0.585546
v -0.268506 -0.006697 -1.094062
v -0.263960 0.005437 -0.979241
v -0.282269 0.011610 -1.104495
v -0.250198 0.026388 -0.981487
v -0.268506 0.027289 -1.118572
v 0.051674 -0.040062 -1.134446
v 0.040798 -0.021531 -1.145621
v -0.280822 -0.039492 -1.163005
v -0.294585 -0.028831 -1.181180
v -0.280822 -0.022265 -1.201202
v 0.039358 -0.088556 -1.181359
v 0.028481 -0.078071 -1.200289
v 0.040798 -0.056515 -1.120391
v 0.028481 -0.095803 -1.160969
v 0.028481 -0.095803 -1.160969
v -0.288016 -0.073701 -1.193532
v -0.288016 -0.073701 -1.193532
v -0.301779 -0.073558 -1.214603
v -0.288016 -0.077887 -1.235224
v -0.196179 -0.086121 -1.167153
v -0.298744 -0.149472 -1.188282
v -0.298744 -0.149472 -1.188282
v -0.312376 -0.151373 -1.209352
v -0.312376 -0.151373 -1.209352
v -0.298123 -0.153611 -1.229974
v -0.298123 -0.153611 -1.229974
v 0.032164 -0.125367 -1.184888
v 0.021287 -0.121445 -1.163606
v 0.021287 -0.125754 -1.206524
v -0.071336 -0.149756 -1.159733
v 0.014220 -0.150791 -1.158356
v 0.014220 -0.150791 -1.158356
v 0.025557 -0.153055 -1.179637
v 0.025557 -0.153055 -1.179637
v 0.014859 -0.155052 -1.201273
v 0.014859 -0.155052 -1.201273
v -0.205154 -0.154302 -1.224102
v -0.206081 -0.148127 -1.161903
v -0.070409 -0.155932 -1.221933
vn 0.8898 0.4550 0.0341
vn 0.8898 0.4550 0.0348
vn 0.8882 0.4544 0.0679
vn 0.2207 0.9753 0.0084
vn 0.1138 0.9935 0.0045
vn 0.1108 0.9938 0.0085
vn 0.2206 0.9752 0.0168
vn -0.2593 -0.9657 -0.0108
vn -0.1275 -0.9918 -0.0050
vn -0.1311 -0.9913 -0.0099
vn -0.2592 -0.9656 -0.0197
vn 0.0000 -1.0000 0.0000
vn 0.8898 -0.4550 0.0348
vn 0.8898 -0.4550 0.0341
vn 0.8882 -0.4544 0.0679
vn -0.1309 -0.9914 0.0000
vn 0.8905 -0.4550 0.0000
vn -0.2595 -0.9657 0.0000
vn 0.2209 0.9753 0.0000
vn 0.1111 0.9938 0.0000
vn 0.8905 0.4550 0.0000
vn 0.0236 0.9997 0.0000
vn 0.0472 0.9989 0.0000
vn 0.0471 0.9989 0.0020
vn 0.0229 0.9997 0.0009
vn -0.8325 0.5541 0.0000
vn -0.8317 0.5541 -0.0347
vn -0.8318 0.5541 -0.0337
vn -0.8325 -0.5541 0.0000
vn -0.8318 -0.5541 -0.0337
vn -0.8317 -0.5541 -0.0347
vn 0.8843 0.4550 0.1048
vn 0.8842 0.4550 0.1058
vn 0.1134 0.9934 0.0133
vn 0.2193 0.9753 0.0263
vn -0.1263 -0.9919 -0.0149
vn -0.2578 -0.9657 -0.0297
vn 0.8842 -0.4550 0.1058
vn 0.8843 -0.4550 0.1048
vn 0.0471 0.9989 0.0036
vn 0.0236 0.9997 0.0018
vn -0.8305 0.5533 -0.0631
vn -0.8305 -0.5533 -0.0631
vn -0.8268 0.5541 -0.0966
vn -0.8270 0.5541 -0.0953
vn -0.7951 0.5925 -0.1292
vn -0.7945 0.5934 -0.1291
vn 0.0227 0.9997 0.0027
vn 0.0469 0.9989 0.0054
vn 0.0662 0.9976 0.0209
vn 0.0413 0.9984 0.0370
vn 0.8786 0.4389 0.1881
vn 0.8784 0.4368 0.1935
vn 0.1189 0.9890 0.0873
vn 0.2231 0.9669 0.1233
vn -0.1456 -0.9892 -0.0140
vn -0.2698 -0.9628 -0.0143
vn -0.0133 -0.9976 -0.0680
vn -0.0176 -0.9990 -0.0415
vn -0.8268 -0.5541 -0.0966
vn -0.8270 -0.5541 -0.0953
vn 0.0631 0.9377 0.3415
vn 0.1335 0.8921 0.4315
vn -0.8231 -0.5566 -0.1127
vn -0.8231 -0.5565 -0.1133
vn -0.8342 -0.5141 -0.1995
vn -0.8347 -0.4855 -0.2597
vn -0.7769 0.6293 0.0179
vn -0.7765 0.6237 0.0889
vn 0.0916 0.9481 0.3043
vn 0.8857 0.3099 0.3457
vn 0.8856 0.3250 0.3317
vn 0.2369 0.8516 0.4675
vn 0.8685 -0.4840 0.1065
vn 0.8671 -0.4875 0.1019
vn -0.1770 -0.9502 -0.2562
vn -0.0385 -0.9351 -0.3523
vn -0.0385 -0.6145 -0.7880
vn -0.1800 -0.7268 -0.6628
vn 0.0644 0.6285 0.7751
vn 0.1305 0.5159 0.8466
vn -0.8307 -0.3693 -0.4164
vn -0.8296 -0.3262 -0.4532
vn -0.7704 0.5442 0.3320
vn -0.7684 0.5074 0.3899
vn 0.0949 0.6697 0.7365
vn 0.8831 0.0579 0.4655
vn 0.8833 0.0624 0.4646
vn 0.8654 -0.4927 -0.0905
vn 0.8652 -0.4961 -0.0720
vn -0.0282 -0.9146 -0.4032
vn -0.2958 -0.9207 -0.2546
vn 0.8730 -0.3560 -0.3332
vn 0.8730 -0.3578 -0.3316
vn 0.8719 -0.1817 -0.4546
vn 0.8719 -0.1831 -0.4541
vn -0.0227 -0.1403 -0.9898
vn -0.1935 -0.5728 -0.7965
vn 0.0485 0.1622 0.9856
vn 0.1221 0.0549 0.9910
vn -0.8439 -0.0934 -0.5283
vn -0.8454 -0.0049 -0.5341
vn -0.7964 0.2902 0.5306
vn -0.8087 0.2180 0.5463
vn 0.0784 0.2012 0.9764
vn -0.0271 -0.7561 -0.6539
vn -0.2965 -0.7182 -0.6295
vn 0.2329 0.4413 0.8666
vn 0.8725 -0.1220 -0.4731
vn -0.1384 0.1082 -0.9844
vn -0.0055 0.1215 -0.9926
vn -0.1502 0.1087 -0.9826
vn 0.0338 -0.0920 0.9952
vn 0.1048 -0.1397 0.9846
vn -0.8315 0.1520 -0.5342
vn -0.8197 0.0717 0.5682
vn 0.0563 -0.0837 0.9949
vn -0.0119 -0.2354 -0.9718
vn -0.0080 -0.0567 -0.9984
vn -0.2931 -0.5984 -0.7457
vn 0.2228 -0.0052 0.9748
vn 0.8713 -0.1890 0.4528
vn 0.8714 -0.1802 0.4562
vn -0.0136 -0.9950 -0.0986
vn -0.0033 0.1462 -0.9892
vn -0.2669 0.1129 -0.9571
vn 0.2214 -0.1836 0.9577
vn 0.8664 -0.2750 0.4168
vn 0.0000 0.0000 1.0000
vn 0.8898 0.4550 -0.0341
vn 0.8882 0.4544 -0.0679
vn 0.8898 0.4550 -0.0348
vn 0.2207 0.9753 -0.0084
vn 0.2206 0.9752 -0.0168
vn 0.1108 0.9938 -0.0085
vn 0.1138 0.9935 -0.0045
vn -0.2593 -0.9657 0.0108
vn -0.2592 -0.9656 0.0197
vn -0.1311 -0.9913 0.0099
vn -0.1275 -0.9918 0.0050
vn 0.8898 -0.4550 -0.0348
vn 0.8882 -0.4544 -0.0679
vn 0.8898 -0.4550 -0.0341
vn 0.0229 0.9997 -0.0009
vn 0.0471 0.9989 -0.0020
vn -0.8318 0.5541 0.0337
vn -0.8317 0.5541 0.0347
vn -0.8317 -0.5541 0.0347
vn -0.8318 -0.5541 0.0337
vn 0.8842 0.4550 -0.1058
vn 0.8843 0.4550 -0.1048
vn 0.2193 0.9753 -0.0263
vn 0.1134 0.9934 -0.0133
vn -0.2578 -0.9657 0.0297
vn -0.1263 -0.9919 0.0149
vn 0.8843 -0.4550 -0.1048
vn 0.8842 -0.4550 -0.1058
vn 0.0236 0.9997 -0.0018
vn 0.0471 0.9989 -0.0036
vn -0.8305 0.5533 0.0631
vn -0.8305 -0.5533 0.0631
vn -0.8268 0.5541 0.0966
vn -0.7945 0.5934 0.1291
vn -0.7951 0.5925 0.1292
vn -0.8270 0.5541 0.0953
vn 0.0227 0.9997 -0.0027
vn 0.0413 0.9984 -0.0370
vn 0.0662 0.9976 -0.0209
vn 0.0469 0.9989 -0.0054
vn 0.8784 0.4368 -0.1935
vn 0.8786 0.4389 -0.1881
vn 0.2231 0.9669 -0.1233
vn 0.1189 0.9890 -0.0873
vn -0.2698 -0.9628 0.0143
vn -0.1456 -0.9892 0.0140
vn -0.0176 -0.9990 0.0415
vn -0.0133 -0.9976 0.0680
vn -0.8270 -0.5541 0.0953
vn -0.8268 -0.5541 0.0966
vn 0.1335 0.8921 -0.4315
vn 0.0631 0.9377 -0.3415
vn -0.8231 -0.5566 0.1127
vn -0.8347 -0.4855 0.2597
vn -0.8342 -0.5141 0.1995
vn -0.8231 -0.5565 0.1133
vn -0.7765 0.6237 -0.0889
vn -0.7769 0.6293 -0.0179
vn 0.0916 0.9481 -0.3043
vn 0.8856 0.3250 -0.3317
vn 0.8857 0.3099 -0.3457
vn 0.2369 0.8516 -0.4675
vn 0.8671 -0.4875 -0.1019
vn 0.8685 -0.4840 -0.1065
vn -0.1770 -0.9502 0.2562
vn -0.1800 -0.7268 0.6628
vn -0.0385 -0.6145 0.7880
vn -0.0385 -0.9351 0.3523
vn 0.1305 0.5159 -0.8466
vn 0.0644 0.6285 -0.7751
vn -0.8296 -0.3262 0.4532
vn -0.8307 -0.3693 0.4164
vn -0.7684 0.5074 -0.3899
vn -0.7704 0.5442 -0.3320
vn 0.0949 0.6697 -0.7365
vn 0.8833 0.0624 -0.4646
vn 0.8831 0.0579 -0.4655
vn 0.8652 -0.4961 0.0720
vn 0.8654 -0.4927 0.0905
vn -0.0282 -0.9146 0.4032
vn -0.2958 -0.9207 0.2546
vn 0.8730 -0.3560 0.3332
vn 0.8719 -0.1831 0.4541
vn 0.8719 -0.1817 0.4546
vn 0.8730 -0.3578 0.3316
vn -0.1935 -0.5728 0.7965
vn -0.0227 -0.1403 0.9898
vn 0.1221 0.0549 -0.9910
vn 0.0485 0.1622 -0.9856
vn -0.8454 -0.0049 0.5341
vn -0.8439 -0.0934 0.5283
vn -0.8087 0.2180 -0.5463
vn -0.7964 0.2902 -0.5306
vn 0.0784 0.2012 -0.9764
vn -0.0271 -0.7561 0.6539
vn -0.2965 -0.7182 0.6295
vn 0.2329 0.4413 -0.8666
vn 0.8725 -0.1220 0.4731
vn -0.1384 0.1082 0.9844
vn -0.1502 0.1087 0.9826
vn -0.0055 0.1215 0.9926
vn 0.1048 -0.1397 -0.9846
vn 0.0338 -0.0920 -0.9952
vn -0.8315 0.1520 0.5342
vn -0.8197 0.0717 -0.5682
vn 0.0563 -0.0837 -0.9949
vn -0.0080 -0.0567 0.9984
vn -0.0119 -0.2354 0.9718
vn -0.2931 -0.5984 0.7457
vn 0.2228 -0.0052 -0.9748
vn 0.8714 -0.1802 -0.4562
vn 0.8713 -0.1890 -0.4528
vn -0.0136 -0.9950 0.0986
vn -0.0033 0.1462 0.9892
vn -0.2669 0.1129 0.9571
vn 0.2214 -0.1836 -0.9577
vn 0.8664 -0.2750 -0.4168
usemtl None
s 1
f 215//1 210//2 209//3 216//3
f 6//4 10//5 22//6 18//7
f 2//8 9//9 21//10 211//11
f 3//12 214//12 213//12 15//12
f 4//13 5//14 17//15 16//15
f 9//9 3//12 15//12 21//10
f 206//16 186//12 3//12 9//9
f 188//17 192//17 5//14 4//13
f 186//12 84//12 214//12 3//12
f 182//18 206//16 9//9 2//8
f 196//19 208//20 10//5 6//4
f 92//21 86//21 210//2 215//1
f 200//22 202//23 217//24 7//25
f 85//26 178//26 1//27 8//28
f 91//29 83//29 212//30 218//31
f 208//20 200//22 7//25 10//5
f 216//3 209//3 219//32 222//33
f 18//7 22//6 32//34 28//35
f 211//11 21//10 31//36 220//37
f 15//12 213//12 221//12 25//12
f 16//15 17//15 27//38 26//39
f 21//10 15//12 25//12 31//36
f 7//25 217//24 223//40 19//41
f 8//28 1//27 13//42 20//42
f 218//31 212//30 14//43 224//43
f 10//5 7//25 19//41 22//6
f 30//44 12//45 24//46 38//47
f 29//48 229//49 234//50 37//51
f 222//33 219//32 226//52 225//53
f 28//35 32//34 40//54 36//55
f 220//37 31//36 39//56 227//57
f 25//12 221//12 228//58 33//59
f 19//41 223//40 229//49 29//48
f 20//42 13//42 12//45 30//44
f 224//43 14//43 11//60 230//61
f 22//6 19//41 29//48 32//34
f 40//54 37//51 49//62 52//63
f 232//64 23//65 231//66 233//67
f 38//47 24//46 43//68 235//69
f 37//51 234//50 50//70 49//62
f 225//53 226//52 237//71 236//72
f 36//55 40//54 52//63 48//73
f 230//61 11//60 23//65 232//64
f 32//34 29//48 37//51 40//54
f 31//36 25//12 33//59 39//56
f 26//39 27//38 35//74 34//75
f 51//76 45//77 55//78 61//79
f 52//63 49//62 59//80 62//81
f 233//67 231//66 238//82 239//83
f 235//69 43//68 42//84 240//85
f 49//62 50//70 60//86 59//80
f 236//72 237//71 242//87 241//88
f 39//56 33//59 45//77 51//76
f 34//75 35//74 47//89 46//90
f 33//59 228//58 243//91 45//77
f 227//57 39//56 51//76 44//92
f 245//93 57//94 67//95 66//96
f 61//79 55//78 65//97 250//98
f 62//81 59//80 69//99 72//100
f 239//83 238//82 246//101 248//102
f 240//85 42//84 54//103 249//104
f 59//80 60//86 70//105 69//99
f 46//90 47//89 57//94 245//93
f 45//77 243//91 244//106 55//78
f 44//92 51//76 61//79 41//107
f 48//73 52//63 62//81 58//108
f 66//96 67//95 264//109 262//109
f 71//110 65//97 260//111 268//112
f 72//100 69//99 267//113 269//114
f 248//102 246//101 251//115 253//115
f 249//104 54//103 254//116 255//116
f 69//99 70//105 256//117 267//113
f 55//78 56//118 258//119 65//97
f 41//107 61//79 250//98 247//120
f 58//108 62//81 72//100 68//121
f 241//88 242//87 259//122 257//123
f 81//124 263//124 265//124 80//124
f 82//124 81//124 80//124 77//124
f 64//124 82//124 77//124 78//124
f 252//124 79//124 82//124 64//124
f 79//124 73//124 81//124 82//124
f 73//124 261//124 263//124 81//124
f 65//97 258//119 74//125 260//111
f 53//126 71//110 268//112 63//126
f 68//121 72//100 269//114 266//127
f 257//123 259//122 76//128 75//128
f 93//129 191//129 195//129 207//129
f 94//129 93//129 207//129 199//129
f 177//129 94//129 199//129 201//129
f 181//129 205//129 94//129 177//129
f 205//129 185//129 93//129 94//129
f 185//129 187//129 191//129 93//129
f 276//130 277//131 270//131 271//132
f 100//133 112//134 116//135 104//136
f 96//137 272//138 115//139 103//140
f 97//12 109//12 274//12 275//12
f 98//141 110//142 111//142 99//143
f 103//140 115//139 109//12 97//12
f 90//16 103//140 97//12 87//12
f 189//17 98//141 99//143 193//17
f 87//12 97//12 275//12 190//12
f 183//18 96//137 103//140 90//16
f 197//19 100//133 104//136 88//20
f 194//21 276//130 271//132 198//21
f 89//22 101//144 278//145 203//23
f 204//26 102//146 95//147 179//26
f 180//29 279//148 273//149 184//29
f 88//20 104//136 101//144 89//22
f 277//131 283//150 280//151 270//131
f 112//134 122//152 126//153 116//135
f 272//138 281//154 125//155 115//139
f 109//12 119//12 282//12 274//12
f 110//142 120//156 121//157 111//142
f 115//139 125//155 119//12 109//12
f 101//144 113//158 284//159 278//145
f 102//146 114//160 107//160 95//147
f 279//148 285//161 108//161 273//149
f 104//136 116//135 113//158 101//144
f 124//162 132//163 118//164 106//165
f 123//166 131//167 295//168 290//169
f 283//150 286//170 287//171 280//151
f 122//152 130//172 134//173 126//153
f 281//154 288//174 133//175 125//155
f 119//12 127//176 289//177 282//12
f 113//158 123//166 290//169 284//159
f 114//160 124//162 106//165 107//160
f 285//161 291//178 105//179 108//161
f 116//135 126//153 123//166 113//158
f 134//173 146//180 143//181 131//167
f 293//182 294//183 292//184 117//185
f 132//163 296//186 137//187 118//164
f 131//167 143//181 144//188 295//168
f 286//170 297//189 298//190 287//171
f 130//172 142//191 146//180 134//173
f 291//178 293//182 117//185 105//179
f 126//153 134//173 131//167 123//166
f 125//155 133//175 127//176 119//12
f 120//156 128//192 129//193 121//157
f 145//194 155//195 149//196 139//197
f 146//180 156//198 153//199 143//181
f 294//183 300//200 299//201 292//184
f 296//186 301//202 136//203 137//187
f 143//181 153//199 154//204 144//188
f 297//189 302//205 303//206 298//190
f 133//175 145//194 139//197 127//176
f 128//192 140//207 141//208 129//193
f 127//176 139//197 304//209 289//177
f 288//174 138//210 145//194 133//175
f 306//211 160//212 161//213 151//214
f 155//195 311//215 159//216 149//196
f 156//198 166//217 163//218 153//199
f 300//200 309//219 307//220 299//201
f 301//202 310//221 148//222 136//203
f 153//199 163//218 164//223 154//204
f 140//207 306//211 151//214 141//208
f 139//197 149//196 305//224 304//209
f 138//210 135//225 155//195 145//194
f 142//191 152//226 156//198 146//180
f 160//212 323//227 325//227 161//213
f 165//228 329//229 321//230 159//216
f 166//217 330//231 328//232 163//218
f 309//219 314//233 312//233 307//220
f 310//221 316//234 315//234 148//222
f 163//218 328//232 317//235 164//223
f 149//196 159//216 319//236 150//237
f 135//225 308//238 311//215 155//195
f 152//226 162//239 166//217 156//198
f 302//205 318//240 320//241 303//206
f 175//242 174//242 326//242 324//242
f 176//242 171//242 174//242 175//242
f 158//242 172//242 171//242 176//242
f 313//242 158//242 176//242 173//242
f 173//242 176//242 175//242 167//242
f 167//242 175//242 324//242 322//242
f 159//216 321//230 168//243 319//236
f 147//244 157//244 329//229 165//228
f 162//239 327//245 330//231 166//217
f 318//240 169//246 170//246 320//241
